<svg xmlns="http://www.w3.org/2000/svg" viewBox="0 0 55 61.6"><defs><style>.a{opacity:0.2;}.b{fill:#fff;}</style></defs><title>lifeBarSkull</title><path class="a" d="M12.1,44.4a28.2,28.2,0,0,0,5.1,3.2q0,5.9.2,11.9l5.8,1.3a3.1,3.1,0,0,0,0-.4C23,57,23,53.7,22.9,50.5l1.2,0.3q-0.1,5.1-.1,10.2l2.8,0.4,3,0.2q0-5.3.1-10.6h1.5a63.5,63.5,0,0,0,1.2,10.5h0a42.1,42.1,0,0,0,5.6-.5,3.1,3.1,0,0,0,0-1.2,55.6,55.6,0,0,1-1-12.5l5.6-3.2a13.5,13.5,0,0,0,2.7-1.7,27.9,27.9,0,0,0,6.3-5.6c3.1-4,3.7-9.6,2.8-14.5-1.9-10.1-10.1-15.3-19-18L34.7,4A23.2,23.2,0,0,0,31,3.1L30.2,3H28.9A32.5,32.5,0,0,0,14.4,6C8,8.8,2.3,12.9,1.1,20.1-0.6,29.7,4.3,39.1,12.1,44.4Z"/><path class="b" d="M11.3,41.5a28.2,28.2,0,0,0,5.1,3.2q0,5.9.2,11.9l5.8,1.3a3.1,3.1,0,0,0,0-.4c-0.1-3.3-.2-6.6-0.2-9.9l1.2,0.3q-0.1,5.1-.1,10.2l2.8,0.4,3,0.2q0-5.3.1-10.6h1.5a63.5,63.5,0,0,0,1.2,10.5h0a42.1,42.1,0,0,0,5.6-.5,3.1,3.1,0,0,0,0-1.2,55.6,55.6,0,0,1-1-12.5l5.6-3.2a13.5,13.5,0,0,0,2.7-1.7A27.9,27.9,0,0,0,51.1,34c3.1-4,3.7-9.6,2.8-14.5-1.9-10.1-10.1-15.3-19-18L34,1.1A23.2,23.2,0,0,0,30.2.2l-0.8-.2H28.2A32.5,32.5,0,0,0,13.6,3.2C7.3,6,1.6,10,.3,17.3-1.4,26.8,3.6,36.2,11.3,41.5Z"/><circle cx="16.7" cy="23.5" r="9.1"/><circle cx="39.6" cy="23.7" r="7.1"/><path d="M31.5,39.4c-1.1-1.7-1.6-3.7-2.9-5.2a0.8,0.8,0,0,0-.7-0.6,0.8,0.8,0,0,0-1,.8,6.9,6.9,0,0,0-.8,1.8,7.6,7.6,0,0,1-1.8,3.1,0.7,0.7,0,0,0,.5,1.2h6.1A0.7,0.7,0,0,0,31.5,39.4Z"/></svg>