<svg xmlns="http://www.w3.org/2000/svg" viewBox="0 0 478.3 40.8"><defs><style>.a{fill:#bcbc0a;}.b{fill:#d9e021;}</style></defs><title>lifebar</title><rect class="a" x="1" y="5.2" width="476.5" height="35.57" rx="5" ry="5"/><path class="b" d="M472.5,37.2c-2,0-2-1.1-4.1-1.1s-2,.3-4.1.3-2,.4-4.1.4-2-.9-4.1-0.9-2,.6-4.1.6-2,.3-4.1.3-2,.3-4.1.3-2-1.4-4.1-1.4-2,1.4-4.1,1.4-2-.3-4.1-0.3h-4.1c-2,0-2,.3-4.1.3s-2-.8-4.1-0.8-2,1.3-4.1,1.3-2-.3-4.1-0.3-2-1.3-4.1-1.3-2,.5-4.1.5-2,.2-4.1.2-2,.5-4.1.5-2-.8-4.1-0.8-2-.4-4.1-0.4-2,1.4-4.1,1.4-2-1.3-4.1-1.3-2,1.1-4.1,1.1-2-1.4-4.1-1.4-2,1-4.1,1-2-.6-4.1-0.6-2,1.2-4.1,1.2-2-.4-4.1-0.4-2-1-4.1-1-2,1.2-4.1,1.2-2-1.3-4.1-1.3-2,1-4.1,1-2,.6-4.1.6-2-1.9-4.1-1.9-2,1.8-4.1,1.8-2-.3-4.1-0.3-2-1.2-4.1-1.2l-4.1-.2-4.1-.2c-2,0-2,1.1-4.1,1.1s-2-.3-4.1-0.3-2-.4-4.1-0.4-2,.7-4.1.7h-4.1c-2,0-2-.8-4.1-0.8h-4.1c-2,0-2,.5-4.1.5s-2,1-4.1,1-2-.8-4.1-0.8l-4.1.2c-2,0-2,.8-4.1.8h-4.1c-2,0-2-1-4.1-1s-2,.3-4.1.3-2-.5-4.1-0.5-2,1-4.1,1-2-.6-4.1-0.6-2-.8-4.1-0.8-2,1.7-4.1,1.7-2-.6-4.1-0.6-2-.6-4.1-0.6-2,.5-4.1.5-2-.4-4.1-0.4-2-.3-4.1-0.3h-4.1c-2,0-2,1.1-4.1,1.1s-2-1.3-4.1-1.3-2,1.2-4.1,1.2l-4.1-.2L182,37l-4.1-.2c-2,0-2,.2-4.1.2s-2-.5-4.1-0.5-2,.5-4.1.5-2-1.2-4.1-1.2-2,1-4.1,1h-4.1c-2,0-2,.4-4.1.4s-2-1.4-4.1-1.4h-4.1c-2,0-2,.8-4.1.8s-2,.5-4.1.5-2-.7-4.1-0.7-2,.2-4.1.2-2-1.1-4.1-1.1-2,.5-4.1.5-2,.6-4.1.6h-4.1c-2,0-2,.5-4.1.5h-4.1c-2,0-2-.3-4.1-0.3s-2-1.6-4.1-1.6-2,1.4-4.1,1.4-2-.3-4.1-0.3-2-.6-4.1-0.6-2,.9-4.1.9-2-.7-4.1-0.7H67.4c-2,0-2,.7-4.1.7l-4.1-.2c-2,0-2-.5-4.1-0.5H51.1c-2,0-2,.6-4.1.6H42.9c-2,0-2,.5-4.1.5s-2-1.7-4.1-1.7-2,1.7-4.1,1.7-2-.4-4.1-0.4H22.4c-2,0-2-.5-4.1-0.5s-2.1.5-4.1,0.5l-4.1-.2C8,36.8,8,35.7,6,35.7a3.6,3.6,0,0,1-3.1-1,3.8,3.8,0,0,1-1.3-3.1c0-2.1-.3-2.1-0.3-4.3S0.7,25.2.7,23.1s0.1-2.1.1-4.3S0,16.7,0,14.5s1.7-2.1,1.7-4.3S0.7,8.2.7,6A5.3,5.3,0,0,1,2.4,2.4C3.3,1.5,4.6.2,6,.2s2,1.1,4.1,1.1,2-.2,4.1-0.2,2,0.7,4.1.7S20.3,0,22.3,0s2,1.8,4.1,1.8,2-1.6,4.1-1.6,2,0.3,4.1.3,2,1,4.1,1,2-.3,4.1-0.3,2-.8,4.1-0.8S48.9,1,51,1,53,2,55,2s2-1.7,4.1-1.7,2,1.3,4.1,1.3,2-.9,4.1-0.9,2-.7,4.1-0.7,2,1.2,4.1,1.2,2,0.7,4.1.7,2-1.7,4.1-1.7h4.1c2,0,2,.6,4.1.6s2-.3,4.1-0.3H100c2,0,2-.6,4.1-0.6s2,0.3,4.1.3,2,1.7,4.1,1.7,2-.7,4.1-0.7,2,0.8,4.1.8,2-1.7,4.1-1.7h8.2c2,0,2,1.6,4.1,1.6s2-.6,4.1-0.6H145c2,0,2,.5,4.1.5s2-1.1,4.1-1.1,2,0.9,4.1.9,2-.9,4.1-0.9,2-.7,4.1-0.7h4.1c2,0,2,1.1,4.1,1.1s2-1.3,4.1-1.3,2,0.9,4.1.9,2-.5,4.1-0.5H190c2,0,2,1.2,4.1,1.2s2-1.4,4.1-1.4,2,1.6,4.1,1.6,2-1.5,4.1-1.5,2,0.6,4.1.6,2,1.1,4.1,1.1,2-1.9,4.1-1.9,2,1.1,4.1,1.1,2-.3,4.1-0.3H231c2,0,2,.4,4.1.4s2,0.3,4.1.3,2-1.2,4.1-1.2,2,0.9,4.1.9,2,0.2,4.1.2,2,0.3,4.1.3h4.1c2,0,2,.3,4.1.3s2-1.9,4.1-1.9,2,0.7,4.1.7,2,1,4.1,1,2-.4,4.1-0.4,2-.4,4.1-0.4,2-.8,4.1-0.8h4.1c2,0,2,1,4.1,1s2-.4,4.1-0.4h4.1c2,0,2,.6,4.1.6s2-.8,4.1-0.8,2,0.7,4.1.7,2,0.3,4.1.3,2-.3,4.1-0.3,2-1.1,4.1-1.1l4.1,0.2h4.1c2,0,2,1.5,4.1,1.5s2-1.3,4.1-1.3,2,0.5,4.1.5,2-.3,4.1-0.3,2,0.9,4.1.9,2-.7,4.1-0.7,2-.4,4.1-0.4,2,0.9,4.1.9,2-1,4.1-1,2,1.2,4.1,1.2,2-1.2,4.1-1.2h4.1c2,0,2,.4,4.1.4h4.1c2,0,2-.3,4.1-0.3s2,1.6,4.1,1.6,2-1.2,4.1-1.2,2,0.4,4.1.4,2,0.5,4.1.5h4.1c2,0,2-.8,4.1-0.8s2-.7,4.1-0.7h4.1c2,0,2,.9,4.1.9s2-.3,4.1-0.3h4.1c2,0,2-.6,4.1-0.6s2,1.1,4.1,1.1,2,0.5,4.1.5,2-.9,4.1-0.9,2.1-.9,4.1-0.9,2.1,1,4.1,1,2.1,0.7,4.1.7a4,4,0,0,1,3.2,1.1c0.9,0.9,2.5,1.9,2.5,3.2s-0.5,2.1-.5,4.3-0.2,2.1-.2,4.3-0.6,2.1-.6,4.3,1.1,2.1,1.1,4.3-1.1,2.1-1.1,4.3,0.1,2.1.1,4.3,0.6,3.3-.3,4.2A6.7,6.7,0,0,1,472.5,37.2Z"/></svg>