<svg xmlns="http://www.w3.org/2000/svg" width="76.2" height="85.3" viewBox="0 0 76.2 85.3">
  <defs>
    <style>
      .cls-1 {
        opacity: 0.2;
      }

      .cls-2 {
        fill: #fff;
      }
    </style>
  </defs>
  <title>Asset 6</title>
  <g id="Layer_2" data-name="Layer 2">
    <g id="content">
      <g>
        <path class="cls-1" d="M16.7,61.6a39,39,0,0,0,7,4.4q0,8.2.3,16.4,4,1.1,8,1.8a4.3,4.3,0,0,0,0-.6c-.2-4.6-.3-9.1-.3-13.7l1.7.4q-.1,7.1-.1,14.1l3.9.5,4.1.3q0-7.3.1-14.6h2.1a88,88,0,0,0,1.6,14.5v.2a58.4,58.4,0,0,0,7.7-.7A4.2,4.2,0,0,0,53,83a77,77,0,0,1-1.4-17.3l7.7-4.4A18.7,18.7,0,0,0,63,58.9a38.6,38.6,0,0,0,8.8-7.8c4.4-5.5,5.1-13.4,3.8-20.1C72.9,17.1,61.7,9.9,49.3,6l-1.1-.6a32.2,32.2,0,0,0-5.2-1.1l-1.1-.2a4.1,4.1,0,0,0-1.8,0c-6.9-.3-13.7,1.4-20.2,4.3C11.1,12.3,3.2,17.9,1.5,27.9-.9,41.2,6,54.2,16.7,61.6Z"/>
        <path class="cls-2" d="M15.7,57.6a39,39,0,0,0,7,4.4q0,8.2.3,16.4,4,1.1,8,1.8a4.3,4.3,0,0,0,0-.6c-.2-4.6-.3-9.1-.3-13.7l1.7.4q-.1,7.1-.1,14.1l3.9.5,4.1.3q0-7.3.1-14.6h2.1a88,88,0,0,0,1.6,14.5v.2a58.4,58.4,0,0,0,7.7-.7A4.2,4.2,0,0,0,52,79a77,77,0,0,1-1.4-17.3l7.7-4.4A18.7,18.7,0,0,0,62,54.9a38.6,38.6,0,0,0,8.8-7.8c4.4-5.5,5.1-13.4,3.8-20.1C71.9,13.1,60.7,5.9,48.3,2l-1.1-.6A32.2,32.2,0,0,0,41.9.3L40.8.1a4.1,4.1,0,0,0-1.8,0C32.2-.2,25.3,1.5,18.9,4.4,10.1,8.3,2.2,13.9.5,23.9-1.9,37.2,5,50.2,15.7,57.6Z"/>
        <circle cx="23.2" cy="32.6" r="12.6"/>
        <circle cx="54.8" cy="32.8" r="9.8"/>
        <path d="M43.7,54.7c-1.5-2.3-2.2-5.2-4.1-7.2a1.1,1.1,0,0,0-1-.9,1,1,0,0,0-1.4,1.1,9.6,9.6,0,0,0-1.1,2.5,10.5,10.5,0,0,1-2.4,4.3,1,1,0,0,0,.7,1.7h8.5A1,1,0,0,0,43.7,54.7Z"/>
      </g>
    </g>
  </g>
</svg>
