<svg xmlns="http://www.w3.org/2000/svg" xmlns:xlink="http://www.w3.org/1999/xlink" width="77.5" height="89.2" viewBox="0 0 77.5 89.2">
  <defs>
    <style>
      .cls-1 {
        fill: none;
      }

      .cls-1, .cls-2, .cls-3, .cls-4 {
        stroke: #000;
        stroke-miterlimit: 10;
        stroke-width: 2.38px;
      }

      .cls-2 {
        fill: #754c24;
      }

      .cls-3 {
        fill: #fff;
      }

      .cls-5 {
        clip-path: url(#clip-path);
      }
    </style>
    <clipPath id="clip-path">
      <path class="cls-1" d="M34.1,71.5c-4.9-.4-10.4-1.7-13-5.9-1.4-2.2-1.6-5.4.3-7.2a5.9,5.9,0,0,1,4.6-1.3,33,33,0,0,1,4.8,1.1A24.7,24.7,0,0,0,45,57.5c2.7-1,6.1-3.1,9.1-2.4s4.9,5.5,3.3,8.7a10.8,10.8,0,0,1-5,4.6A36.9,36.9,0,0,1,34.1,71.5Z"/>
    </clipPath>
  </defs>
  <title>Asset 5</title>
  <g id="Layer_2" data-name="Layer 2">
    <g id="content">
      <g>
        <path class="cls-2" d="M40,88c-8.3.1-16.8-1.7-23.9-6.1S3.4,70.4,1.7,62.3C.6,56.9,1.3,51.1,4.5,46.7s9.2-6.8,14.4-5c-5.1-1.4-6.9-8.3-4.4-13s7.5-7.3,12.5-8.8S37.2,17.5,41.9,15s8.5-7.3,8-12.5C61.2,10.2,63.7,28.1,55,38.7c9.3-1.4,18.7,6.1,20.8,15.3s-2.2,19.2-9.4,25.3S49.4,87.9,40,88Z"/>
        <path class="cls-3" d="M16.1,34.2A14.2,14.2,0,0,1,29.5,45.6a6.2,6.2,0,0,1-1,5.1,5.2,5.2,0,0,1-4,1.6,12.2,12.2,0,0,1-4.3-1.1,40.7,40.7,0,0,1-6.9-3.6c-2.1-1.4-4.2-3.1-4.9-5.4a6.2,6.2,0,0,1,1.5-6A8.5,8.5,0,0,1,16.1,34.2Z"/>
        <path class="cls-4" d="M18.5,38.3c3.5,7.1-8.4,11.2-11.1,4.1S15.5,32.3,18.5,38.3Z"/>
        <path class="cls-3" d="M49,40.4a14,14,0,0,1,13.3-6.8c2.6.3,5.2,1.4,6.5,3.6s.8,5.5-1.4,6.7-3.8.4-5.6.9-3.6,1.9-5.3,3.1-3.8,2.2-5.8,1.5a4.8,4.8,0,0,1-2.9-4A8.4,8.4,0,0,1,49,40.4Z"/>
        <path class="cls-4" d="M61.8,33.2a6.2,6.2,0,0,0-4.2,3.7,5.1,5.1,0,0,0,.2,4.3c1.2,2.2,4,2.8,6.5,3a6.1,6.1,0,0,0,4.3-1,4.8,4.8,0,0,0,1.3-4.7,7.2,7.2,0,0,0-2.9-4.4A6.5,6.5,0,0,0,61.8,33.2Z"/>
        <path d="M34.1,71.5c-4.9-.4-10.4-1.7-13-5.9-1.4-2.2-1.6-5.4.3-7.2a5.9,5.9,0,0,1,4.6-1.3,33,33,0,0,1,4.8,1.1A24.7,24.7,0,0,0,45,57.5c2.7-1,6.1-3.1,9.1-2.4s4.9,5.5,3.3,8.7a10.8,10.8,0,0,1-5,4.6A36.9,36.9,0,0,1,34.1,71.5Z"/>
        <g>
          <g class="cls-5">
            <polygon class="cls-3" points="50.1 63.4 28.2 66.1 25.7 53.8 50 51.5 50.1 63.4"/>
          </g>
          <path class="cls-1" d="M34.1,71.5c-4.9-.4-10.4-1.7-13-5.9-1.4-2.2-1.6-5.4.3-7.2a5.9,5.9,0,0,1,4.6-1.3,33,33,0,0,1,4.8,1.1A24.7,24.7,0,0,0,45,57.5c2.7-1,6.1-3.1,9.1-2.4s4.9,5.5,3.3,8.7a10.8,10.8,0,0,1-5,4.6A36.9,36.9,0,0,1,34.1,71.5Z"/>
        </g>
      </g>
    </g>
  </g>
</svg>
