<svg xmlns="http://www.w3.org/2000/svg" xmlns:xlink="http://www.w3.org/1999/xlink" width="1920" height="761.3" viewBox="1 0 1921 761.3"><defs><style>.a,.aa,.ad,.ae,.af,.u,.v,.w{fill:none;}.b{fill:url(#a);}.c{fill:url(#b);}.d{fill:url(#c);}.e{fill:url(#d);}.f{fill:url(#e);}.g{fill:url(#f);}.h{fill:url(#g);}.i{fill:url(#h);}.j{fill:url(#i);}.k{fill:url(#j);}.l{fill:url(#k);}.m{fill:url(#l);}.n{fill:url(#m);}.o{fill:url(#n);}.p{fill:url(#o);}.q{fill:url(#p);}.r{fill:url(#q);}.s{fill:url(#r);}.t{clip-path:url(#s);}.u,.v,.w{stroke:#ffd300;}.aa,.ad,.ae,.af,.u,.v,.w{stroke-miterlimit:10;}.aa,.ae,.af,.v{stroke-width:3px;}.w{stroke-width:2px;}.x{opacity:0.5;}.y{fill:#fbb03b;}.z{fill:#fff;}.aa{stroke:#000;}.ab{clip-path:url(#t);}.ac{fill:red;}.ad,.af{stroke:#fff;}.ad{stroke-width:4px;}.ae{stroke:#a67c52;}</style><linearGradient id="a" x1="383.51" y1="14064.02" x2="622.75" y2="14064.02" gradientTransform="translate(0 -13727.3)" gradientUnits="userSpaceOnUse"><stop offset="0" stop-color="#3fa3da"/><stop offset="1" stop-color="#225aa5"/></linearGradient><linearGradient id="b" x1="180.96" y1="13985.59" x2="-127.85" y2="14091.38" gradientTransform="translate(0 -13727.3)" gradientUnits="userSpaceOnUse"><stop offset="0" stop-color="#63c130"/><stop offset="1" stop-color="#0d6a29"/></linearGradient><linearGradient id="c" x1="187.8" y1="13909.18" x2="447.42" y2="13946.26" gradientTransform="translate(0 -13727.3)" gradientUnits="userSpaceOnUse"><stop offset="0" stop-color="#ffb900"/><stop offset="1" stop-color="#ff7500"/></linearGradient><linearGradient id="d" x1="347.24" y1="14118.64" x2="135.24" y2="14193.13" xlink:href="#c"/><linearGradient id="e" x1="273.84" y1="13915.52" x2="59.59" y2="13990.8" xlink:href="#c"/><linearGradient id="f" x1="278.86" y1="13934.63" x2="68.07" y2="14008.69" xlink:href="#c"/><linearGradient id="g" x1="1895.88" y1="13985.59" x2="1587.07" y2="14091.38" xlink:href="#b"/><linearGradient id="h" x1="1902.73" y1="13909.18" x2="2162.34" y2="13946.26" xlink:href="#c"/><linearGradient id="i" x1="2062.17" y1="14118.64" x2="1850.17" y2="14193.13" xlink:href="#c"/><linearGradient id="j" x1="1988.76" y1="13915.52" x2="1774.51" y2="13990.8" xlink:href="#c"/><linearGradient id="k" x1="1993.78" y1="13934.63" x2="1782.99" y2="14008.69" xlink:href="#c"/><linearGradient id="l" x1="784.14" y1="14167.59" x2="935.72" y2="14167.59" gradientTransform="matrix(-0.98, 0.21, 0.21, 0.98, -1127.98, -13608.05)" xlink:href="#a"/><linearGradient id="m" x1="655.8" y1="14117.9" x2="460.14" y2="14184.93" gradientTransform="matrix(-0.98, 0.21, 0.21, 0.98, -1127.98, -13608.05)" xlink:href="#b"/><linearGradient id="n" x1="660.14" y1="14069.48" x2="824.63" y2="14092.98" gradientTransform="matrix(-0.98, 0.21, 0.21, 0.98, -1127.98, -13608.05)" xlink:href="#c"/><linearGradient id="o" x1="761.16" y1="14202.2" x2="626.83" y2="14249.4" gradientTransform="matrix(-0.98, 0.21, 0.21, 0.98, -1127.98, -13608.05)" xlink:href="#c"/><linearGradient id="p" x1="714.65" y1="14073.5" x2="578.9" y2="14121.2" gradientTransform="matrix(-0.98, 0.21, 0.21, 0.98, -1127.98, -13608.05)" xlink:href="#c"/><linearGradient id="q" x1="717.83" y1="14085.61" x2="584.27" y2="14132.53" gradientTransform="matrix(-0.98, 0.21, 0.21, 0.98, -1127.98, -13608.05)" xlink:href="#c"/><linearGradient id="r" x1="960.73" y1="213.73" x2="960.73" y2="698.15" gradientUnits="userSpaceOnUse"><stop offset="0" stop-color="#ffd300"/><stop offset="1" stop-color="#ef4e23"/></linearGradient><clipPath id="s"><path class="a" d="M1920.7,234.9V761.3H.7V449.2C731.3,278.2,883.2,505,1920.7,234.9Z"/></clipPath><clipPath id="t"><path d="M906.5,543.4c18.9-23.1,41.3-44.1,68.2-57.2s58.7-17.8,87.1-8.4a96.4,96.4,0,0,1,54.7,46.4c9.2,17.5,11.5,41.7-3,55.1-12.2,11.2-30.7,10.5-47.3,10.1-31.1-.7-63.7,2.8-89.9,19.7-10.9,7.1-20.3,16.2-31.3,23.2s-24.3,11.7-36.9,8.4c-18.8-4.9-29.3-26.6-27.3-45.9S894.2,558.4,906.5,543.4Z"/></clipPath></defs><title>Untitled-3</title><path class="b" d="M462,498.7c4.6,0,9.2.4,13.7,0,11.1-.9,22.3-1.6,33.3-3.5s22.2-5.3,33.2-8.1l.6-.2c2.7,5.6,4.8,11.3,8,16.4s6,7.1,9.2,10.5a4,4,0,0,0,2.9,1.2c10.4-1.4,18.6-5.9,22.8-15.7.8-1.8.6-3-1-4.3A57.5,57.5,0,0,1,571,477.3c-.5-.9-.9-1.9-1.3-2.8,4-2.9,8-5.6,11.8-8.6,20.4-16.1,32.5-37,37.9-61.6a150.7,150.7,0,0,0,2.2-51.5c-3.2-25-13-47.5-27.8-68.1a218.4,218.4,0,0,0-32.9-35.9,341.2,341.2,0,0,0-57.6-40.6,537.2,537.2,0,0,0-105.8-45.5l-13.9-4.1c3.1,10,6.1,19.4,9.1,28.8a3.8,3.8,0,0,0,1.9,2c17.1,7.5,34.4,14.4,51.2,22.5,23.1,11,45.3,23.7,64.3,40.9,10.2,9.3,18,20,19.7,33.9a39,39,0,0,1-.3,12.5c-1.5,7.4-7.9,12.1-16.1,13.1-12.6,1.6-24.1-1.7-35.3-6.6-7.4-3.2-14.2-7.3-19.6-13.2-3.8-4.1-5.8-8.9-5.2-14.5a11.8,11.8,0,0,1,8.4-10.3c6.1-2,12.5-3.1,18.9-4.7l-6.2-10.4c-4.1-7-4.1-6.9-12.4-6.8s-16.5,1.2-24.2,4.6c-13.3,5.8-18.2,16.6-16.8,29.9,2.3,21.3,14.4,36.6,31.8,48.6s33.9,19,52.6,24.8c12.2,3.8,24.7,6.7,37.2,9.7,3,.7,3.4,2.9,3.9,5,1.3,5.7,0,15.5-2.7,21.7-4.5-2.1-9.1-4-13.6-6.2l-39.6-19.3a15,15,0,0,0-3.1-.8,4.6,4.6,0,0,1-.5,1l-11,13,6.3,3.6c11.3,6.9,21.8,14.6,30.3,24.8,14.5,17.3,12.7,38.3,1.4,53.6-7.4,10-18.4,14.7-30.1,18.4-5.5,1.7-11.2,1.9-16.9,2.1s-12.6.1-18.9.1a55.6,55.6,0,0,0,3.3,5.2C454.8,490,458.4,494.3,462,498.7Z"/><path class="c" d="M99.5,298.8a15.6,15.6,0,0,1-2.9,1.8c-16.3,5.7-32.8,11.1-49,17.2-9.1,3.4-17.8,7.9-26.7,12L.9,311.6c28.2-15.6,45.7-40.3,61-66.8,10.7-18.5,20-37.6,26-58,4.9-16.6,6.2-33.4.7-50.1-6.6-19.8-20.9-33-39.9-41.8-9.7-4.5-9.7-4.3-16.5,3.7-4.1,4.9-8.2,9.7-12.5,14.7,4.5,1,8.9,1.8,13,3,16,4.9,27.8,14.2,32.3,30.3A56.7,56.7,0,0,1,63,183.4c-9.1,23-23.8,41.9-45.5,55.2-9.1,5.6-19.2,8.9-30.1,6.3s-20.4-9.1-24.2-20.6c-1.8-5.4-.9-10.9.9-16.1,3.9-11.4,11.2-20.7,19.6-29.1,6-6.1,12.6-11.6,19.1-17.3,1.5-1.3,2-2.4,1.1-4.2C.6,151-3,144.6-8.3,139.1A102.2,102.2,0,0,0-28,154.7c-19.4,19.7-31,43.3-37.8,69.4-6.3,23.9-7.6,48.2-4.9,72.7C-66,339.7-49.6,378-21.1,411.3c16.2,18.9,35.7,34,57.2,46.7,19.4,11.4,39.7,20.8,61.7,26.5,11.2,2.9,22.4,5.3,34.1,5.4-.1-3-.3-6-.3-9s.3-4.2.5-6.2L128,474c-8.4-1.5-17.2-2.1-25.3-4.6-30.1-9.2-52.8-27.3-67.7-54.3-4-7.2-6.9-14.8-7.5-23.6l1.7,1.8a75.9,75.9,0,0,0,21.3,18.2c5,3,6.4,2.9,11-.8,6.4-5.2,9.7-12.2,12-19.6.2-.7-.6-2.2-1.4-2.8-5.1-3.6-10.3-7-15.4-10.5L38.8,365.7c3.1-2.4,5.8-4.6,8.6-6.6,15-10.5,31.4-18.5,48.3-25.9,6.5-2.8,13.2-5.3,19.8-7.9a62.1,62.1,0,0,1,5.9-2.2c5.4-1.5,10.9-2.9,16.4-4.1l17.9-3.8a29.1,29.1,0,0,0,3.8-1.4A132.4,132.4,0,0,1,138,290.5l-13.9,2.9-13.4,3Z"/><path class="d" d="M138,290.5a132.4,132.4,0,0,0,21.4,23.3h1.3l2.7-.2c6-.9,12-2.3,18.1-2.6,10.7-.6,21.5-.7,32.3-.9a63.9,63.9,0,0,1,8.2.9l40.5,3.5c2.2.1,4.5.1,6.7.4l23.4,3.8c6.9,1.2,13.8,2.4,20.7,3.9q12.6,2.6,25.1,5.7c9.2,2.2,18.3,4.7,27,7-.9,4.7-1.8,9-2.5,13.4-1.6,11.4,1.5,21.9,6.4,32.1a4.8,4.8,0,0,0,3.5,2,58.1,58.1,0,0,0,11.3-.3c4.6-.7,9-2.1,13.4-3.1-3-12.2-5.6-23.8-5.8-36.2,2.5.7,4.6,1.2,6.6,1.9,11.1,3.9,22.3,7.3,33.1,11.8,13.2,5.4,26.1,11.5,39.1,17.4a40.9,40.9,0,0,1,5.4,3.5l11-13a4.6,4.6,0,0,0,.5-1c-6.7-3.7-13.5-7.3-20.1-11.1Q451.9,344,436.7,335c-6.4-3.8-12.8-7.6-18.9-11.7-10-6.8-20.1-13.4-29.6-20.9-11.3-8.9-22.3-18.2-32.8-28-7-6.5-12.9-14.2-19.1-21.5a89.3,89.3,0,0,1-6-8.6,29.2,29.2,0,0,1-1.5-3,27.9,27.9,0,0,0,19.4-6.3,45.9,45.9,0,0,0,15-21.4c1.2-3.4,2.7-6.7,3.4-10.1,1.9-10-.6-19.4-5.9-28s-10.7-14.1-17.3-20.1a192.7,192.7,0,0,0-30.1-21.9c-9.4-5.6-18.9-11.1-28.5-16.5-12.1-6.8-24.5-13.2-36.3-20.4a155.7,155.7,0,0,1-20.8-15.6A165.7,165.7,0,0,1,210,63c-3.6-4.3-6-9.5-8.9-14.3l-.9-1.6c-5.3,3.7-8.9,8.7-12.5,13.6-2.1,2.9-1.1,5.4.4,7.9a115.2,115.2,0,0,0,27.3,31.2c9.3,7.3,19,14.2,28.9,20.9,8.3,5.6,17,10.8,25.6,16s18.7,10.9,27.7,16.9a135.3,135.3,0,0,1,19.6,15.2c6.4,6.2,8.9,14.4,1.3,24.2-3.9,5.1-8.4,9.5-14.4,12.2a30.9,30.9,0,0,1-8,2.3c-13.7,2-26.1-2.5-37.9-8.5a316.6,316.6,0,0,1-29.9-17c-13-8.5-25.8-17.3-37.8-27-9.5-7.6-17.1-17.1-24-27S153,104.6,148.1,92c-4-10.5-6.5-21.3-8.6-32.3-2.8-14.6-3.5-29.4-3.5-44.2,0-5,.5-9.9.8-15.6-1.3,1.2-2.2,2-3,2.8L113.5,27c-2.6,3.1-5.6,6-7.7,9.3-1,1.5-.8,4.1-.4,6.1a222.5,222.5,0,0,0,16.7,52.9c4.7,10.2,10.3,20,15.8,29.7a163.7,163.7,0,0,0,12.1,18.7c6.9,8.9,14.1,17.6,21.6,26.1a224.2,224.2,0,0,0,16.3,16.6c6.1,5.6,12.4,11,19,16.1,8.1,6.2,16.4,12.3,25.1,17.9,10.3,6.6,21,12.5,31.5,18.7,12.8,7.5,23.6,17,31.8,29.2a58.6,58.6,0,0,1,10,27.9c-2-.5-3.7-1-5.4-1.3L265,288.7c-3.2-.5-6.4-.7-9.6-1.1-.3,0-.5-.6-.8-.9l-4.8-.3L223,284.6h-9.8c-2.9,0-5.8-.4-8.8-.3-9.2.2-18.5-.1-27.7.9-12.9,1.3-25.7,3.4-38.5,5.2Z"/><path class="e" d="M262.5,314.7,222,311.2c-5.7,10.6-14.8,15.5-27.2,14.9a63.5,63.5,0,0,1-24-6.4c-3.5-1.6-6.7-3.8-10.1-5.7h-1.3a29,29,0,0,1-3.8,1.4L137.7,319c-5.5,1.3-10.9,2.7-16.4,4.1-2,.5-3.9,1.5-5.9,2.2a117.2,117.2,0,0,0,27.3,20c23.8,12.7,49.4,18.1,76.4,17.7,2.2,0,3.5.3,4.2,2.6,5.3,16.9,8.2,34.1,5.2,51.8-2.4,13.9-8.3,26.1-19.3,35.7-14.8,12.9-32.9,18-52.1,20.1-8.3.9-16.6.9-25,1.4-.2,2.1-.5,4.2-.5,6.2s.2,6,.3,9c5.5.2,11,.7,16.4.5a154.9,154.9,0,0,0,48.5-9.5,161.3,161.3,0,0,0,63.3-42.3l1.9-1.9,1.3-.2-11.1,33.2a43.5,43.5,0,0,0,19.4,6.1,76.1,76.1,0,0,0,9.7-.1,2.8,2.8,0,0,0,2-1.3c4.7-9.2,7.9-18.9,7.4-29.2-.2-4.9-1.7-9.7-2.3-13.2,17,10.1,34.8,21.2,53.1,31.5,21.8,12.2,44.6,22.4,68.9,29.2a144.6,144.6,0,0,0,38.5,5.8l13.1.2c-3.6-4.4-7.3-8.7-10.8-13.1a55.9,55.9,0,0,1-3.3-5.2c-5.8-.7-11.7-1.1-17.4-2.1-19.1-3.3-37.5-8.9-54.2-18.6-19.8-11.5-37-26.1-52.3-42.8a293.9,293.9,0,0,1-52.7-80.7C268.2,329.1,265.4,321.9,262.5,314.7Z"/><path class="f" d="M223,284.6l26.8,1.9,4.8.3c-4.8-12.8-11.4-24.7-18.8-36.3a235.6,235.6,0,0,0-45.2-52.8,204.8,204.8,0,0,0-80.2-43l-1.4-.2-2.9,33.7c12.7,3.6,25,6.5,37,10.6,20.1,6.8,38.4,16.7,53.6,31.4,13.6,13.3,22.4,29.1,25.1,47.7C222.1,280.1,222.6,282.3,223,284.6Z"/><path class="g" d="M138,290.5h.3c-5.1-5.5-8.7-11.6-8-19.2s8.4-14.8,16.9-15.5,15,1.4,21.9,4.7l3,1.4,5.6-8.4,5.7-8.5c-10.4-8.3-21.7-14.7-34.8-17.5-9.4-2-18.7-1.8-27.7,1.8-16.9,6.9-30.8,23.4-28.9,44.6a62.5,62.5,0,0,0,7.6,25.1l11.3-2.4,13.4-3Z"/><path class="h" d="M1814.4,298.8a15.6,15.6,0,0,1-2.9,1.8c-16.3,5.7-32.8,11.1-49,17.2-9.1,3.4-17.8,7.9-26.7,12l-19.9-18.2c28.2-15.6,45.7-40.3,61-66.8,10.7-18.5,20-37.6,26-58,4.9-16.6,6.2-33.4.7-50.1-6.6-19.8-20.9-33-39.9-41.8-9.7-4.5-9.7-4.3-16.5,3.7-4.1,4.9-8.2,9.7-12.5,14.7,4.5,1,8.9,1.8,13,3,16,4.9,27.8,14.2,32.3,30.3a56.7,56.7,0,0,1-2.1,36.7c-9.1,23-23.8,41.9-45.5,55.2-9.1,5.6-19.2,8.9-30.1,6.3s-20.4-9.1-24.2-20.6c-1.8-5.4-.9-10.9.9-16.1,3.9-11.4,11.2-20.7,19.6-29.1,6-6.1,12.6-11.6,19.1-17.3,1.5-1.3,2-2.4,1.1-4.2-3.3-6.5-6.9-12.9-12.2-18.4a102.2,102.2,0,0,0-19.6,15.7c-19.4,19.7-31,43.3-37.8,69.4-6.3,23.9-7.6,48.2-4.9,72.7,4.7,42.9,21.1,81.2,49.6,114.5,16.2,18.9,35.7,34,57.2,46.7,19.4,11.4,39.7,20.8,61.7,26.5,11.2,2.9,22.4,5.3,34.1,5.4-.1-3-.3-6-.3-9s.3-4.2.5-6.2l-4.2-.6c-8.4-1.5-17.2-2.1-25.3-4.6-30.1-9.2-52.8-27.3-67.7-54.3-4-7.2-6.9-14.8-7.5-23.6l1.7,1.8a75.9,75.9,0,0,0,21.3,18.2c5,3,6.4,2.9,11-.8,6.4-5.2,9.7-12.2,12-19.6.2-.7-.6-2.2-1.4-2.8-5.1-3.6-10.3-7-15.4-10.5l-18.1-12.2c3.1-2.4,5.8-4.6,8.6-6.6,15-10.5,31.4-18.5,48.3-25.9,6.5-2.8,13.2-5.3,19.8-7.9a62.1,62.1,0,0,1,5.9-2.2c5.4-1.5,10.9-2.9,16.4-4.1l17.9-3.8a29.1,29.1,0,0,0,3.8-1.4,132.4,132.4,0,0,1-21.4-23.3l-13.9,2.9-13.4,3Z"/><path class="i" d="M1852.9,290.5a132.4,132.4,0,0,0,21.4,23.3h1.3l2.7-.2c6-.9,12-2.3,18.1-2.6,10.7-.6,21.5-.7,32.3-.9a63.9,63.9,0,0,1,8.2.9l40.5,3.5c2.2.1,4.5.1,6.7.4l23.4,3.8c6.9,1.2,13.8,2.4,20.7,3.9q12.6,2.6,25.1,5.7c9.2,2.2,18.3,4.7,27,7-.9,4.7-1.8,9-2.5,13.4-1.6,11.4,1.5,21.9,6.4,32.1a4.8,4.8,0,0,0,3.5,2,58.1,58.1,0,0,0,11.3-.3c4.6-.7,9-2.1,13.4-3.1-3-12.2-5.6-23.8-5.8-36.2,2.5.7,4.6,1.2,6.6,1.9,11.1,3.9,22.3,7.3,33.1,11.8,13.2,5.4,26.1,11.5,39.1,17.4a40.9,40.9,0,0,1,5.4,3.5l11-13a4.6,4.6,0,0,0,.5-1c-6.7-3.7-13.5-7.3-20.1-11.1q-15.3-8.8-30.5-17.8c-6.4-3.8-12.8-7.6-18.9-11.7-10-6.8-20.1-13.4-29.6-20.9-11.3-8.9-22.3-18.2-32.8-28-7-6.5-12.9-14.2-19.1-21.5a89.3,89.3,0,0,1-6-8.6,29.2,29.2,0,0,1-1.5-3,27.9,27.9,0,0,0,19.4-6.3,45.9,45.9,0,0,0,15-21.4c1.2-3.4,2.7-6.7,3.4-10.1,1.9-10-.6-19.4-5.9-28s-10.7-14.1-17.3-20.1a192.7,192.7,0,0,0-30.1-21.9c-9.4-5.6-18.9-11.1-28.5-16.5-12.1-6.8-24.5-13.2-36.3-20.4a155.7,155.7,0,0,1-20.8-15.6,165.7,165.7,0,0,1-17.6-18c-3.6-4.3-6-9.5-8.9-14.3l-.9-1.6c-5.3,3.7-8.9,8.7-12.5,13.6-2.1,2.9-1.1,5.4.4,7.9a115.2,115.2,0,0,0,27.3,31.2c9.3,7.3,19,14.2,28.9,20.9,8.3,5.6,17,10.8,25.6,16s18.7,10.9,27.7,16.9a135.3,135.3,0,0,1,19.6,15.2c6.4,6.2,8.9,14.4,1.3,24.2-3.9,5.1-8.4,9.5-14.4,12.2a30.9,30.9,0,0,1-8,2.3c-13.7,2-26.1-2.5-37.9-8.5a316.6,316.6,0,0,1-29.9-17c-13-8.5-25.8-17.3-37.8-27-9.5-7.6-17.1-17.1-24-27s-13.6-23.4-18.5-36c-4-10.5-6.5-21.3-8.6-32.3-2.8-14.6-3.5-29.4-3.5-44.2,0-5,.5-9.9.8-15.6-1.3,1.2-2.2,2-3,2.8L1828.4,27c-2.6,3.1-5.6,6-7.7,9.3-1,1.5-.8,4.1-.4,6.1A222.5,222.5,0,0,0,1837,95.3c4.7,10.2,10.3,20,15.8,29.7a163.7,163.7,0,0,0,12.1,18.7c6.9,8.9,14.1,17.6,21.6,26.1a224.2,224.2,0,0,0,16.3,16.6c6.1,5.6,12.4,11,19,16.1,8.1,6.2,16.4,12.3,25.1,17.9,10.3,6.6,21,12.5,31.5,18.7,12.8,7.5,23.6,17,31.8,29.2a58.6,58.6,0,0,1,10,27.9c-2-.5-3.7-1-5.4-1.3l-34.9-6.2c-3.2-.5-6.4-.7-9.6-1.1-.3,0-.5-.6-.8-.9l-4.8-.3-26.8-1.9h-9.8c-2.9,0-5.8-.4-8.8-.3-9.2.2-18.5-.1-27.7.9-12.9,1.3-25.7,3.4-38.5,5.2Z"/><path class="j" d="M1977.4,314.7l-40.5-3.5c-5.7,10.6-14.8,15.5-27.2,14.9a63.5,63.5,0,0,1-24-6.4c-3.5-1.6-6.7-3.8-10.1-5.7h-1.3a29,29,0,0,1-3.8,1.4l-17.9,3.8c-5.5,1.3-10.9,2.7-16.4,4.1-2,.5-3.9,1.5-5.9,2.2a117.2,117.2,0,0,0,27.3,20c23.8,12.7,49.4,18.1,76.4,17.7,2.2,0,3.5.3,4.2,2.6,5.3,16.9,8.2,34.1,5.2,51.8-2.4,13.9-8.3,26.1-19.3,35.7-14.8,12.9-32.9,18-52.1,20.1-8.3.9-16.6.9-25,1.4-.2,2.1-.5,4.2-.5,6.2s.2,6,.3,9c5.5.2,11,.7,16.4.5a154.9,154.9,0,0,0,48.5-9.5,161.3,161.3,0,0,0,63.3-42.3l1.9-1.9,1.3-.2-11.1,33.2a43.5,43.5,0,0,0,19.4,6.1,76.1,76.1,0,0,0,9.7-.1,2.8,2.8,0,0,0,2-1.3c4.7-9.2,7.9-18.9,7.4-29.2-.2-4.9-1.7-9.7-2.3-13.2,17,10.1,34.8,21.2,53.1,31.5,21.8,12.2,44.6,22.4,68.9,29.2a144.6,144.6,0,0,0,38.5,5.8l13.1.2c-3.6-4.4-7.3-8.7-10.8-13.1a55.9,55.9,0,0,1-3.3-5.2c-5.8-.7-11.7-1.1-17.4-2.1-19.1-3.3-37.5-8.9-54.2-18.6-19.8-11.5-37-26.1-52.3-42.8a293.9,293.9,0,0,1-52.7-80.7C1983.1,329.1,1980.3,321.9,1977.4,314.7Z"/><path class="k" d="M1937.9,284.6l26.8,1.9,4.8.3c-4.8-12.8-11.4-24.7-18.8-36.3a235.6,235.6,0,0,0-45.2-52.8,204.8,204.8,0,0,0-80.2-43l-1.4-.2-2.9,33.7c12.7,3.6,25,6.5,37,10.6,20.1,6.8,38.4,16.7,53.6,31.4,13.6,13.3,22.4,29.1,25.1,47.7C1937,280.1,1937.5,282.3,1937.9,284.6Z"/><path class="l" d="M1852.9,290.5h.3c-5.1-5.5-8.7-11.6-8-19.2s8.4-14.8,16.9-15.5,15,1.4,21.9,4.7l3,1.4,5.6-8.4,5.7-8.5c-10.4-8.3-21.7-14.7-34.8-17.5-9.4-2-18.7-1.8-27.7,1.8-16.9,6.9-30.8,23.4-28.9,44.6a62.5,62.5,0,0,0,7.6,25.1l11.3-2.4,13.4-3Z"/><path class="m" d="M1040,521.1c-2.8.6-5.6,1.5-8.5,1.8-7,.9-14.1,2-21.1,2.2s-14.4-.4-21.7-.6h-.4c-.9,3.8-1.5,7.6-2.8,11.2s-2.8,5.2-4.3,7.7a2.5,2.5,0,0,1-1.6,1.1c-6.6.5-12.3-1.2-16.2-6.7a2,2,0,0,1,.1-2.8,36.4,36.4,0,0,0,6.2-12.8c.2-.6.3-1.3.5-1.9-2.9-1.3-5.7-2.4-8.4-3.8-14.8-7.2-25-18.6-31.6-33.2a95.5,95.5,0,0,1-8.2-31.6c-1.3-15.9,1.8-31.2,8.2-45.9a138.3,138.3,0,0,1,15.6-26.6,216.2,216.2,0,0,1,30.3-32.8,340.4,340.4,0,0,1,59.5-42.2l8-4.4c-.6,6.6-1.2,12.8-1.8,19a2.4,2.4,0,0,1-.9,1.5c-9.6,6.9-19.4,13.5-28.7,20.7-12.9,9.9-25,20.7-34.4,33.9-5.1,7.1-8.5,14.8-7.7,23.6a24.7,24.7,0,0,0,1.8,7.7c1.9,4.4,6.5,6.4,11.7,6,8-.7,14.7-4.3,21-8.8a36.4,36.4,0,0,0,10.4-10.8,11.2,11.2,0,0,0,1.3-9.7,7.5,7.5,0,0,0-6.6-5.3c-4-.5-8.1-.3-12.3-.4l2.4-7.3c1.6-4.9,1.6-4.8,6.8-5.8a39.8,39.8,0,0,1,15.6-.4c9,1.8,13.5,7.9,14.4,16.3,1.4,13.5-4.1,24.6-13.3,34.3a120,120,0,0,1-29.3,22.3c-7.1,4-14.4,7.4-21.7,10.9-1.8.9-1.7,2.3-1.7,3.6,0,3.7,2.1,9.6,4.5,13.1l7.6-5.6,22-17.2a9.5,9.5,0,0,1,1.8-.9l.4.5,8.5,6.6-3.4,3.1c-6.1,5.8-11.6,12-15.5,19.4-6.7,12.7-2.8,25.4,6.3,33.4,5.9,5.2,13.4,6.7,21.1,7.4a39.3,39.3,0,0,0,10.7-.9c3.9-.7,7.8-1.6,11.7-2.5a35.2,35.2,0,0,1-1.4,3.6C1043.4,514.8,1041.7,517.9,1040,521.1Z"/><path class="n" d="M1238.2,349.3a9.9,9.9,0,0,0,2,.7c10.9,1.4,21.8,2.6,32.6,4.2,6.1.9,12.1,2.6,18.1,3.9l9.9-13.9c-19.5-5.9-33.7-18.9-46.7-33.3-9.1-10-17.4-20.6-23.8-32.5-5.2-9.7-8.3-19.9-7.1-31,1.4-13.1,8.6-23.2,19.2-31.2,5.4-4.1,5.5-4,10.7.1l9.7,7.4c-2.7,1.2-5.3,2.3-7.7,3.6-9.2,5.1-15.3,12.4-16,23a35.9,35.9,0,0,0,6.2,22.5c8.7,13,20.3,22.8,35.5,28.1,6.4,2.3,13.1,3,19.5-.1s11.4-8.4,12.2-16c.4-3.6-.9-6.9-2.7-9.9-3.9-6.5-9.7-11.3-16-15.5-4.5-3-9.4-5.5-14.1-8.2-1.1-.6-1.6-1.2-1.2-2.5a46.3,46.3,0,0,1,5.1-13,64.7,64.7,0,0,1,14.2,7.1c14.6,9.6,24.9,22.7,32.6,38a126,126,0,0,1,12.7,44.4,131,131,0,0,1-15.6,77.5c-7.5,13.8-17.6,25.8-29.3,36.5s-21.8,18.1-34.7,24.6c-6.5,3.3-13.2,6.2-20.4,7.8-.3-1.9-.6-3.8-1-5.6s-.7-2.5-1.1-3.8l2.5-.9c5-2,10.3-3.6,15-6.2,17.4-9.7,29.1-23.9,34.8-42.6a35.5,35.5,0,0,0,1.5-15.6l-.8,1.3a48.1,48.1,0,0,1-10.8,14.1c-2.7,2.5-3.6,2.6-7,1s-7.6-6.3-10.1-10.6a2.1,2.1,0,0,1,.5-1.9c2.7-2.9,5.4-5.7,8.2-8.5l9.6-10c-2.3-1.1-4.2-2.1-6.2-3-10.7-4.5-21.9-7.3-33.3-9.6-4.4-.9-8.9-1.5-13.3-2.3a39.3,39.3,0,0,0-3.9-.6l-10.7-.4h-11.6a18.4,18.4,0,0,1-2.5-.4,83.9,83.9,0,0,0,10.2-17.3h25Z"/><path class="o" d="M1213.2,349.2a83.9,83.9,0,0,1-10.2,17.2l-.8.3-1.7.2c-3.9.2-7.8.2-11.6.8-6.7,1-13.4,2.4-20.1,3.7a40.5,40.5,0,0,0-5,1.7l-24.6,7.5c-1.4.4-2.8.6-4.1,1.1l-14,5.5c-4.1,1.7-8.2,3.3-12.3,5.1s-9.9,4.5-14.8,6.8l-15.8,7.9c1.2,2.8,2.3,5.3,3.3,8,2.5,6.8,2,13.8.3,20.7a3,3,0,0,1-1.9,1.7,36.8,36.8,0,0,1-7,1.3c-2.9.2-5.9-.1-8.7-.2.2-8,.3-15.5-1.2-23.2l-3.8,2c-6.3,3.9-12.8,7.5-19,11.7s-14.7,10.6-21.9,15.9a25.9,25.9,0,0,0-2.9,2.9l-8.5-6.6-.4-.5c3.7-3.2,7.4-6.3,11-9.5l16.5-15c3.5-3.2,6.9-6.4,10.2-9.8,5.3-5.5,10.7-11,15.6-16.9s11.4-14.2,16.6-21.7c3.5-5,6.1-10.5,9-15.8a56.6,56.6,0,0,0,2.6-6.1,18.5,18.5,0,0,0,.5-2.1,17.7,17.7,0,0,1-12.9-1.3,29.1,29.1,0,0,1-12.1-11.3,46.2,46.2,0,0,1-3.4-5.8c-2.5-6-2.2-12.1-.1-18.1a57.4,57.4,0,0,1,8.1-14.7,122.1,122.1,0,0,1,15.7-17.6c5.1-4.7,10.3-9.4,15.5-14s13.4-11.4,19.8-17.5a98.6,98.6,0,0,0,10.8-12.4,105,105,0,0,0,8.5-13.5c1.7-3.1,2.5-6.7,3.6-10l.4-1.1c3.7,1.6,6.7,4.2,9.5,6.8s1.4,3.2.8,5a73,73,0,0,1-12.8,23c-4.8,5.8-9.9,11.3-15.1,16.8s-9.1,8.9-13.7,13.3-10.2,9.2-14.9,14.1a85.7,85.7,0,0,0-10.2,12c-3.1,4.7-3.6,10.1,2.4,15.1a23.8,23.8,0,0,0,10.5,5.6,19.6,19.6,0,0,0,5.2.3c8.8-.6,15.8-5,22.3-10.3a200.6,200.6,0,0,0,16.3-14.5c6.9-7,13.7-14.1,19.8-21.7,4.9-6,8.3-12.8,11.3-19.9a105.2,105.2,0,0,0,6.7-24.7,119.6,119.6,0,0,0,1.1-21.1,148.6,148.6,0,0,0-3.7-27.8c-.7-3.1-1.6-6.1-2.6-9.6l2.2,1.4,15.8,12.3a57.9,57.9,0,0,1,6,4.8c.8.8,1,2.4,1,3.7a141,141,0,0,1-3.3,35c-1.6,6.9-3.7,13.7-5.9,20.5a103.7,103.7,0,0,1-5,13.2c-3.1,6.5-6.4,12.8-9.9,19a142,142,0,0,1-7.9,12.4c-3,4.3-6.2,8.5-9.6,12.5s-8.6,9.8-13.2,14.4-11.4,10.5-17.1,15.8a61.5,61.5,0,0,0-15.8,22.3,37.1,37.1,0,0,0-2.5,18.6l3.1-1.5,20.8-8.5c1.9-.8,3.9-1.3,5.8-1.9.2-.1.3-.4.4-.7l2.9-.8,16.4-4.7,6.1-1.3c1.8-.4,3.6-1,5.4-1.4,5.7-1.1,11.5-2.5,17.3-3.1,8.1-.9,16.4-1.3,24.5-1.9Z"/><path class="p" d="M1139.3,380.7l24.6-7.5c5,5.8,11.2,7.6,18.8,5.6a40.2,40.2,0,0,0,14-7.1c1.9-1.5,3.7-3.2,5.5-4.9l.8-.3a18.4,18.4,0,0,0,2.5.4h11.6l10.7.4c1.3.1,2.6.4,3.9.6a74.3,74.3,0,0,1-14.3,16c-13,11-28.2,17.8-45,21.1-1.4.3-2.1.6-2.3,2.2-1,11.2-.6,22.2,3.7,32.8,3.3,8.3,8.6,15,16.7,19.5,10.9,6.1,22.8,6.8,34.9,5.6,5.2-.5,10.4-1.6,15.6-2.5.4,1.3.8,2.5,1.1,3.8s.7,3.7,1,5.6c-3.4.8-6.7,1.9-10.1,2.5a98.1,98.1,0,0,1-31.3.6,102.2,102.2,0,0,1-44.8-17.8l-1.4-.9h-.8l11.3,19.1a27.5,27.5,0,0,1-11.2,6.3,48.2,48.2,0,0,1-6,1.2,1.8,1.8,0,0,1-1.4-.5c-4.1-5.1-7.4-10.6-8.5-17.1a58.4,58.4,0,0,1-.3-8.5c-9.2,8.5-18.8,17.8-28.7,26.6a197.1,197.1,0,0,1-38.8,27.2,91.6,91.6,0,0,1-23.1,8.7l-8.1,1.8c1.7-3.2,3.4-6.3,5-9.6a35.4,35.4,0,0,0,1.4-3.6c3.5-1.2,7.1-2.2,10.5-3.6,11.4-4.6,22-10.4,31.1-18.7a142.4,142.4,0,0,0,26.8-33.4,186.2,186.2,0,0,0,21.9-57C1137.7,390.4,1138.4,385.5,1139.3,380.7Z"/><path class="q" d="M1159.8,356.8l-16.4,4.7-2.9.8a124.4,124.4,0,0,1,6.8-25,149.3,149.3,0,0,1,21-38.7,129.8,129.8,0,0,1,44-37.3l.8-.3,6.3,20.5c-7.4,3.9-14.7,7.4-21.5,11.5-11.5,6.9-21.6,15.4-29,26.6s-10,21-9.2,32.9C1159.7,353.9,1159.7,355.3,1159.8,356.8Z"/><path class="r" d="M1213.2,349.2h-.2c2.4-4.1,3.9-8.3,2.4-13s-7.2-8.1-12.5-7.4-9.1,2.9-12.9,5.8l-1.6,1.3-4.6-4.4-4.6-4.5c5.4-6.6,11.5-12,19.2-15.5a29.4,29.4,0,0,1,17.4-2.6c11.4,2,22.2,10.4,23.8,23.8a39.6,39.6,0,0,1-1.4,16.5h-25Z"/><path class="s" d="M1920.7,234.9V761.3H.7V449.2C731.3,278.2,883.2,505,1920.7,234.9Z"/><g class="t"><path class="u" d="M-145.2,490.5c75.9,13.1,299.5-39.2,449.7-51.5,39.9-3.3,85.4-6,113.7,3.8,13.1,4.6,20.4,11.3,31.9,16.5,38.9,17.5,112.6,13.8,174.5,7.4,145.7-15,287.9-37.8,432.9-54.6s296.4-27.6,437.7-17.7c61,4.2,121.1,12.3,184.7,8.7,61.3-3.4,118.1-17.3,176.4-27.5s126.4-16.8,177.3-5.7"/><path class="v" d="M-148.5,431.3c88.1-11.2,161.7,8,243.2,2.7S253.4,396.4,335,391.7c207.4-11.8,412.2,13.8,617.9-6.7,202.9-20.2,387.2-83.7,591.3-87.1,168.5-2.7,317.3,31.6,484,12.8"/><path class="u" d="M2036.3,419.9c-75.9-13.1-299.5,39.2-449.7,51.5-39.9,3.3-85.4,6-113.7-3.8-13.1-4.6-20.4-11.3-31.9-16.5-38.9-17.5-112.6-13.8-174.5-7.4-145.7,15-287.9,37.8-432.9,54.6s-296.4,27.6-437.7,17.7c-61-4.2-121.1-12.3-184.7-8.7C150,510.8,93.1,524.6,34.9,534.9s-126.4,16.8-177.3,5.7"/><path class="u" d="M2039.6,479.1c-88.1,11.2-161.7-8-243.2-2.7s-158.6,37.6-240.3,42.3c-207.4,11.8-412.2-13.8-617.9,6.7C735.3,545.6,551.1,609.1,347,612.4c-168.5,2.7-317.3-31.6-484-12.8"/><path class="u" d="M-130,764.1c75.9,13.1,299.5-39.2,449.7-51.5,39.9-3.3,85.4-6,113.7,3.8,13.1,4.6,20.4,11.3,31.9,16.5,38.9,17.5,112.6,13.8,174.5,7.4,145.7-15,287.9-37.8,432.9-54.6s296.4-27.6,437.7-17.7c61,4.2,121.1,12.3,184.7,8.7,61.3-3.4,118.1-17.3,176.4-27.5s126.4-16.8,177.3-5.7"/><path class="w" d="M-133.3,705c88.1-11.2,161.7,8,243.2,2.7S268.5,670,350.2,665.4c207.4-11.8,412.2,13.8,617.9-6.7,202.9-20.2,387.2-83.7,591.3-87.1,168.5-2.7,317.3,31.6,484,12.8"/><path class="u" d="M2051.5,693.6c-75.9-13.1-299.5,39.2-449.7,51.5-39.9,3.3-85.4,6-113.7-3.8-13.1-4.6-20.4-11.3-31.9-16.5-38.9-17.5-112.6-13.8-174.5-7.4-145.7,15-287.9,37.8-432.9,54.6s-296.4,27.6-437.7,17.7c-61-4.2-121.1-12.3-184.7-8.7-61.3,3.4-118.1,17.3-176.4,27.5s-126.4,16.8-177.3,5.7"/><path class="w" d="M2054.8,752.7c-88.1,11.2-161.7-8-243.2-2.7s-158.6,37.6-240.3,42.3c-207.4,11.8-412.2-13.8-617.9,6.7-202.9,20.2-387.2,83.7-591.3,87.1-168.5,2.7-317.3-31.6-484-12.8"/></g><path class="x" d="M1200,607.9c-1.9-10.9-7.6-21.4-15.2-29.6-35.3-38.1-101.4-43.4-150-40.9-76.3,3.8-153.9,45.7-184.2,115.9,83.1,73.3,213.3,53,306,11.5,17.6-7.9,36.2-18.8,42.2-37.2A40.8,40.8,0,0,0,1200,607.9Z"/><path class="x" d="M1589.6,652.5c.7-9.3-5.8-18.8-23.8-26.2-13.8-5.7-29.4-4.3-44.3-2.7l-140.1,14.3c-30.9,3.2-77.9,2-105.4,17.8s-20.8,43.7,12.2,55h0c15.5,5.3,32.4,4.1,48.6,2,71.8-9,140.9-5,212.2-24.7C1568.3,682.7,1588.5,667.8,1589.6,652.5Z"/><path d="M898.8,348.7c-32.2,21.9-79.6,18.1-105.1,47.5-4.4,5.1-7.9,10.9-13.1,15.1s-12.9,6.4-18.6,2.8c-2.5-22.8-1.6-46.2,6-67.9s22.1-41.3,42.2-52.2c18-9.7,38.9-11.9,58.8-16.7s40.6-13.5,50.9-31.1C940.7,278.7,930.7,327,898.8,348.7Z"/><path class="y" d="M1087.5,400.7c55.7,56.7,116.9,249.5,8.4,289.7-74.4,27.6-161.6,14.5-220.4-15.9-78.7-40.7-101-133.1-107.2-215.2-3.2-42.1,6.8-88.1,38.8-117.7,22.7-21,53.8-31.3,84.7-33.1C979.6,303.6,1027.2,339.3,1087.5,400.7Z"/><path class="z" d="M1052.2,333.1c-15.5-7.3-34.3-7.7-42.5,9.1-10.1,20.8-5.9,44.9,8.1,62.9,11.6,15,32.3,25.7,49.5,17.9,35.1-15.9,18.7-66.7-5.5-84.3A58.9,58.9,0,0,0,1052.2,333.1Z"/><path class="z" d="M908.2,457a21.5,21.5,0,0,0,7.7-2.8c9.5-5.8,12.1-19,9-29.7-7.7-26.2-39.5-49.8-67.2-43.8-24.4,5.4-47.4,31.8-46,57.6.4,7.6,4.9,15.5,12.3,17.4,4.4,1.1,9,0,13.5-.9a118.8,118.8,0,0,1,45.6-.3C891.3,456.1,900.2,458.4,908.2,457Z"/><path d="M923.8,397.8c-8.3-15-26-24.2-43-22.5-9.1,1-18.1,5-24.2,11.8s-9,16.7-6.8,25.6,7.8,14.7,14.8,19.1,15,6.9,23.1,8.8,18.3,3.5,26.5-.3,12.6-10.9,14.1-19S927.7,405,923.8,397.8Z"/><path d="M1070.8,381.8c14.4-9.2,12.9-30.4,3.4-43-19.1-25.1-52.2-3.5-47,24.2C1030.8,382.3,1054.4,392.3,1070.8,381.8Z"/><path d="M735.6,424.1c.1-7.3.7-14.8,3.5-21.6s8.2-12.8,15.3-14.7c34.7-9.2,38.4,48.5,40.7,69.5,3,28.6,12.9,63.8,28.8,88.3l-28.9,13.5s-19.6-11.1-22.2-14.9A204.8,204.8,0,0,1,735.6,424.1Z"/><path d="M778,374.8a123,123,0,0,0-3.9,15.5c-.9,5.1.5,17.4-1.9,21.4a115.9,115.9,0,0,1,56.9-47.3c15.9-6.1,33-8.6,49.3-13.4s32.7-12.4,42.9-26.1c7.3-9.8,13.8-30.8,4.6-41.7s-26.2-3.2-35.8.5c-28.7,11-64.6,21.4-85.5,44.7a127.3,127.3,0,0,0-24.2,39.5Q779.2,371.3,778,374.8Z"/><path class="aa" d="M762.1,397.5c-9.7-37.9,6.7-81.1,39.2-103,16.6-11.2,36.2-16.9,54.4-25.2s36.2-20.6,43.6-39.1"/><path d="M906.5,543.4c18.9-23.1,41.3-44.1,68.2-57.2s58.7-17.8,87.1-8.4a96.4,96.4,0,0,1,54.7,46.4c9.2,17.5,11.5,41.7-3,55.1-12.2,11.2-30.7,10.5-47.3,10.1-31.1-.7-63.7,2.8-89.9,19.7-10.9,7.1-20.3,16.2-31.3,23.2s-24.3,11.7-36.9,8.4c-18.8-4.9-29.3-26.6-27.3-45.9S894.2,558.4,906.5,543.4Z"/><g class="ab"><path class="z" d="M1029.2,521.6c-4.8,4.8-12.5,4.6-19.3,4a825.3,825.3,0,0,1-112.6-18.4c36-39.3,88.4-63.1,141.7-64.3a406.5,406.5,0,0,1-4.8,65.7C1033.4,513.3,1032.5,518.2,1029.2,521.6Z"/><path class="ac" d="M955.2,560c4-1.9,8.5-3.1,12.7-1.9s7.7,5.5,6.9,9.8-5.3,6.7-9.1,8.9c-7,4-13.6,9.2-17.2,16.4s-3.5,16.6,1.8,22.6c3.4,3.9,8.5,5.9,12.5,9.2s8,9.3,8.1,15.3-3.1,12.1-8.5,14.5-13.6.4-18.5-4.2-7.7-11-9.7-17.3c-4.3-13.2-6.2-27.5-3.1-41S942.7,566,955.2,560Z"/></g><path class="ac" d="M1002.7,445.9c-17.8,1-35.2-9-45.7-23.4s-14.9-32.6-15.1-50.5c-.1-6.3,1.3-14.1,7.4-16.1s11.4,3,14.8,7.9c5.9,8.5,9.6,18.3,14.6,27.4s11.8,17.8,21.4,21.7c8,3.2,18.5,3.7,22.4,11.4,2.6,5.2.5,11.8-3.8,15.7S1008.5,445.6,1002.7,445.9Z"/><path class="ad" d="M835.2,490.5a112.4,112.4,0,0,0,68.6-17.3"/><path class="ad" d="M1030.7,420.5c11.3,16.1,35,21.9,52.5,12.9"/><path class="y" d="M764.5,530.1c-10.3,0-21,5-25.7,14.1s-3,18.3.1,27.1a76,76,0,0,0,49.7,47.3c7.9,2.3,17.4,2.9,23.2-2.9s5.5-13.9,4.7-21.4c-1.6-15-5.4-30.2-14.1-42.6S779.7,530,764.5,530.1Z"/><path class="y" d="M1421.6,627.8q-7.3,8.7-14.9,17.2c-33.1,36.7-142.9,106.8-165.1,19.2-7.3-28.7,11.4-57.1,30.9-79.4,31.8-36.2,74.2-70.1,122.3-67.1-7.4-27.2,1.5-56.6,16.1-80.7s34.6-44.4,52.2-66.5a394.4,394.4,0,0,0,59.6-104.3c4.1-10.7,9.4-23.2,20.6-25.9,37.6-8.8,17.2,71.9,14.3,89.5a626.9,626.9,0,0,1-136,297.9Z"/><path class="y" d="M1516.8,270.5c-11.4-10.3-20.3-23.7-23.3-38.7s.4-31.7,10.7-43,27.7-16.3,41.9-10.4c5.9,2.5,11.7,8.7,9.5,14.7s-12.6,6.7-19.9,4.9-17.1-2.5-20.2,4.4,1.9,11.7,7.3,14.2,11.5,2.3,17.3,3.3c14.9,2.5,28.7,13.5,32,28.2s-5.8,31.9-20.6,35.1C1538.9,286,1526.3,279.1,1516.8,270.5Z"/><path class="y" d="M1550.2,148.5c16.6-.5,32.4,11.9,37,27.8s-1.5,34.1-14,45-30.7,14.4-46.8,10.3c14.4-5.1,29.1-12.6,36.7-25.9s4.4-33.5-9.7-39.4c-5.9-2.5-14.5-4.4-14-10.7C1539.6,150.9,1545.4,148.6,1550.2,148.5Z"/><path class="y" d="M1615.2,215.6c1.7,8.7,3,18.7-2.7,25.4-4,4.7-10.4,6.5-16.5,7.9-14.7,3.6-29.6,7.3-44.8,6.4a13.4,13.4,0,0,1-6.7-1.7c-1.9-1.3-3.2-3.8-2.4-6s4.3-3.2,7.1-3.5a179.8,179.8,0,0,0,35.5-8c3.4-1.2,7.1-2.6,9.2-5.6,3.2-4.6,1.5-10.9.1-16.3s-1.7-12.4,2.9-15.5,10-.7,13.1,3.1S1614.3,210.7,1615.2,215.6Z"/><path class="y" d="M1608.1,261.7c1.1-2.6,2.3-5.3,4.6-6.9s5.9-1.7,7.5.6.7,4.8-.1,7.1c-3.1,9.4-7.1,19.7-16.1,23.9-5.4,2.6-11.8,2.3-17.6,1.1-8-1.7-43.9-19.9-19.9-22C1580.9,264.3,1600.4,280.3,1608.1,261.7Z"/><path class="y" d="M1565.7,210.9c-.5-2,0-4.6-1.3-6.2,0,0-7.8,10-14,13.1a24.2,24.2,0,0,1-10.4,2.1c-8.2.2-35.3-10.8-20-22.6,2.2-1.7,6.1-4.5,1.4-7.2s-14.1,7.2-16.4,10.4a30.1,30.1,0,0,0-5.3,21.4c.8,5,3.6,9.6,5.1,14.4,2.2,7.7,4.7,14.8,9.3,21.5,6.2,8.9,15.8,17.5,25.9,21.8,12,5.1,26,3,38.5,6.2,3.3.8,6.5,2,9.9,2.5s7,.3,9.9-1.4,4.9-5.2,4.2-8.6a9.1,9.1,0,0,0-4.3-5.4c-3-1.8-6.5-2.3-9.6-3.6C1563.8,258.8,1566.6,214.3,1565.7,210.9Z"/><path class="ae" d="M1525.1,214c17.5,9.9,26.6,25.9,25.3,46.8"/><path class="a" d="M790.5,641.6c-6.6,15.3,4.8,35.3,21.3,37.4,4.5.6,9.5.1,13.2,2.9,5.7,4.3,4.3,13.2,7.2,19.7,5,11.1,20.1,12.2,32.2,11.7s27.3.9,31.9,12.2"/><path class="af" d="M769.8,638.2c1.8,14,14.8,25.8,28.9,26.2,3.6.1,7.4-.4,10.6,1.3s5.1,5.5,7,8.8a49,49,0,0,0,42.1,23.8"/><path class="af" d="M755.7,665.4a40.3,40.3,0,0,0,33.9,26.5"/><path class="af" d="M1167.2,541.4c16.6,3.3,29.9,18.7,30.9,35.6.2,2.9,0,5.8,1.1,8.5,1.8,4.5,6.6,6.9,10.5,9.8a33.2,33.2,0,0,1,12.5,30.3"/><path class="af" d="M1219,556.6l8.9,6.2"/><path class="af" d="M1191.9,716a44.6,44.6,0,0,1-4-33"/><path class="af" d="M1217.5,678.3c2.9,25.4,24.8,47.3,50.2,50.3"/></svg>