<svg xmlns="http://www.w3.org/2000/svg" xmlns:xlink="http://www.w3.org/1999/xlink" width="1910" height="300" viewBox="5 0 1910 300"><defs><style>.a,.e,.g{fill:none;}.b{clip-path:url(#a);}.c{clip-path:url(#b);}.d{opacity:0.05;}.e{stroke:#000;stroke-width:1.4px;}.e,.g{stroke-miterlimit:10;}.f{fill:url(#c);}.g{stroke:#ffd300;}</style><clipPath id="a"><rect class="a" width="1920" height="300"/></clipPath><clipPath id="b"><path class="a" d="M960,202.8c356,0,686.5,29.3,960.4,79.3V-1.7H0V282C273.8,232,604.2,202.8,960,202.8Z"/></clipPath><linearGradient id="c" x1="959.08" y1="-130.93" x2="959.08" y2="373.21" gradientUnits="userSpaceOnUse"><stop offset="0" stop-color="#ffd300"/><stop offset="1" stop-color="#ef4e23"/></linearGradient></defs><title>header</title><g class="b"><g class="c"><g class="d"><path class="e" d="M-.4,89.2C65.7,109.6,264.7,62.6,397.3,58c35.2-1.2,75.4-1.5,99.8,11.9,11.3,6.2,17.4,14.5,27.2,21.4,33.3,23.1,98.3,23.5,153,20,128.8-8.2,254.9-25.6,383.2-35.9S1322.4,62.3,1446,83c53.4,8.9,105.8,22.3,161.9,22.2,54-.1,104.7-12.6,156.4-20.8s111.9-11.5,156.1,4.8"/><path class="e" d="M-.4,19.6c77.9-7.4,141.7,19.9,213.6,19S354.5,4.7,426.5,4.6c182.9-.4,361.6,43,543.4,32.3,179.3-10.6,344.4-73.1,524-63.7,148.2,7.7,277.4,57.7,424.8,46.4"/><path class="e" d="M1920.4,148.2c-66.1-20.3-265.1,26.6-397.7,31.2-35.2,1.2-75.4,1.5-99.8-11.9-11.3-6.2-17.4-14.5-27.2-21.4-33.3-23.1-98.3-23.5-153-20-128.8,8.2-254.9,25.6-383.2,35.9S597.6,175.1,474,154.5c-53.4-8.9-105.8-22.3-161.9-22.2-54,.1-104.7,12.6-156.4,20.8S43.8,164.6-.4,148.2"/><path class="e" d="M1920.4,217.9c-77.9,7.4-141.7-19.9-213.6-19s-141.2,33.8-213.2,34c-182.9.4-361.6-43-543.4-32.3-179.3,10.6-344.4,73.1-524,63.7C278,256.5,148.9,206.6,1.5,217.9"/></g><rect class="f" x="-0.9" y="-138.5" width="1920" height="517.48"/><path class="g" d="M1920.9-42.2c-77.9,7.4-141.7-19.9-213.6-19s-141.2,33.8-213.2,34c-182.9.4-361.6-43-543.4-32.3C771.4-48.9,606.3,13.6,426.7,4.2,278.5-3.5,149.4-53.5,2-42.2"/><path class="g" d="M.1,151.2c66.1,20.3,265.1-26.6,397.7-31.2,35.2-1.2,75.4-1.5,99.8,11.9,11.3,6.2,17.4,14.5,27.2,21.4,33.3,23.1,98.3,23.5,153,20,128.8-8.2,254.9-25.6,383.2-35.9s261.9-13.1,385.5,7.6c53.4,8.9,105.8,22.3,161.9,22.2,54-.1,104.7-12.6,156.4-20.8s111.9-11.5,156.1,4.8"/><path class="g" d="M.1,81.6c77.9-7.4,141.7,19.9,213.6,19S355,66.8,427,66.6c182.9-.4,361.6,43,543.4,32.3,179.3-10.6,344.4-73.1,524-63.7,148.2,7.7,277.4,57.7,424.8,46.4"/><path class="g" d="M1920.9,210.3c-66.1-20.3-265.1,26.6-397.7,31.2-35.2,1.2-75.4,1.5-99.8-11.9-11.3-6.2-17.4-14.5-27.2-21.4-33.3-23.1-98.3-23.5-153-20-128.8,8.2-254.9,25.6-383.2,35.9s-261.9,13.1-385.5-7.6c-53.4-8.9-105.8-22.3-161.9-22.2-54,.1-104.7,12.6-156.4,20.8S44.3,226.6.1,210.3"/><path class="g" d="M1920.9,279.9c-77.9,7.4-141.7-19.9-213.6-19s-141.2,33.8-213.2,34c-182.9.4-361.6-43-543.4-32.3-179.3,10.6-344.4,73.1-524,63.7C278.5,318.6,149.4,268.6,2,279.9"/></g></g></svg>