<svg xmlns="http://www.w3.org/2000/svg" xmlns:xlink="http://www.w3.org/1999/xlink" width="219.64" height="101.66" viewBox="0 0 219.64 101.66"><defs><style>.a,.c,.u{fill:none;}.b{fill:#52382b;}.c,.u{stroke:#52382b;stroke-miterlimit:10;}.c{stroke-width:2.38px;}.d{fill:url(#a);}.e{fill:url(#b);}.f{fill:url(#c);}.g{fill:url(#d);}.h{fill:url(#e);}.i{fill:url(#f);}.j{fill:url(#g);}.k{fill:url(#h);}.l{fill:url(#i);}.m{fill:url(#j);}.n{fill:url(#k);}.o{fill:url(#l);}.p{fill:url(#m);}.q{fill:url(#n);}.r{fill:url(#o);}.s{clip-path:url(#p);}.t{fill:#ff6f00;}.u{stroke-width:0.79px;}.v{clip-path:url(#q);}</style><linearGradient id="a" x1="588.35" y1="500.91" x2="453.31" y2="539.72" gradientUnits="userSpaceOnUse"><stop offset="0" stop-color="#ffb900"/><stop offset="1" stop-color="#ff7500"/></linearGradient><linearGradient id="b" x1="578.12" y1="465.3" x2="443.07" y2="504.12" xlink:href="#a"/><linearGradient id="c" x1="578.18" y1="465.53" x2="443.14" y2="504.34" xlink:href="#a"/><linearGradient id="d" x1="578.11" y1="465.28" x2="443.07" y2="504.1" xlink:href="#a"/><linearGradient id="e" x1="581.41" y1="476.75" x2="446.36" y2="515.56" xlink:href="#a"/><linearGradient id="f" x1="580.1" y1="472.2" x2="445.05" y2="511.01" xlink:href="#a"/><linearGradient id="g" x1="578.11" y1="465.27" x2="443.06" y2="504.09" xlink:href="#a"/><linearGradient id="h" x1="583.16" y1="482.84" x2="448.11" y2="521.66" xlink:href="#a"/><linearGradient id="i" x1="587.9" y1="499.33" x2="452.85" y2="538.15" xlink:href="#a"/><linearGradient id="j" x1="578.17" y1="465.48" x2="443.13" y2="504.3" xlink:href="#a"/><linearGradient id="k" x1="579.08" y1="468.65" x2="444.04" y2="507.46" xlink:href="#a"/><linearGradient id="l" x1="578.44" y1="466.44" x2="443.4" y2="505.26" xlink:href="#a"/><linearGradient id="m" x1="588.28" y1="500.66" x2="453.24" y2="539.47" xlink:href="#a"/><linearGradient id="n" x1="588.94" y1="502.97" x2="453.9" y2="541.78" xlink:href="#a"/><linearGradient id="o" x1="589.82" y1="506.01" x2="454.77" y2="544.83" xlink:href="#a"/><clipPath id="p" transform="translate(-402.08 -461.16)"><path class="a" d="M465.62,483c4.87-1.39,2.22,6.16,1.78,8.59a57.78,57.78,0,0,0-1.23,11.21c.08,1.75,1.9-.65,3.52-1.91s2.79-1.26,2.43,1.83c-.3,2.58.79,7-1.42,7.81-3.43,1.26-6.3,2.07-9.15,3s-3.27-1-3.27-3.36a56,56,0,0,1,.51-6.13,111.17,111.17,0,0,0,.26-15.71C458.8,483.73,461.75,484.1,465.62,483Zm-30.8,6.42c-4.34-1-10.09.18-13.35,3-2.63,2.24-3.68,5.84-4.19,9-1.08,6.67-1.4,14.12,1.41,21.64,2.34,6.27,12.86,5.68,16.93,1.68,2.12-2.08,1.53-6.13,1.58-8.81,0-2.18-1-5.07-3.58-2.2-1.49,1.68-4.95,6.86-6.55,2.21-1-2.87-.86-5.46-.76-8.35.09-2.68,0-4.65,1.1-7.1,2-4.56,3.51-.08,5.25,1,2.36,1.5,3.34-3.93,3.63-4.94.6-2.13,2.31-6.23-1.45-7.09Zm42.85,19.3a17.83,17.83,0,0,0,4.32-1.49c1.66-.95.63-7.12.72-9.39.16-3.95,1-7.88,1-11.8,0-1.62,1.72-6.6-.5-7.42-1.41-.52-5.42.76-6.52,1.64-1.94,1.56-.93,7-1.17,9.21-.46,4.26-.39,8.51-.56,12.8-.1,2.52-1.66,7.78,2.68,6.45ZM579,491.1l.47,0c.93,0,1.86.17,2.8.15a3.44,3.44,0,0,0,1.39-.24c1-.49,1-2.13,1-3.08.05-1.49-.06-3-.14-4.46,0-.74-.1-1.49-.07-2.23a104.3,104.3,0,0,1,1-11c.62-4.37,1.81-7.34-.76-7.54-1.62-.13-5.12-.65-6.11.11-1.36,1-.91,6.26-1.15,8.4-.45,4.15-.38,8.42-.54,12.67-.08,2-1,3.93-.27,5.93A2.13,2.13,0,0,0,579,491.1Zm-8.16-28.46c-1.48.13-2.71.07-4.19.15-2.75.15-2.72,1.12-3.24,3.72-.94,4.75-2.21,5.12-2.8,2.21-.22-1.08-.16-4.58-1.39-5.07-2.13-.85-5.57.16-7.87.32-1.89.13-2.65,1.22-2.67,5.43,0,4.85-.19,13.06-.42,17.83-.19,3.92-1.28,6.54,3.12,5.78,1.29-.22,4.8.2,5.47-1.38.52-1.23-.28-4.2-.4-5.55-.26-3-.73-10,.53-10.42s1.31,4.92,1.45,5.72c.23,1.26.08,4.54,1.64,5,2.24.66,2.28-1.79,2.66-3.24.26-1,1-7.89,2.9-8,1.19-.06-.17,9.23-.32,10.23-.49,3.17-1,6.43,1.46,6.18,2.06-.21,3.45.09,5.43-.52,1.47-.46,1-3.46,1.09-4.56.33-5.44.11-11,.7-16.49.55-5,.94-7.71-3.13-7.37ZM501.6,482.32c1.67.27,1.8-1.89,1.82-3a22.24,22.24,0,0,0-.17-2.3c-.09-1,.11-2.25-.82-3.07a2.33,2.33,0,0,0-2.2-.29c-2.5.48-5,1.52-7.61,2-1.23.22-3.59.2-4.37,1.32-.67,1-.62,3-.53,4.12a24.92,24.92,0,0,1-.08,3.7c-.41,6-1.33,10.85-1.35,15.7,0,1.47-1.33,5.88,1.68,5.29,1.39-.27,4.21-1.29,5.62-1.74,3.43-1.1-2.83-10,3.33-11.13,2.41-.44,3.31-.82,3.62-3.24.13-1,.73-3.4-.15-4-1.42-.93-2.83.73-4.46.79-1.06,0-.86-3-.5-4.66C496.15,478.54,499.51,482,501.6,482.32Zm104.84,9.76c-.46,1.75-3.74.68-5.11.54-.95-.1-1.91-.08-2.46-.94-.81-1.26.08-3.07.33-4.37.34-1.79,2-4.21-.53-5.14-2-.73-3.16-.54-3.23,1.94s.44,3.79,0,6.6c-.29,1.76-5.24.5-6.52.51-3.51,0-.34-10.89,0-13.72.25-1.81.75-5.33,1.1-7.1a15.15,15.15,0,0,1,1-4.67,4.92,4.92,0,0,1,1.51-2,5.53,5.53,0,0,1,3.68-.55,50.19,50.19,0,0,1,5.63.69c5.32,1.27,5,6.81,5.44,11.34h0C607.75,480.38,607.73,487.19,606.45,492.08ZM600.38,474c0-2.37-1.23-7.75-2.47-3.66-1.28,4.25-2,5.74-.89,6.59s3,.81,3.3-.75A7.65,7.65,0,0,0,600.38,474ZM456.09,506.39c.23,7.52-4,12.83-11.79,12-6.27-.71-6.05-13-5.33-18.21.47-3.37.38-7.68,3.13-10.1,2.33-2,5.95-2.71,9-2.3,6.67.91,4.88,13.7,5,18.65S456.05,505,456.09,506.39Zm-8.24-11.61c-1.09.07-1.58,1.61-1.69,2.27-.58,3.6-.33,7.43-.33,11.07,0,2.74,2,4.7,2.63,1.11.55-3.2.27-6.75.37-10,0-1.39,0,.37,0,0C448.92,498.39,449.18,494.69,447.85,494.78Zm89.37-3.89a27.16,27.16,0,0,0-.77-3.87c-.83-3.4-2.22-1.85-2.49.09-.25,1.76.19,3.64.11,5.41a5.08,5.08,0,0,1-.54,2.63c-.66.91-2.12.95-3.12,1.17s-1.95.24-2.92.41c-2.28.4-1.26-3.41-1.24-5,0-3.25.41-6.52.74-9.83a37.48,37.48,0,0,0,.25-7.32c-.17-1.79-1.15-5.51.84-6.57,2.29-1.23,3.53-.86,6-1.38,3.15-.66,5.68-1.79,8.5.37,3.69,2.83,2.85,12.14-.85,14.82-2.12,1.55,2.64,1,3.84,9.47,1.12,3.34-2.19,2.9-3.88,3.17-1,.17-2.71.71-3.61-.25a2.62,2.62,0,0,1-.58-1.09A9.94,9.94,0,0,1,537.22,490.89Zm-1.7-12c3.24-1.45,2.12-9.2-.68-6.67-.71.64-.49,3.15-.59,4.08-.19,1.84-.37,3.32,1.27,2.59Zm-11.71,9.51c0,7.37-4.82,12.42-13.28,11.27-6.82-.92-6.17-13-5.21-18,.63-3.29.67-7.51,3.76-9.77,2.61-1.92,6.59-2.43,9.86-1.92,7.25,1.13,4.87,13.59,4.87,18.44S523.81,487,523.81,488.41Zm-8.61-11.66c-1.2,0-1.78,1.52-1.92,2.16-.76,3.51-.61,7.26-.73,10.83-.09,2.68,2,4.67,2.84,1.18.7-3.11.52-6.6.74-9.78.09-1.36-.05.36,0,0C516.24,480.32,516.65,476.71,515.2,476.74Z"/></clipPath><clipPath id="q" transform="translate(-402.08 -461.16)"><path class="a" d="M477,520.53c0,1.27-.29,2.54-.38,3.81a18.2,18.2,0,0,1-.44,3.21,2.16,2.16,0,0,1-2.38,1.69c-.9-.22-1.49-1.19-2-1.82-.87-1.16-1.84-3.2-3.73-2.39-3,1.29-3.36,6.7-3.56,9-.23,2.61-.88,7.44.53,9.77a3,3,0,0,0,2.33,1.48c2.45.09,2.93-4.43,2.31-6.24-.42-1.22-2.77-4.72-.52-5.67,2.6-1.1,6.45-2.16,7.76-.26.58.84,1,2.54.66,5.17-.12.93,0,1.57-.2,2.5a10.42,10.42,0,0,0-.25,1.89c-.21,2.28.17,4.34-1,6.48a10.07,10.07,0,0,1-5.12,4.48,15.19,15.19,0,0,1-8.71.77,8.49,8.49,0,0,1-5.62-4.55,21.1,21.1,0,0,1-1.49-8.35c.72-18.58,3.46-22.08,8.93-23.83,1.3-.42,1.27-.49,2.8-.93a19.25,19.25,0,0,1,5.86-.76,6.19,6.19,0,0,1,3.57,1C477.36,517.91,477,519.29,477,520.53Zm22.59,18.25c-.4,1.92-4,2.48-5.39,2.8-1,.22-1.64.56-2.23-.12-.87-1-.06-3.12.13-4.52.27-1.94,1.54-5-1-5.07-2-.07-3.22.53-3.16,3.09s1.18,3.7.85,6.68c-.2,1.85-5.21,2.52-6.46,2.67-3.1,0-1.5-10.86-1.28-13.89.14-2,.43-5.8.68-7.78a19.35,19.35,0,0,1,.73-5.3,7.86,7.86,0,0,1,1.43-2.65,7.14,7.14,0,0,1,3.76-1.94,52.49,52.49,0,0,1,5.87-1.32c5.69-.6,5.44,4.79,6.1,10.18.33,2.65-.07-.27,0,.27C500.22,527.13,500.71,533.37,499.58,538.78Zm-7.18-16c-.16-2.49-1.64-7.81-2.71-3s-1.77,6.75-.58,7.24a2.52,2.52,0,0,0,3.32-1.95A8.29,8.29,0,0,0,492.4,522.74Zm33.87-19.1c-1.56.36-2.86.5-4.42.81-2.85.57-2.8,1.52-3.26,4.19-.84,4.92-2.16,6-2.85,3.16-.25-1.05-.27-5.07-1.54-5.37-2.18-.51-5.61,1-7.9,1.46-1.87.4-2.61,2.1-2.62,6.22,0,4.82-.17,13.22-.41,18.21-.2,4.18-1.31,7.09,3.25,5.86,1.35-.36,5.07-.24,5.75-2,.53-1.39-.37-4.5-.52-5.93-.32-3.18-.92-10.34.38-10.94s1.45,4.93,1.62,5.74c.26,1.3.18,4.79,1.85,5.12,2.42.47,2.39-2.17,2.75-3.75.25-1.1.8-8.39,2.84-8.74,1.27-.22.14,9.76,0,10.84-.42,3.49-.84,7.11,1.84,6.59,2.28-.44,3.86-.25,6.06-1.14,1.64-.67,1-3.94,1-5.17.08-5.94-.47-12.41-.1-18.17.33-5.19.62-8-3.73-7Zm22.2,16.42c-2.22,1.1-5.61,4.66-6.69,2.38-.51-2.51-.68-3.67,2.6-4.1,2.55-.35,3.48-.68,3.71-3.05.09-1,.62-3.05-.34-3.65-1.56-1-3,.61-4.71.61-1.12,0-1-2.22-.74-3.81.61-3.19,4.33.33,6.58.74,1.79.33,1.83-1.79,1.8-2.93,0-.78-.17-1.78-.28-2.54-.14-1,0-2.22-1-3.06a2.72,2.72,0,0,0-2.35-.36c-2.64.37-5.28,1.31-8,1.67-1.3.17-3.81.06-4.59,1.14-.67.92-.53,3.24-.39,4.32a22.76,22.76,0,0,1,.08,3.65c-.09,2.91-.34,5.8-.55,8.7a32.82,32.82,0,0,0-.2,3.85c.09,1.89-.33,3.94,0,5.8a3.21,3.21,0,0,0,1.15,2.43c1.74,1.12,4.21-.11,6-.34,2.26-.28,4.55-.32,6.8-.72a3.59,3.59,0,0,0,2.42-1.13c1-1.16.71-2.29.77-3.34,0-.79.13-3.18.08-3.95C550.56,521.22,550.32,519.14,548.47,520.05Zm20.66-2.85c-.9-2.84-3-4.15-3.87-5.42a4.5,4.5,0,0,1-1.21-2.74c-.12-1-.26-2.41.82-3s1.79.65,2.42,1.33,2,1.31,2.82.75.59-2.59.62-3.44a22.28,22.28,0,0,0-.13-2.32c-.08-1.05.16-2.25-.78-3.22a2.68,2.68,0,0,0-2.29-.65c-2.86.08-9.6-.15-11.54,2.18-2.11,2.54-2.12,3.72-1.87,6.88a12.92,12.92,0,0,0,2.67,7.2c.53.67,1.14,1.28,1.64,2,.66.94,1.33,2.76.7,3.86s-1.56.76-2.35.08c-.45-.38-.71-1-1.15-1.34-1.45-1.22-2.44-.57-2.51,1.15a30.76,30.76,0,0,0,.3,6,5.11,5.11,0,0,0,1,2.6c.9,1.05,2,.72,3.16.51,2.18-.39,4.4-.45,6.6-.67,2.36-.24,4.94-1.77,5.61-4.08S569.89,519.62,569.13,517.2Z"/></clipPath></defs><title>loga-coliformia</title><path class="b" d="M615.38,483.61l0,.35Z" transform="translate(-402.08 -461.16)"/><path class="b" d="M615.55,485.54Z" transform="translate(-402.08 -461.16)"/><path class="b" d="M615.55,485.47v0Z" transform="translate(-402.08 -461.16)"/><path class="b" d="M615.42,484l0-.21Z" transform="translate(-402.08 -461.16)"/><path class="b" d="M615.5,485l0,.52Z" transform="translate(-402.08 -461.16)"/><path class="b" d="M615.36,483.34h0v.13l0,.25,0-.17v.07l0-.28v0Z" transform="translate(-402.08 -461.16)"/><path class="b" d="M615.36,483.3c-.29-3.33-.1-7.46-2.77-10-.72-.78-1.27-1.46-2-2.26-1.62-1.83-2.9-3.73-4.47-5.26-3.91-3.82-13.74-4.63-15.7,1.9l-.21-.18c-1-1.13-2.48-4-3.63-4.87-1.07-1.36-2,.58-3.64.42-4.14-.38-5.24-.1-5.39,4.18l-.31-.24c-1.69-1.88-2.46-5-4.58-5h.17a24.68,24.68,0,0,0-6.89,2.3,4.72,4.72,0,0,0-2.74,3.12,5.16,5.16,0,0,0-.49-.35c-.95-1.16-1.89-3.43-2.95-3.85-2.13-.85-5.58,1.46-7.65,2.44-2.38,1.13-3.56,4.86-3.5,7.2l-.85-.78c-1.31-1.57-2.69-3.86-4.1-5.16-3.23-3.37-8.15.62-12.11,1.38-5.26,1-4.26,4.71-4.22,8.58l-.62-.57c-1.19-1.41-2.52-3.64-3.81-4.88-5-4.76-15.43-1-16.9,6.13-.91-.82-1.67-2.84-2.59-3.64-1.9-2.16-4.46.56-7,1.31a36.76,36.76,0,0,0-7,2.57c-2,1.09-1.64,3.3-1.68,5.16l-.33-.29c-1-1.15-1.89-3.14-3.07-4.1-1.5-1.81-6.16,1.38-7.65,2.57-2.16,1.74,1,6.15.31,8.57s-7.63-6.21-8.36-6.82c-1.52-1.85-4.7,1.12-7.54,2-2,.61-2,6.64-1.92,9.65l-.57-.52c-1.14-1.37-2.17-3.68-3.42-4.86-4.31-4.56-12.83-1.45-15.27,4.59a3.22,3.22,0,0,1-.49-.38c-1-1.32-1.27-2.78-2.67-3.64-1.22-.74-3.81-.32-5.22-.35a15.69,15.69,0,0,0-9.24,2.42c-4.38,3-4.85,8.86-5.33,13.73-.75,7.65-2,16.51,4,22,.54.54,1.08,1.06,1.63,1.54a15.57,15.57,0,0,0,1.48,1.57c3.77,3.78,8.77,6.18,14.53,4.78a10.84,10.84,0,0,0,5.06-2.6c1.75-1.72,2.24-4.08,4.6-5.25s4.93-.81,7.4-1.13a5.39,5.39,0,0,0,1.42-.42c-.16.45-.27.78-.3.91a55.68,55.68,0,0,0-1,8.76c-.35,4.76-2.22,10.92.49,15.2a23.49,23.49,0,0,0,4,4.61c1.4,1.64,4.08,3,5.55,4.45,3.57,3.71,10,3.65,14.37,1.32,1.82-1,3.86-2.78,4.37-4.87.62-2.53.83-4.79,4.14-4.13,2.69.54,5-.36,7.51-1.13s5.43-1.19,8.11-1.89,4.67-2.07,7.39-2.49c3.41-.53,6.73-1.29,10.09-2.09a110.22,110.22,0,0,1,12.9-1.93c4.77-.56,9.18-2.52,13.91-3.11,5-.61,10-1,15-1.64,3.93-.47,9.82.1,12.69-3.2s1-8.73-.49-12.06c-1-2.26-.47-3.52,1.13-5.23,1.24-1.33,1.26-2.91,1.31-4.62.09-2.94-.28-5.17-2.43-7.05-.58-.64-1.23-1.22-1.84-1.85-4.82-5,12.54-4.75,15.05-4.83a61.86,61.86,0,0,1,14.12,1,53.78,53.78,0,0,0,7.56,1.41c3.71.23,4-1.54,4.48-4.94A60.36,60.36,0,0,0,615.36,483.3Zm0,0Z" transform="translate(-402.08 -461.16)"/><path class="b" d="M615.37,483.46v0Z" transform="translate(-402.08 -461.16)"/><path class="b" d="M615.4,483.78v0Z" transform="translate(-402.08 -461.16)"/><path class="b" d="M615.42,484l.08,1-.05-.62h0v0l0-.2v.1l0-.25v0Z" transform="translate(-402.08 -461.16)"/><path class="c" d="M476.38,517a6.19,6.19,0,0,0-3.57-1,19.25,19.25,0,0,0-5.86.76c-1.53.44-1.5.52-2.8.93-5.47,1.75-8.21,5.25-8.93,23.83a21.1,21.1,0,0,0,1.49,8.35,8.49,8.49,0,0,0,5.62,4.55,15.19,15.19,0,0,0,8.71-.77,10.07,10.07,0,0,0,5.12-4.48c1.16-2.14.78-4.21,1-6.48a10.42,10.42,0,0,1,.25-1.89c.18-.93.09-1.57.2-2.5.33-2.63-.08-4.33-.66-5.17-1.32-1.9-5.17-.84-7.76.26-2.25,1,.09,4.46.52,5.67.62,1.8.14,6.32-2.31,6.24a3,3,0,0,1-2.33-1.48c-1.41-2.33-.76-7.16-.53-9.77.2-2.29.55-7.7,3.56-9,1.89-.81,2.86,1.23,3.73,2.39.47.63,1.06,1.6,2,1.82a2.16,2.16,0,0,0,2.38-1.69,18.2,18.2,0,0,0,.44-3.21c.09-1.27.33-2.54.38-3.81S477.36,517.91,476.38,517Z" transform="translate(-402.08 -461.16)"/><path class="c" d="M459,488.38a111.17,111.17,0,0,1-.26,15.71,56,56,0,0,0-.51,6.13c0,2.41.55,4.3,3.27,3.36s5.72-1.79,9.15-3c2.21-.81,1.12-5.23,1.42-7.81.36-3.09-.95-3-2.43-1.83s-3.44,3.65-3.52,1.91a57.78,57.78,0,0,1,1.23-11.21c.44-2.44,3.1-10-1.78-8.59C461.75,484.1,458.8,483.73,459,488.38Z" transform="translate(-402.08 -461.16)"/><path class="c" d="M434.82,489.42c-4.34-1-10.09.18-13.35,3-2.63,2.24-3.68,5.84-4.19,9-1.08,6.67-1.4,14.12,1.41,21.64,2.34,6.27,12.86,5.68,16.93,1.68,2.12-2.08,1.53-6.13,1.58-8.81,0-2.18-1-5.07-3.58-2.2-1.49,1.68-4.95,6.86-6.55,2.21-1-2.87-.86-5.46-.76-8.35.09-2.68,0-4.65,1.1-7.1,2-4.56,3.51-.08,5.25,1,2.36,1.5,3.34-3.93,3.63-4.94.6-2.13,2.31-6.23-1.45-7.09Z" transform="translate(-402.08 -461.16)"/><path class="c" d="M477.67,508.73a17.83,17.83,0,0,0,4.32-1.49c1.66-.95.63-7.12.72-9.39.16-3.95,1-7.88,1-11.8,0-1.62,1.72-6.6-.5-7.42-1.41-.52-5.42.76-6.52,1.64-1.94,1.56-.93,7-1.17,9.21-.46,4.26-.39,8.51-.56,12.8-.1,2.52-1.66,7.78,2.68,6.45Z" transform="translate(-402.08 -461.16)"/><path class="c" d="M579,491.1l.47,0c.93,0,1.86.17,2.8.15a3.44,3.44,0,0,0,1.39-.24c1-.49,1-2.13,1-3.08.05-1.49-.06-3-.14-4.46,0-.74-.1-1.49-.07-2.23a104.3,104.3,0,0,1,1-11c.62-4.37,1.81-7.34-.76-7.54-1.62-.13-5.12-.65-6.11.11-1.36,1-.91,6.26-1.15,8.4-.45,4.15-.38,8.42-.54,12.67-.08,2-1,3.93-.27,5.93A2.13,2.13,0,0,0,579,491.1Z" transform="translate(-402.08 -461.16)"/><path class="c" d="M570.82,462.64c-1.48.13-2.71.07-4.19.15-2.75.15-2.72,1.12-3.24,3.72-.94,4.75-2.21,5.12-2.8,2.21-.22-1.08-.16-4.58-1.39-5.07-2.13-.85-5.57.16-7.87.32-1.89.13-2.65,1.22-2.67,5.43,0,4.85-.19,13.06-.42,17.83-.19,3.92-1.28,6.54,3.12,5.78,1.29-.22,4.8.2,5.47-1.38.52-1.23-.28-4.2-.4-5.55-.26-3-.73-10,.53-10.42s1.31,4.92,1.45,5.72c.23,1.26.08,4.54,1.64,5,2.24.66,2.28-1.79,2.66-3.24.26-1,1-7.89,2.9-8,1.19-.06-.17,9.23-.32,10.23-.49,3.17-1,6.43,1.46,6.18,2.06-.21,3.45.09,5.43-.52,1.47-.46,1-3.46,1.09-4.56.33-5.44.11-11,.7-16.49.55-5,.94-7.71-3.13-7.37Z" transform="translate(-402.08 -461.16)"/><path class="c" d="M501.6,482.32c1.67.27,1.8-1.89,1.82-3a22.24,22.24,0,0,0-.17-2.3c-.09-1,.11-2.25-.82-3.07a2.33,2.33,0,0,0-2.2-.29c-2.5.48-5,1.52-7.61,2-1.23.22-3.59.2-4.37,1.32-.67,1-.62,3-.53,4.12a24.92,24.92,0,0,1-.08,3.7c-.41,6-1.33,10.85-1.35,15.7,0,1.47-1.33,5.88,1.68,5.29,1.39-.27,4.21-1.29,5.62-1.74,3.43-1.1-2.83-10,3.33-11.13,2.41-.44,3.31-.82,3.62-3.24.13-1,.73-3.4-.15-4-1.42-.93-2.83.73-4.46.79-1.06,0-.86-3-.5-4.66C496.15,478.54,499.51,482,501.6,482.32Z" transform="translate(-402.08 -461.16)"/><path class="c" d="M607.3,475.24h0c-.4-4.53-.12-10.07-5.44-11.34a50.19,50.19,0,0,0-5.63-.69,5.53,5.53,0,0,0-3.68.55,4.92,4.92,0,0,0-1.51,2,15.15,15.15,0,0,0-1,4.67c-.35,1.77-.85,5.3-1.1,7.1-.39,2.82-3.56,13.73,0,13.72,1.28,0,6.23,1.25,6.52-.51.46-2.81,0-4.25,0-6.6s1.27-2.66,3.23-1.94c2.52.93.88,3.35.53,5.14-.25,1.3-1.14,3.11-.33,4.37.55.86,1.52.84,2.46.94,1.38.14,4.65,1.21,5.11-.54C607.73,487.19,607.75,480.38,607.3,475.24Zm-7,.89c-.25,1.56-2.2,1.57-3.3.75s-.39-2.34.89-6.59c1.23-4.09,2.42,1.29,2.47,3.66A7.65,7.65,0,0,1,600.32,476.14Z" transform="translate(-402.08 -461.16)"/><path class="c" d="M499.57,521.89c-.07-.54.33,2.38,0-.27-.67-5.39-.41-10.78-6.1-10.18a52.49,52.49,0,0,0-5.87,1.32,7.14,7.14,0,0,0-3.76,1.94,7.86,7.86,0,0,0-1.43,2.65,19.35,19.35,0,0,0-.73,5.3c-.24,2-.54,5.83-.68,7.78-.21,3-1.81,13.91,1.28,13.89,1.25-.16,6.26-.82,6.46-2.67.32-3-.8-4.27-.85-6.68s1.14-3.16,3.16-3.09c2.59.09,1.31,3.13,1,5.07-.19,1.4-1,3.53-.13,4.52.59.67,1.28.34,2.23.12,1.39-.32,5-.88,5.39-2.8C500.71,533.37,500.22,527.13,499.57,521.89ZM492.44,525a2.52,2.52,0,0,1-3.32,1.95c-1.19-.49-.52-2.3.58-7.24s2.55.51,2.71,3A8.29,8.29,0,0,1,492.44,525Z" transform="translate(-402.08 -461.16)"/><path class="c" d="M456.09,506.39c-.15-5,1.63-17.74-5-18.65-3-.41-6.63.25-9,2.3-2.75,2.42-2.66,6.73-3.13,10.1-.72,5.17-.94,17.51,5.33,18.21,7.78.88,12-4.44,11.79-12C456.05,505,456.25,511.46,456.09,506.39Zm-7.26-7.16c0,.37,0-1.39,0,0-.1,3.25.18,6.81-.37,10-.61,3.58-2.63,1.63-2.63-1.11,0-3.64-.26-7.47.33-11.07.11-.66.6-2.2,1.69-2.27C449.18,494.69,448.92,498.39,448.84,499.23Z" transform="translate(-402.08 -461.16)"/><path class="c" d="M537.52,493.13a2.62,2.62,0,0,0,.58,1.09c.9,1,2.56.41,3.61.25,1.69-.27,5,.17,3.88-3.17-1.2-8.46-6-7.92-3.84-9.47,3.69-2.68,4.54-12,.85-14.82-2.82-2.16-5.35-1-8.5-.37-2.48.52-3.72.15-6,1.38-2,1.07-1,4.78-.84,6.57a37.48,37.48,0,0,1-.25,7.32c-.33,3.31-.7,6.58-.74,9.83,0,1.6-1,5.41,1.24,5,1-.17,1.95-.2,2.92-.41s2.45-.26,3.12-1.17a5.08,5.08,0,0,0,.54-2.63c.07-1.78-.37-3.66-.11-5.41.28-1.94,1.67-3.5,2.49-.09a27.16,27.16,0,0,1,.77,3.87A9.94,9.94,0,0,0,537.52,493.13Zm-2-14.23c-1.64.73-1.46-.75-1.27-2.59.1-.93-.13-3.43.59-4.08,2.8-2.53,3.92,5.21.68,6.67Z" transform="translate(-402.08 -461.16)"/><path class="c" d="M523.81,488.41c0-4.85,2.38-17.31-4.87-18.44-3.27-.51-7.25,0-9.86,1.92-3.09,2.27-3.13,6.49-3.76,9.77-1,5-1.61,17.1,5.21,18,8.46,1.14,13.28-3.91,13.28-11.27C523.81,487,523.8,493.37,523.81,488.41Zm-7.69-7.27c-.05.36.09-1.36,0,0-.22,3.18,0,6.67-.74,9.78-.79,3.49-2.93,1.5-2.84-1.18.12-3.57,0-7.32.73-10.83.14-.65.73-2.13,1.92-2.16C516.65,476.71,516.24,480.32,516.12,481.14Z" transform="translate(-402.08 -461.16)"/><path class="c" d="M526.27,503.64c-1.56.36-2.86.5-4.42.81-2.85.57-2.8,1.52-3.26,4.19-.84,4.92-2.16,6-2.85,3.16-.25-1.05-.27-5.07-1.54-5.37-2.18-.51-5.61,1-7.9,1.46-1.87.4-2.61,2.1-2.62,6.22,0,4.82-.17,13.22-.41,18.21-.2,4.18-1.31,7.09,3.25,5.86,1.35-.36,5.07-.24,5.75-2,.53-1.39-.37-4.5-.52-5.93-.32-3.18-.92-10.34.38-10.94s1.45,4.93,1.62,5.74c.26,1.3.18,4.79,1.85,5.12,2.42.47,2.39-2.17,2.75-3.75.25-1.1.8-8.39,2.84-8.74,1.27-.22.14,9.76,0,10.84-.42,3.49-.84,7.11,1.84,6.59,2.28-.44,3.86-.25,6.06-1.14,1.64-.67,1-3.94,1-5.17.08-5.94-.47-12.41-.1-18.17.33-5.19.62-8-3.73-7Z" transform="translate(-402.08 -461.16)"/><path class="c" d="M548.47,520.05c-2.22,1.1-5.61,4.66-6.69,2.38-.51-2.51-.68-3.67,2.6-4.1,2.55-.35,3.48-.68,3.71-3.05.09-1,.62-3.05-.34-3.65-1.56-1-3,.61-4.71.61-1.12,0-1-2.22-.74-3.81.61-3.19,4.33.33,6.58.74,1.79.33,1.83-1.79,1.8-2.93,0-.78-.17-1.78-.28-2.54-.14-1,0-2.22-1-3.06a2.72,2.72,0,0,0-2.35-.36c-2.64.37-5.28,1.31-8,1.67-1.3.17-3.81.06-4.59,1.14-.67.92-.53,3.24-.39,4.32a22.76,22.76,0,0,1,.08,3.65c-.09,2.91-.34,5.8-.55,8.7a32.82,32.82,0,0,0-.2,3.85c.09,1.89-.33,3.94,0,5.8a3.21,3.21,0,0,0,1.15,2.43c1.74,1.12,4.21-.11,6-.34,2.26-.28,4.55-.32,6.8-.72a3.59,3.59,0,0,0,2.42-1.13c1-1.16.71-2.29.77-3.34,0-.79.13-3.18.08-3.95C550.56,521.22,550.32,519.14,548.47,520.05Z" transform="translate(-402.08 -461.16)"/><path class="c" d="M569.13,517.2c-.9-2.84-3-4.15-3.87-5.42a4.5,4.5,0,0,1-1.21-2.74c-.12-1-.26-2.41.82-3s1.79.65,2.42,1.33,2,1.31,2.82.75.59-2.59.62-3.44a22.28,22.28,0,0,0-.13-2.32c-.08-1.05.16-2.25-.78-3.22a2.68,2.68,0,0,0-2.29-.65c-2.86.08-9.6-.15-11.54,2.18-2.11,2.54-2.12,3.72-1.87,6.88a12.92,12.92,0,0,0,2.67,7.2c.53.67,1.14,1.28,1.64,2,.66.94,1.33,2.76.7,3.86s-1.56.76-2.35.08c-.45-.38-.71-1-1.15-1.34-1.45-1.22-2.44-.57-2.51,1.15a30.76,30.76,0,0,0,.3,6,5.11,5.11,0,0,0,1,2.6c.9,1.05,2,.72,3.16.51,2.18-.39,4.4-.45,6.6-.67,2.36-.24,4.94-1.77,5.61-4.08S569.89,519.62,569.13,517.2Z" transform="translate(-402.08 -461.16)"/><path class="d" d="M476.38,517a6.19,6.19,0,0,0-3.57-1,19.25,19.25,0,0,0-5.86.76c-1.53.44-1.5.52-2.8.93-5.47,1.75-8.21,5.25-8.93,23.83a21.1,21.1,0,0,0,1.49,8.35,8.49,8.49,0,0,0,5.62,4.55,15.19,15.19,0,0,0,8.71-.77,10.07,10.07,0,0,0,5.12-4.48c1.16-2.14.78-4.21,1-6.48a10.42,10.42,0,0,1,.25-1.89c.18-.93.09-1.57.2-2.5.33-2.63-.08-4.33-.66-5.17-1.32-1.9-5.17-.84-7.76.26-2.25,1,.09,4.46.52,5.67.62,1.8.14,6.32-2.31,6.24a3,3,0,0,1-2.33-1.48c-1.41-2.33-.76-7.16-.53-9.77.2-2.29.55-7.7,3.56-9,1.89-.81,2.86,1.23,3.73,2.39.47.63,1.06,1.6,2,1.82a2.16,2.16,0,0,0,2.38-1.69,18.2,18.2,0,0,0,.44-3.21c.09-1.27.33-2.54.38-3.81S477.36,517.91,476.38,517Z" transform="translate(-402.08 -461.16)"/><path class="e" d="M459,488.38a111.17,111.17,0,0,1-.26,15.71,56,56,0,0,0-.51,6.13c0,2.41.55,4.3,3.27,3.36s5.72-1.79,9.15-3c2.21-.81,1.12-5.23,1.42-7.81.36-3.09-.95-3-2.43-1.83s-3.44,3.65-3.52,1.91a57.78,57.78,0,0,1,1.23-11.21c.44-2.44,3.1-10-1.78-8.59C461.75,484.1,458.8,483.73,459,488.38Z" transform="translate(-402.08 -461.16)"/><path class="f" d="M434.82,489.42c-4.34-1-10.09.18-13.35,3-2.63,2.24-3.68,5.84-4.19,9-1.08,6.67-1.4,14.12,1.41,21.64,2.34,6.27,12.86,5.68,16.93,1.68,2.12-2.08,1.53-6.13,1.58-8.81,0-2.18-1-5.07-3.58-2.2-1.49,1.68-4.95,6.86-6.55,2.21-1-2.87-.86-5.46-.76-8.35.09-2.68,0-4.65,1.1-7.1,2-4.56,3.51-.08,5.25,1,2.36,1.5,3.34-3.93,3.63-4.94.6-2.13,2.31-6.23-1.45-7.09Z" transform="translate(-402.08 -461.16)"/><path class="g" d="M477.67,508.73a17.83,17.83,0,0,0,4.32-1.49c1.66-.95.63-7.12.72-9.39.16-3.95,1-7.88,1-11.8,0-1.62,1.72-6.6-.5-7.42-1.41-.52-5.42.76-6.52,1.64-1.94,1.56-.93,7-1.17,9.21-.46,4.26-.39,8.51-.56,12.8-.1,2.52-1.66,7.78,2.68,6.45Z" transform="translate(-402.08 -461.16)"/><path class="h" d="M579,491.1l.47,0c.93,0,1.86.17,2.8.15a3.44,3.44,0,0,0,1.39-.24c1-.49,1-2.13,1-3.08.05-1.49-.06-3-.14-4.46,0-.74-.1-1.49-.07-2.23a104.3,104.3,0,0,1,1-11c.62-4.37,1.81-7.34-.76-7.54-1.62-.13-5.12-.65-6.11.11-1.36,1-.91,6.26-1.15,8.4-.45,4.15-.38,8.42-.54,12.67-.08,2-1,3.93-.27,5.93A2.13,2.13,0,0,0,579,491.1Z" transform="translate(-402.08 -461.16)"/><path class="i" d="M570.82,462.64c-1.48.13-2.71.07-4.19.15-2.75.15-2.72,1.12-3.24,3.72-.94,4.75-2.21,5.12-2.8,2.21-.22-1.08-.16-4.58-1.39-5.07-2.13-.85-5.57.16-7.87.32-1.89.13-2.65,1.22-2.67,5.43,0,4.85-.19,13.06-.42,17.83-.19,3.92-1.28,6.54,3.12,5.78,1.29-.22,4.8.2,5.47-1.38.52-1.23-.28-4.2-.4-5.55-.26-3-.73-10,.53-10.42s1.31,4.92,1.45,5.72c.23,1.26.08,4.54,1.64,5,2.24.66,2.28-1.79,2.66-3.24.26-1,1-7.89,2.9-8,1.19-.06-.17,9.23-.32,10.23-.49,3.17-1,6.43,1.46,6.18,2.06-.21,3.45.09,5.43-.52,1.47-.46,1-3.46,1.09-4.56.33-5.44.11-11,.7-16.49.55-5,.94-7.71-3.13-7.37Z" transform="translate(-402.08 -461.16)"/><path class="j" d="M501.6,482.32c1.67.27,1.8-1.89,1.82-3a22.24,22.24,0,0,0-.17-2.3c-.09-1,.11-2.25-.82-3.07a2.33,2.33,0,0,0-2.2-.29c-2.5.48-5,1.52-7.61,2-1.23.22-3.59.2-4.37,1.32-.67,1-.62,3-.53,4.12a24.92,24.92,0,0,1-.08,3.7c-.41,6-1.33,10.85-1.35,15.7,0,1.47-1.33,5.88,1.68,5.29,1.39-.27,4.21-1.29,5.62-1.74,3.43-1.1-2.83-10,3.33-11.13,2.41-.44,3.31-.82,3.62-3.24.13-1,.73-3.4-.15-4-1.42-.93-2.83.73-4.46.79-1.06,0-.86-3-.5-4.66C496.15,478.54,499.51,482,501.6,482.32Z" transform="translate(-402.08 -461.16)"/><path class="k" d="M607.3,475.24h0c-.4-4.53-.12-10.07-5.44-11.34a50.19,50.19,0,0,0-5.63-.69,5.53,5.53,0,0,0-3.68.55,4.92,4.92,0,0,0-1.51,2,15.15,15.15,0,0,0-1,4.67c-.35,1.77-.85,5.3-1.1,7.1-.39,2.82-3.56,13.73,0,13.72,1.28,0,6.23,1.25,6.52-.51.46-2.81,0-4.25,0-6.6s1.27-2.66,3.23-1.94c2.52.93.88,3.35.53,5.14-.25,1.3-1.14,3.11-.33,4.37.55.86,1.52.84,2.46.94,1.38.14,4.65,1.21,5.11-.54C607.73,487.19,607.75,480.38,607.3,475.24Zm-7,.89c-.25,1.56-2.2,1.57-3.3.75s-.39-2.34.89-6.59c1.23-4.09,2.42,1.29,2.47,3.66A7.65,7.65,0,0,1,600.32,476.14Z" transform="translate(-402.08 -461.16)"/><path class="l" d="M499.57,521.89c-.07-.54.33,2.38,0-.27-.67-5.39-.41-10.78-6.1-10.18a52.49,52.49,0,0,0-5.87,1.32,7.14,7.14,0,0,0-3.76,1.94,7.86,7.86,0,0,0-1.43,2.65,19.35,19.35,0,0,0-.73,5.3c-.24,2-.54,5.83-.68,7.78-.21,3-1.81,13.91,1.28,13.89,1.25-.16,6.26-.82,6.46-2.67.32-3-.8-4.27-.85-6.68s1.14-3.16,3.16-3.09c2.59.09,1.31,3.13,1,5.07-.19,1.4-1,3.53-.13,4.52.59.67,1.28.34,2.23.12,1.39-.32,5-.88,5.39-2.8C500.71,533.37,500.22,527.13,499.57,521.89ZM492.44,525a2.52,2.52,0,0,1-3.32,1.95c-1.19-.49-.52-2.3.58-7.24s2.55.51,2.71,3A8.29,8.29,0,0,1,492.44,525Z" transform="translate(-402.08 -461.16)"/><path class="m" d="M456.09,506.39c-.15-5,1.63-17.74-5-18.65-3-.41-6.63.25-9,2.3-2.75,2.42-2.66,6.73-3.13,10.1-.72,5.17-.94,17.51,5.33,18.21,7.78.88,12-4.44,11.79-12C456.05,505,456.25,511.46,456.09,506.39Zm-7.26-7.16c0,.37,0-1.39,0,0-.1,3.25.18,6.81-.37,10-.61,3.58-2.63,1.63-2.63-1.11,0-3.64-.26-7.47.33-11.07.11-.66.6-2.2,1.69-2.27C449.18,494.69,448.92,498.39,448.84,499.23Z" transform="translate(-402.08 -461.16)"/><path class="n" d="M537.52,493.13a2.62,2.62,0,0,0,.58,1.09c.9,1,2.56.41,3.61.25,1.69-.27,5,.17,3.88-3.17-1.2-8.46-6-7.92-3.84-9.47,3.69-2.68,4.54-12,.85-14.82-2.82-2.16-5.35-1-8.5-.37-2.48.52-3.72.15-6,1.38-2,1.07-1,4.78-.84,6.57a37.48,37.48,0,0,1-.25,7.32c-.33,3.31-.7,6.58-.74,9.83,0,1.6-1,5.41,1.24,5,1-.17,1.95-.2,2.92-.41s2.45-.26,3.12-1.17a5.08,5.08,0,0,0,.54-2.63c.07-1.78-.37-3.66-.11-5.41.28-1.94,1.67-3.5,2.49-.09a27.16,27.16,0,0,1,.77,3.87A9.94,9.94,0,0,0,537.52,493.13Zm-2-14.23c-1.64.73-1.46-.75-1.27-2.59.1-.93-.13-3.43.59-4.08,2.8-2.53,3.92,5.21.68,6.67Z" transform="translate(-402.08 -461.16)"/><path class="o" d="M523.81,488.41c0-4.85,2.38-17.31-4.87-18.44-3.27-.51-7.25,0-9.86,1.92-3.09,2.27-3.13,6.49-3.76,9.77-1,5-1.61,17.1,5.21,18,8.46,1.14,13.28-3.91,13.28-11.27C523.81,487,523.8,493.37,523.81,488.41Zm-7.69-7.27c-.05.36.09-1.36,0,0-.22,3.18,0,6.67-.74,9.78-.79,3.49-2.93,1.5-2.84-1.18.12-3.57,0-7.32.73-10.83.14-.65.73-2.13,1.92-2.16C516.65,476.71,516.24,480.32,516.12,481.14Z" transform="translate(-402.08 -461.16)"/><path class="p" d="M526.27,503.64c-1.56.36-2.86.5-4.42.81-2.85.57-2.8,1.52-3.26,4.19-.84,4.92-2.16,6-2.85,3.16-.25-1.05-.27-5.07-1.54-5.37-2.18-.51-5.61,1-7.9,1.46-1.87.4-2.61,2.1-2.62,6.22,0,4.82-.17,13.22-.41,18.21-.2,4.18-1.31,7.09,3.25,5.86,1.35-.36,5.07-.24,5.75-2,.53-1.39-.37-4.5-.52-5.93-.32-3.18-.92-10.34.38-10.94s1.45,4.93,1.62,5.74c.26,1.3.18,4.79,1.85,5.12,2.42.47,2.39-2.17,2.75-3.75.25-1.1.8-8.39,2.84-8.74,1.27-.22.14,9.76,0,10.84-.42,3.49-.84,7.11,1.84,6.59,2.28-.44,3.86-.25,6.06-1.14,1.64-.67,1-3.94,1-5.17.08-5.94-.47-12.41-.1-18.17.33-5.19.62-8-3.73-7Z" transform="translate(-402.08 -461.16)"/><path class="q" d="M548.47,520.05c-2.22,1.1-5.61,4.66-6.69,2.38-.51-2.51-.68-3.67,2.6-4.1,2.55-.35,3.48-.68,3.71-3.05.09-1,.62-3.05-.34-3.65-1.56-1-3,.61-4.71.61-1.12,0-1-2.22-.74-3.81.61-3.19,4.33.33,6.58.74,1.79.33,1.83-1.79,1.8-2.93,0-.78-.17-1.78-.28-2.54-.14-1,0-2.22-1-3.06a2.72,2.72,0,0,0-2.35-.36c-2.64.37-5.28,1.31-8,1.67-1.3.17-3.81.06-4.59,1.14-.67.92-.53,3.24-.39,4.32a22.76,22.76,0,0,1,.08,3.65c-.09,2.91-.34,5.8-.55,8.7a32.82,32.82,0,0,0-.2,3.85c.09,1.89-.33,3.94,0,5.8a3.21,3.21,0,0,0,1.15,2.43c1.74,1.12,4.21-.11,6-.34,2.26-.28,4.55-.32,6.8-.72a3.59,3.59,0,0,0,2.42-1.13c1-1.16.71-2.29.77-3.34,0-.79.13-3.18.08-3.95C550.56,521.22,550.32,519.14,548.47,520.05Z" transform="translate(-402.08 -461.16)"/><path class="r" d="M569.13,517.2c-.9-2.84-3-4.15-3.87-5.42a4.5,4.5,0,0,1-1.21-2.74c-.12-1-.26-2.41.82-3s1.79.65,2.42,1.33,2,1.31,2.82.75.59-2.59.62-3.44a22.28,22.28,0,0,0-.13-2.32c-.08-1.05.16-2.25-.78-3.22a2.68,2.68,0,0,0-2.29-.65c-2.86.08-9.6-.15-11.54,2.18-2.11,2.54-2.12,3.72-1.87,6.88a12.92,12.92,0,0,0,2.67,7.2c.53.67,1.14,1.28,1.64,2,.66.94,1.33,2.76.7,3.86s-1.56.76-2.35.08c-.45-.38-.71-1-1.15-1.34-1.45-1.22-2.44-.57-2.51,1.15a30.76,30.76,0,0,0,.3,6,5.11,5.11,0,0,0,1,2.6c.9,1.05,2,.72,3.16.51,2.18-.39,4.4-.45,6.6-.67,2.36-.24,4.94-1.77,5.61-4.08S569.89,519.62,569.13,517.2Z" transform="translate(-402.08 -461.16)"/><g class="s"><path class="t" d="M615.59,474c2.7-3,5.83,2.69,6,4.9a16.68,16.68,0,0,1-6.43,14.65c-5.93,4.5-13.63,4.64-20.73,5-14.11.67-28.42.06-42.55.32a240.44,240.44,0,0,0-36.74,3.51c-11.8,2.06-23.58,2.92-35.27,5.7a112.14,112.14,0,0,0-24,8.6c-6.65,3.29-12.58,8.09-19.08,11.68-7.95,4.4-34.67,25.55-34.78,3.53,0-3.51.44-6.54,2.47-9.52a17.56,17.56,0,0,1,7-6c2.5-1.19,5.13-1,7.56-2.07,4-1.73,6.47-7.65,11.29-7.29,1.13,2.72-1.74,9.23,3.71,5.43,4.44-3.09,8.41-11.73,14.63-11.87.64,1.6-.65,3.94.8,5.24,3.49,3.11,9.09-3.24,11-5.33a44.18,44.18,0,0,1,7.52-6.91c1.27-.87,3.57-2.73,5.21-2.84,2.22-.15,1.82,2.25,3.55,3.15,4,2.11,8.26-5.32,12.67-3.47.48.2.84,1.06,1.5,1.31,1.84.69,3.93-.63,5.45-1.47,2.78-1.53,5.43-3.57,8.24-5a3.65,3.65,0,0,1,1.62-.62c3.23-.12,2.82.89,4.8,2.62,5.33,4.65,13.21-4.76,17.86-6,1-1.34,5.14-2.85,6.72-2s.57,3.09,1.61,4.19c.82.86,2.25.47,3.24.19,4.17-1.18,8.21-4.08,11.88-6.29a48.86,48.86,0,0,1,8.46-4.3c1.83-.67,5-1.3,6.45.52s-.48,4.65,1,6.47,9-.29,10.39-.71c2.75-.82,5.19-2.41,7.74-3.69,1.7-.86,4.53-3.12,6.49-2.3,1.79.75,1.13,3.14,3,3.76s5.49-1,7.32-1.65c2.35-.89,4.26-2.28,6.71-2.93,1.37-.36,10.4-2.42,10.64.2" transform="translate(-402.08 -461.16)"/></g><path class="u" d="M459,488.38a111.17,111.17,0,0,1-.26,15.71,56,56,0,0,0-.51,6.13c0,2.41.55,4.3,3.27,3.36s5.72-1.79,9.15-3c2.21-.81,1.12-5.23,1.42-7.81.36-3.09-.95-3-2.43-1.83s-3.44,3.65-3.52,1.91a57.78,57.78,0,0,1,1.23-11.21c.44-2.44,3.1-10-1.78-8.59C461.75,484.1,458.8,483.73,459,488.38Z" transform="translate(-402.08 -461.16)"/><path class="u" d="M434.82,489.42c-4.34-1-10.09.18-13.35,3-2.63,2.24-3.68,5.84-4.19,9-1.08,6.67-1.4,14.12,1.41,21.64,2.34,6.27,12.86,5.68,16.93,1.68,2.12-2.08,1.53-6.13,1.58-8.81,0-2.18-1-5.07-3.58-2.2-1.49,1.68-4.95,6.86-6.55,2.21-1-2.87-.86-5.46-.76-8.35.09-2.68,0-4.65,1.1-7.1,2-4.56,3.51-.08,5.25,1,2.36,1.5,3.34-3.93,3.63-4.94.6-2.13,2.31-6.23-1.45-7.09Z" transform="translate(-402.08 -461.16)"/><path class="u" d="M477.67,508.73a17.83,17.83,0,0,0,4.32-1.49c1.66-.95.63-7.12.72-9.39.16-3.95,1-7.88,1-11.8,0-1.62,1.72-6.6-.5-7.42-1.41-.52-5.42.76-6.52,1.64-1.94,1.56-.93,7-1.17,9.21-.46,4.26-.39,8.51-.56,12.8-.1,2.52-1.66,7.78,2.68,6.45Z" transform="translate(-402.08 -461.16)"/><path class="u" d="M579,491.1l.47,0c.93,0,1.86.17,2.8.15a3.44,3.44,0,0,0,1.39-.24c1-.49,1-2.13,1-3.08.05-1.49-.06-3-.14-4.46,0-.74-.1-1.49-.07-2.23a104.3,104.3,0,0,1,1-11c.62-4.37,1.81-7.34-.76-7.54-1.62-.13-5.12-.65-6.11.11-1.36,1-.91,6.26-1.15,8.4-.45,4.15-.38,8.42-.54,12.67-.08,2-1,3.93-.27,5.93A2.13,2.13,0,0,0,579,491.1Z" transform="translate(-402.08 -461.16)"/><path class="u" d="M570.82,462.64c-1.48.13-2.71.07-4.19.15-2.75.15-2.72,1.12-3.24,3.72-.94,4.75-2.21,5.12-2.8,2.21-.22-1.08-.16-4.58-1.39-5.07-2.13-.85-5.57.16-7.87.32-1.89.13-2.65,1.22-2.67,5.43,0,4.85-.19,13.06-.42,17.83-.19,3.92-1.28,6.54,3.12,5.78,1.29-.22,4.8.2,5.47-1.38.52-1.23-.28-4.2-.4-5.55-.26-3-.73-10,.53-10.42s1.31,4.92,1.45,5.72c.23,1.26.08,4.54,1.64,5,2.24.66,2.28-1.79,2.66-3.24.26-1,1-7.89,2.9-8,1.19-.06-.17,9.23-.32,10.23-.49,3.17-1,6.43,1.46,6.18,2.06-.21,3.45.09,5.43-.52,1.47-.46,1-3.46,1.09-4.56.33-5.44.11-11,.7-16.49.55-5,.94-7.71-3.13-7.37Z" transform="translate(-402.08 -461.16)"/><path class="u" d="M501.6,482.32c1.67.27,1.8-1.89,1.82-3a22.24,22.24,0,0,0-.17-2.3c-.09-1,.11-2.25-.82-3.07a2.33,2.33,0,0,0-2.2-.29c-2.5.48-5,1.52-7.61,2-1.23.22-3.59.2-4.37,1.32-.67,1-.62,3-.53,4.12a24.92,24.92,0,0,1-.08,3.7c-.41,6-1.33,10.85-1.35,15.7,0,1.47-1.33,5.88,1.68,5.29,1.39-.27,4.21-1.29,5.62-1.74,3.43-1.1-2.83-10,3.33-11.13,2.41-.44,3.31-.82,3.62-3.24.13-1,.73-3.4-.15-4-1.42-.93-2.83.73-4.46.79-1.06,0-.86-3-.5-4.66C496.15,478.54,499.51,482,501.6,482.32Z" transform="translate(-402.08 -461.16)"/><path class="u" d="M607.3,475.24h0c-.4-4.53-.12-10.07-5.44-11.34a50.19,50.19,0,0,0-5.63-.69,5.53,5.53,0,0,0-3.68.55,4.92,4.92,0,0,0-1.51,2,15.15,15.15,0,0,0-1,4.67c-.35,1.77-.85,5.3-1.1,7.1-.39,2.82-3.56,13.73,0,13.72,1.28,0,6.23,1.25,6.52-.51.46-2.81,0-4.25,0-6.6s1.27-2.66,3.23-1.94c2.52.93.88,3.35.53,5.14-.25,1.3-1.14,3.11-.33,4.37.55.86,1.52.84,2.46.94,1.38.14,4.65,1.21,5.11-.54C607.73,487.19,607.75,480.38,607.3,475.24Zm-7,.89c-.25,1.56-2.2,1.57-3.3.75s-.39-2.34.89-6.59c1.23-4.09,2.42,1.29,2.47,3.66A7.65,7.65,0,0,1,600.32,476.14Z" transform="translate(-402.08 -461.16)"/><path class="u" d="M456.09,506.39c-.15-5,1.63-17.74-5-18.65-3-.41-6.63.25-9,2.3-2.75,2.42-2.66,6.73-3.13,10.1-.72,5.17-.94,17.51,5.33,18.21,7.78.88,12-4.44,11.79-12C456.05,505,456.25,511.46,456.09,506.39Zm-7.26-7.16c0,.37,0-1.39,0,0-.1,3.25.18,6.81-.37,10-.61,3.58-2.63,1.63-2.63-1.11,0-3.64-.26-7.47.33-11.07.11-.66.6-2.2,1.69-2.27C449.18,494.69,448.92,498.39,448.84,499.23Z" transform="translate(-402.08 -461.16)"/><path class="u" d="M537.52,493.13a2.62,2.62,0,0,0,.58,1.09c.9,1,2.56.41,3.61.25,1.69-.27,5,.17,3.88-3.17-1.2-8.46-6-7.92-3.84-9.47,3.69-2.68,4.54-12,.85-14.82-2.82-2.16-5.35-1-8.5-.37-2.48.52-3.72.15-6,1.38-2,1.07-1,4.78-.84,6.57a37.48,37.48,0,0,1-.25,7.32c-.33,3.31-.7,6.58-.74,9.83,0,1.6-1,5.41,1.24,5,1-.17,1.95-.2,2.92-.41s2.45-.26,3.12-1.17a5.08,5.08,0,0,0,.54-2.63c.07-1.78-.37-3.66-.11-5.41.28-1.94,1.67-3.5,2.49-.09a27.16,27.16,0,0,1,.77,3.87A9.94,9.94,0,0,0,537.52,493.13Zm-2-14.23c-1.64.73-1.46-.75-1.27-2.59.1-.93-.13-3.43.59-4.08,2.8-2.53,3.92,5.21.68,6.67Z" transform="translate(-402.08 -461.16)"/><path class="u" d="M523.81,488.41c0-4.85,2.38-17.31-4.87-18.44-3.27-.51-7.25,0-9.86,1.92-3.09,2.27-3.13,6.49-3.76,9.77-1,5-1.61,17.1,5.21,18,8.46,1.14,13.28-3.91,13.28-11.27C523.81,487,523.8,493.37,523.81,488.41Zm-7.69-7.27c-.05.36.09-1.36,0,0-.22,3.18,0,6.67-.74,9.78-.79,3.49-2.93,1.5-2.84-1.18.12-3.57,0-7.32.73-10.83.14-.65.73-2.13,1.92-2.16C516.65,476.71,516.24,480.32,516.12,481.14Z" transform="translate(-402.08 -461.16)"/><g class="v"><path class="t" d="M567.1,514a8.35,8.35,0,0,1-3.95.77,2.86,2.86,0,0,1-2.62-2.62c0-.82.51-1.71.06-2.39-1.32-1.94-7,4.41-8,5.18-5.41,3.85-2.65-6-7.45-4.39a25.62,25.62,0,0,0-8.76,5.49c-2,1.87-3.43,4.23-5.7,5.77-2.85,1.94-3.85.78-3.85-2.2,0-3.53-1.16-5.24-4.87-3.46-2.93,1.4-5,4.15-7.32,6.37-1.35,1.3-2.71,3-4.63,3.53-3.13.82-1.5-1.24-2.72-2.71-1.75-2.12-6.69,1.43-8.08,2.64-1.79,1.55-7.2,9.24-10.41,7.21-1.86-1.17.14-5.95-3.3-4.65a9.19,9.19,0,0,0-4,3.45c-.41.57-2.39,4.55-3.11,2.91a5,5,0,0,1-.19-1.13,2.76,2.76,0,0,0-2.54-2.07,4.87,4.87,0,0,0-3.25,1.15c-3,2.33-5.25,6.35-8.45,8.34-4.24,2.65-1.67-6.11-5.8-4.53a5.81,5.81,0,0,0-2,1.59c-1.68,1.79-5.15,4.25-6.11,6.48-.69,1.58.15,3.91.86,5.44a15.51,15.51,0,0,0,9,7.86,52.51,52.51,0,0,0,11.73,2.34c6.46.65,12.31-.7,18.69-1.46a54.34,54.34,0,0,0,10.57-1.81c3.61-1.17,6.82-3.37,10.44-4.48,1.78-.55,3.94-.59,5.1-2.23a10.8,10.8,0,0,0-1.12-.55c1.84.34,4.3-2,5.74-2.82,7.37-4.1,15.92-6.46,24.22-7.94,5-.89,10.25-1.8,15.31-2.22,5.5-.46,11.21-.27,16.61-1.41,3.87-.82,5.27-2.93,7.66-5.71,1-1.18,3.39-2.62,3.09-4.44" transform="translate(-402.08 -461.16)"/></g><path class="u" d="M476.38,517a6.19,6.19,0,0,0-3.57-1,19.25,19.25,0,0,0-5.86.76c-1.53.44-1.5.52-2.8.93-5.47,1.75-8.21,5.25-8.93,23.83a21.1,21.1,0,0,0,1.49,8.35,8.49,8.49,0,0,0,5.62,4.55,15.19,15.19,0,0,0,8.71-.77,10.07,10.07,0,0,0,5.12-4.48c1.16-2.14.78-4.21,1-6.48a10.42,10.42,0,0,1,.25-1.89c.18-.93.09-1.57.2-2.5.33-2.63-.08-4.33-.66-5.17-1.32-1.9-5.17-.84-7.76.26-2.25,1,.09,4.46.52,5.67.62,1.8.14,6.32-2.31,6.24a3,3,0,0,1-2.33-1.48c-1.41-2.33-.76-7.16-.53-9.77.2-2.29.55-7.7,3.56-9,1.89-.81,2.86,1.23,3.73,2.39.47.63,1.06,1.6,2,1.82a2.16,2.16,0,0,0,2.38-1.69,18.2,18.2,0,0,0,.44-3.21c.09-1.27.33-2.54.38-3.81S477.36,517.91,476.38,517Z" transform="translate(-402.08 -461.16)"/><path class="u" d="M499.57,521.89c-.07-.54.33,2.38,0-.27-.67-5.39-.41-10.78-6.1-10.18a52.49,52.49,0,0,0-5.87,1.32,7.14,7.14,0,0,0-3.76,1.94,7.86,7.86,0,0,0-1.43,2.65,19.35,19.35,0,0,0-.73,5.3c-.24,2-.54,5.83-.68,7.78-.21,3-1.81,13.91,1.28,13.89,1.25-.16,6.26-.82,6.46-2.67.32-3-.8-4.27-.85-6.68s1.14-3.16,3.16-3.09c2.59.09,1.31,3.13,1,5.07-.19,1.4-1,3.53-.13,4.52.59.67,1.28.34,2.23.12,1.39-.32,5-.88,5.39-2.8C500.71,533.37,500.22,527.13,499.57,521.89ZM492.44,525a2.52,2.52,0,0,1-3.32,1.95c-1.19-.49-.52-2.3.58-7.24s2.55.51,2.71,3A8.29,8.29,0,0,1,492.44,525Z" transform="translate(-402.08 -461.16)"/><path class="u" d="M526.27,503.64c-1.56.36-2.86.5-4.42.81-2.85.57-2.8,1.52-3.26,4.19-.84,4.92-2.16,6-2.85,3.16-.25-1.05-.27-5.07-1.54-5.37-2.18-.51-5.61,1-7.9,1.46-1.87.4-2.61,2.1-2.62,6.22,0,4.82-.17,13.22-.41,18.21-.2,4.18-1.31,7.09,3.25,5.86,1.35-.36,5.07-.24,5.75-2,.53-1.39-.37-4.5-.52-5.93-.32-3.18-.92-10.34.38-10.94s1.45,4.93,1.62,5.74c.26,1.3.18,4.79,1.85,5.12,2.42.47,2.39-2.17,2.75-3.75.25-1.1.8-8.39,2.84-8.74,1.27-.22.14,9.76,0,10.84-.42,3.49-.84,7.11,1.84,6.59,2.28-.44,3.86-.25,6.06-1.14,1.64-.67,1-3.94,1-5.17.08-5.94-.47-12.41-.1-18.17.33-5.19.62-8-3.73-7Z" transform="translate(-402.08 -461.16)"/><path class="u" d="M548.47,520.05c-2.22,1.1-5.61,4.66-6.69,2.38-.51-2.51-.68-3.67,2.6-4.1,2.55-.35,3.48-.68,3.71-3.05.09-1,.62-3.05-.34-3.65-1.56-1-3,.61-4.71.61-1.12,0-1-2.22-.74-3.81.61-3.19,4.33.33,6.58.74,1.79.33,1.83-1.79,1.8-2.93,0-.78-.17-1.78-.28-2.54-.14-1,0-2.22-1-3.06a2.72,2.72,0,0,0-2.35-.36c-2.64.37-5.28,1.31-8,1.67-1.3.17-3.81.06-4.59,1.14-.67.92-.53,3.24-.39,4.32a22.76,22.76,0,0,1,.08,3.65c-.09,2.91-.34,5.8-.55,8.7a32.82,32.82,0,0,0-.2,3.85c.09,1.89-.33,3.94,0,5.8a3.21,3.21,0,0,0,1.15,2.43c1.74,1.12,4.21-.11,6-.34,2.26-.28,4.55-.32,6.8-.72a3.59,3.59,0,0,0,2.42-1.13c1-1.16.71-2.29.77-3.34,0-.79.13-3.18.08-3.95C550.56,521.22,550.32,519.14,548.47,520.05Z" transform="translate(-402.08 -461.16)"/><path class="u" d="M569.13,517.2c-.9-2.84-3-4.15-3.87-5.42a4.5,4.5,0,0,1-1.21-2.74c-.12-1-.26-2.41.82-3s1.79.65,2.42,1.33,2,1.31,2.82.75.59-2.59.62-3.44a22.28,22.28,0,0,0-.13-2.32c-.08-1.05.16-2.25-.78-3.22a2.68,2.68,0,0,0-2.29-.65c-2.86.08-9.6-.15-11.54,2.18-2.11,2.54-2.12,3.72-1.87,6.88a12.92,12.92,0,0,0,2.67,7.2c.53.67,1.14,1.28,1.64,2,.66.94,1.33,2.76.7,3.86s-1.56.76-2.35.08c-.45-.38-.71-1-1.15-1.34-1.45-1.22-2.44-.57-2.51,1.15a30.76,30.76,0,0,0,.3,6,5.11,5.11,0,0,0,1,2.6c.9,1.05,2,.72,3.16.51,2.18-.39,4.4-.45,6.6-.67,2.36-.24,4.94-1.77,5.61-4.08S569.89,519.62,569.13,517.2Z" transform="translate(-402.08 -461.16)"/></svg>