<svg xmlns="http://www.w3.org/2000/svg" xmlns:xlink="http://www.w3.org/1999/xlink" width="140.9" height="108.2" viewBox="0 0 140.9 108.2"><defs><style>.a{fill:url(#a);}.b{fill:url(#b);}.c{fill:url(#c);}.d{fill:url(#d);}.e{fill:url(#e);}.f{fill:url(#f);}</style><linearGradient id="a" x1="92.41" y1="16789.66" x2="140.94" y2="16789.66" gradientTransform="matrix(1, 0, 0, -1, 0, 16827.11)" gradientUnits="userSpaceOnUse"><stop offset="0" stop-color="#3fa3da"/><stop offset="1" stop-color="#225aa5"/></linearGradient><linearGradient id="b" x1="51.28" y1="16773.43" x2="-11.47" y2="16794.93" gradientTransform="matrix(1, 0, 0, -1, 0, 16827.11)" gradientUnits="userSpaceOnUse"><stop offset="0" stop-color="#63c130"/><stop offset="1" stop-color="#0d6a29"/></linearGradient><linearGradient id="c" x1="52.63" y1="16757.19" x2="105.5" y2="16764.74" gradientTransform="matrix(1, 0, 0, -1, 0, 16827.11)" gradientUnits="userSpaceOnUse"><stop offset="0" stop-color="#ffb900"/><stop offset="1" stop-color="#ff7500"/></linearGradient><linearGradient id="d" x1="84.85" y1="16801.35" x2="41.86" y2="16816.45" xlink:href="#c"/><linearGradient id="e" x1="69.9" y1="16758.79" x2="26.91" y2="16773.89" xlink:href="#c"/><linearGradient id="f" x1="71.31" y1="16762.81" x2="28.32" y2="16777.91" xlink:href="#c"/></defs><title>Asset 3</title><path class="a" d="M108.3,3.4h2.8c2.3.2,4.5.3,6.8.7s4.5,1.1,6.7,1.7h.1a36.4,36.4,0,0,1,1.6-3.5A14.6,14.6,0,0,1,128.2.3a.8.8,0,0,1,.6-.2,5.3,5.3,0,0,1,4.6,3.3.7.7,0,0,1-.2.9,12,12,0,0,0-2.8,3.7l-.3.6,2.4,1.8a21.9,21.9,0,0,1,7.7,12.9,32.8,32.8,0,0,1,.5,10.8A31.6,31.6,0,0,1,135,48.4a45.3,45.3,0,0,1-6.7,7.5,69.3,69.3,0,0,1-11.7,8.5A107,107,0,0,1,95.2,74l-2.8.9,1.8-6a.8.8,0,0,1,.4-.4c3.5-1.6,7-3,10.4-4.7a52.3,52.3,0,0,0,13-8.6,11.7,11.7,0,0,0,4-7.1,8.5,8.5,0,0,0-.1-2.6,3.6,3.6,0,0,0-3.3-2.8,13,13,0,0,0-7.2,1.4,11.6,11.6,0,0,0-4,2.8,3.8,3.8,0,0,0-1.1,3,2.5,2.5,0,0,0,1.7,2.2c1.2.4,2.5.7,3.8,1l-1.3,2.2c-.8,1.5-.8,1.5-2.5,1.4a12.4,12.4,0,0,1-4.9-1c-2.7-1.2-3.7-3.5-3.4-6.3.5-4.5,2.9-7.7,6.5-10.2a37.8,37.8,0,0,1,10.7-5.2c2.5-.8,5-1.4,7.5-2,.6-.2.7-.6.8-1.1a9.1,9.1,0,0,0-.5-4.6l-2.8,1.3-8,4-.6.2v-.2l-2.2-2.7,1.3-.8a24.8,24.8,0,0,0,6.2-5.2,9.1,9.1,0,0,0,.3-11.3c-1.5-2.1-3.7-3.1-6.1-3.9a12.2,12.2,0,0,0-3.4-.4h-3.8l.7-1.1Z"/><path class="b" d="M34.8,45.4l-.6-.4-9.9-3.6c-1.8-.7-3.6-1.7-5.4-2.5l-4,3.8c5.7,3.3,9.3,8.5,12.4,14A56.9,56.9,0,0,1,32.5,69a17.9,17.9,0,0,1,.1,10.5,14.5,14.5,0,0,1-8.1,8.8c-2,.9-2,.9-3.3-.8l-2.5-3.1,2.6-.6c3.2-1,5.6-3,6.6-6.4a12.3,12.3,0,0,0-.4-7.7,23,23,0,0,0-9.2-11.6,7.7,7.7,0,0,0-6.1-1.3,6.4,6.4,0,0,0-4.9,4.3,5.4,5.4,0,0,0,.2,3.4,16.3,16.3,0,0,0,4,6.1c1.2,1.3,2.6,2.4,3.9,3.6s.4.5.2.9A15.4,15.4,0,0,1,12.9,79a20.9,20.9,0,0,1-4-3.3A31.9,31.9,0,0,1,1.3,61.1a43.2,43.2,0,0,1-1-15.3,44.2,44.2,0,0,1,10.1-24A45.8,45.8,0,0,1,21.9,12,47.6,47.6,0,0,1,34.5,6.4a27.7,27.7,0,0,1,6.9-1.1c0,.6-.1,1.3-.1,1.9s.1.9.1,1.3h-.9a41.5,41.5,0,0,0-5.1,1A22.8,22.8,0,0,0,21.7,21a12.1,12.1,0,0,0-1.5,5l.3-.4a15.6,15.6,0,0,1,4.3-3.8c1-.6,1.3-.6,2.2.2A8.2,8.2,0,0,1,29.5,26a.7.7,0,0,1-.3.6l-3.1,2.2-3.7,2.6,1.7,1.4A54.3,54.3,0,0,0,34,38.2l4,1.7,1.2.5,3.3.9,3.6.8.8.3a27.5,27.5,0,0,0-4.3,4.9l-2.8-.6-2.7-.6Z"/><path class="c" d="M42.6,47.2a27.5,27.5,0,0,1,4.3-4.9h.8c1.2.2,2.4.5,3.7.5L58,43l1.7-.2,8.2-.7h1.4l4.7-.8,4.2-.8,5.1-1.2,5.5-1.5c-.2-1-.4-1.9-.5-2.8a11.9,11.9,0,0,1,1.3-6.7,1,1,0,0,1,.7-.4h2.3l2.7.7a34.4,34.4,0,0,0-1.2,7.6l1.3-.4c2.2-.8,4.5-1.5,6.7-2.5s5.3-2.4,7.9-3.7l1.1-.7,2.2,2.7v.2l-4.1,2.3-6.2,3.7-3.8,2.5c-2,1.4-4.1,2.8-6,4.4s-4.5,3.8-6.7,5.9a52.8,52.8,0,0,0-3.9,4.5,18.8,18.8,0,0,0-1.2,1.8l-.3.6a5.5,5.5,0,0,1,3.9,1.3,9.7,9.7,0,0,1,3,4.5,15.7,15.7,0,0,1,.7,2.1,8.4,8.4,0,0,1-1.2,5.9,18.9,18.9,0,0,1-3.5,4.2,39.2,39.2,0,0,1-6.1,4.6l-5.8,3.5c-2.5,1.4-5,2.8-7.4,4.3a31.7,31.7,0,0,0-4.2,3.3A34.3,34.3,0,0,0,57.2,95a23.5,23.5,0,0,0-1.8,3l-.2.3a11.5,11.5,0,0,1-2.5-2.9,1.4,1.4,0,0,1,.1-1.7,24,24,0,0,1,5.5-6.6c1.9-1.5,3.9-3,5.9-4.4l5.2-3.4c1.9-1.2,3.8-2.3,5.6-3.5a27.6,27.6,0,0,0,4-3.2,3.5,3.5,0,0,0,.3-5.1,7.7,7.7,0,0,0-2.9-2.6l-1.6-.5c-2.8-.4-5.3.5-7.7,1.8A63.7,63.7,0,0,0,60.9,70c-2.6,1.8-5.2,3.6-7.7,5.7a26.3,26.3,0,0,0-4.9,5.7,35.4,35.4,0,0,0-3.7,7.6,40.8,40.8,0,0,0-1.7,6.8,51,51,0,0,0-.7,9.3c0,1,.1,2.1.2,3.3l-.6-.6-4.1-5.1a19.1,19.1,0,0,1-1.6-2,2,2,0,0,1-.1-1.3,47.9,47.9,0,0,1,3.4-11.1c.9-2.1,2.1-4.2,3.2-6.2A34.6,34.6,0,0,1,45,78c1.4-1.9,2.9-3.7,4.4-5.5A46.4,46.4,0,0,1,52.7,69c1.2-1.2,2.5-2.3,3.9-3.4s3.3-2.6,5.1-3.8,4.3-2.6,6.4-3.9a20,20,0,0,0,6.5-6.1,12.6,12.6,0,0,0,2-5.9l-1.1.3-7.1,1.3-1.9.2-.2.2h-1l-5.4.4H56.1c-1.9,0-3.8,0-5.6-.2l-7.8-1.1Z"/><path class="d" d="M67.9,42.1l-8.2.7a5.4,5.4,0,0,0-5.5-3.1A12.5,12.5,0,0,0,49.2,41l-2,1.2h-.3l-.8-.3-3.6-.8-3.3-.9L38,39.8a23.8,23.8,0,0,1,5.5-4.2,30.5,30.5,0,0,1,15.5-3.7c.5,0,.7-.1.9-.5a23.8,23.8,0,0,0,1-10.9A12.5,12.5,0,0,0,57.1,13c-3-2.7-6.7-3.8-10.6-4.2l-5.1-.3c0-.4-.1-.9-.1-1.3s0-1.3.1-1.9h3.3a30.5,30.5,0,0,1,9.8,2,32.7,32.7,0,0,1,12.8,8.9l.4.4H68l-2.2-7a8.6,8.6,0,0,1,3.9-1.3h2l.4.3a12.5,12.5,0,0,1,1.5,6.1,20,20,0,0,1-.5,2.8c3.4-2.1,7.1-4.5,10.8-6.6a62,62,0,0,1,14-6.1,28.4,28.4,0,0,1,7.8-1.2h2.7l-2.2,2.8-.7,1.1-3.5.4a31.7,31.7,0,0,0-11,3.9,45.9,45.9,0,0,0-10.6,9A62,62,0,0,0,69.7,37.5C69,39,68.5,40.6,67.9,42.1Z"/><path class="e" d="M59.8,48.4l5.4-.4h1a41.8,41.8,0,0,1-3.8,7.6,49.1,49.1,0,0,1-9.2,11.1,41.1,41.1,0,0,1-16.3,9h-.3l-.6-7.1c2.6-.8,5.1-1.4,7.5-2.2a28,28,0,0,0,10.9-6.6,17.5,17.5,0,0,0,5.1-10Z"/><path class="f" d="M42.6,47.2h.1a5.2,5.2,0,0,0-1.6,4,3.8,3.8,0,0,0,3.4,3.3,8.3,8.3,0,0,0,4.4-1l.6-.3,1.1,1.8,1.2,1.8a16.7,16.7,0,0,1-7.1,3.7,9.1,9.1,0,0,1-5.6-.4,9.3,9.3,0,0,1-5.9-9.4,13.5,13.5,0,0,1,1.5-5.3l2.3.5,2.7.6Z"/></svg>