<svg xmlns="http://www.w3.org/2000/svg" xmlns:xlink="http://www.w3.org/1999/xlink" width="134.86" height="144.72" viewBox="0 0 134.86 144.72"><defs><style>.a{fill:#235f8e;}.b{fill:url(#a);}.c{fill:url(#b);}.d{fill:url(#c);}.e{fill:url(#d);}.f{fill:url(#e);}.g{fill:url(#f);}</style><linearGradient id="a" x1="524.82" y1="2577.67" x2="566.97" y2="2577.67" gradientTransform="translate(0 -2076.4)" gradientUnits="userSpaceOnUse"><stop offset="0" stop-color="#3fa1da"/><stop offset="1" stop-color="#225ba5"/></linearGradient><linearGradient id="b" x1="489.1" y1="2563.58" x2="434.61" y2="2582.24" gradientTransform="translate(0 -2076.4)" gradientUnits="userSpaceOnUse"><stop offset="0" stop-color="#67bc45"/><stop offset="1" stop-color="#166b37"/></linearGradient><linearGradient id="c" x1="490.28" y1="2549.47" x2="536.19" y2="2556.03" gradientTransform="translate(0 -2076.4)" gradientUnits="userSpaceOnUse"><stop offset="0" stop-color="#fcb813"/><stop offset="1" stop-color="#f37521"/></linearGradient><linearGradient id="d" x1="518.26" y1="2587.82" x2="480.93" y2="2600.94" xlink:href="#c"/><linearGradient id="e" x1="505.28" y1="2550.86" x2="467.94" y2="2563.97" xlink:href="#c"/><linearGradient id="f" x1="506.5" y1="2554.35" x2="469.17" y2="2567.47" xlink:href="#c"/></defs><title>loga-abraco</title><path class="a" d="M477.93,548a3.32,3.32,0,0,0-.35-.42,1.7,1.7,0,0,0-.4-.35,2.16,2.16,0,0,0-1.39-.44,2.69,2.69,0,0,0-1.14.35,2,2,0,0,0-.53.47,2.17,2.17,0,0,0-.39.53,2.52,2.52,0,0,0,.47,2.93,2.44,2.44,0,0,0,1.74.66,2.51,2.51,0,0,0,2.29-1.86A2.45,2.45,0,0,0,477.93,548Z" transform="translate(-444.57 -439.83)"/><path class="a" d="M475.83,551.24a2,2,0,0,1-1.67-2.93,1.73,1.73,0,0,1,.3-.41,1.67,1.67,0,0,1,.43-.39,2.23,2.23,0,0,1,.94-.29h.09a1.77,1.77,0,0,1,1,.36,1.32,1.32,0,0,1,.32.28,3,3,0,0,1,.31.38,2,2,0,0,1,.24,1.47,2.05,2.05,0,0,1-1.88,1.52Z" transform="translate(-444.57 -439.83)"/><path class="a" d="M488.41,569.42a13.38,13.38,0,0,1-4.5-.78,2.05,2.05,0,0,1-1.24-2.25,1.31,1.31,0,0,1,1.39-1.14h.24c.76,0,1.55.08,2.37.08a10.33,10.33,0,0,0,6.05-1.5c1.89-1.35,3.1-4,1.85-6.05a4.32,4.32,0,0,0-3.79-2.37c-3.29,0-6.66,3.55-7.62,4.64a1.44,1.44,0,0,1-1.11.49,1.94,1.94,0,0,1-1.53-.76,1.32,1.32,0,0,1-.19-1.23,9.77,9.77,0,0,1,1-2.2l.2-.31-.26-.26a1.55,1.55,0,0,1-.42-1.56l.67-2.46.16-.58a1.81,1.81,0,0,1,1.81-1.37,1.76,1.76,0,0,1,1.85,1.74c0,.12,0,.24,0,.36l0,.68.62-.29a11.12,11.12,0,0,1,4.64-1,8.55,8.55,0,0,1,7.71,4.46c1.92,3.38,1,7.93-2.15,10.82a11.55,11.55,0,0,1-7.83,2.91Z" transform="translate(-444.57 -439.83)"/><path class="a" d="M481,584.55a2.14,2.14,0,0,1-2.14-1.85,50.25,50.25,0,0,1,.26-9.68c.12-1.33.25-2.71.32-4,0-.16.06-.88.06-.88l0-.6-.59.11a7.84,7.84,0,0,1-1.51.15,7.49,7.49,0,0,1-3.26-.74,7.36,7.36,0,0,1-2.31-1.77l-.35-.4-.35.4a11,11,0,0,1-5,3.37l-.14,0-.09.12-.06.08,0,.06a3.07,3.07,0,0,1-2.31,1.12c-2.19,0-4.67-2.44-5.71-4.7-.8-1.73-3.22-7.7-1-12a1.57,1.57,0,0,1,1.46-.87h.19l.09,0c.46-.16,1-.32,1.54-.49,2.75-.82,6.53-1.94,5.87-5.37-.45-2.34-2.45-3.68-5.5-3.68a10.47,10.47,0,0,0-3.41.57c-4.2,1.49-5.4,6-5.67,9.6a55.09,55.09,0,0,0,1.1,13.55,2.56,2.56,0,0,1-.57,2.14,2.79,2.79,0,0,1-2.06,1,1.87,1.87,0,0,1-1.89-1.64,50.07,50.07,0,0,1-1.67-11,19.3,19.3,0,0,1,1.81-8.52c1.89-4.44,6-9.44,11.94-10.14a9.59,9.59,0,0,1,1.12-.07,10.54,10.54,0,0,1,7.5,3.18,8,8,0,0,1,2.29,6c-.24,4.9-5.3,8-9.94,8.35l-.48,0,.06.48c0,.32.08.63.12.95a20.62,20.62,0,0,0,.8,4.15l.07.22a6.25,6.25,0,0,0,1.62,3,3.53,3.53,0,0,0,.38.25l.2.11L464,565c2.67-1.11,5.47-2.82,6-7.07a1.7,1.7,0,0,1,1.74-1.51,2.45,2.45,0,0,1,1.79.82,2.18,2.18,0,0,1,.52,1.78c0,.07,0,.15,0,.22v.09a3.37,3.37,0,0,0,3.32,4,4.44,4.44,0,0,0,2.38-.79l.2-.12,0-.23c.19-2.23.38-4.37.62-6.94a1.78,1.78,0,0,1,1.81-1.63,1.4,1.4,0,0,1,1,.38,1.45,1.45,0,0,1,.38,1.07c0,2.51-.06,7-.11,9.47l0,.15c0,1.85-.09,3.27-.15,4.6s-.07,2.67-.09,4a52.09,52.09,0,0,1-.74,9.9,1.62,1.62,0,0,1-1.66,1.41Z" transform="translate(-444.57 -439.83)"/><path class="a" d="M547.22,569.75a2.1,2.1,0,0,1-2.09-2,56.81,56.81,0,0,1-.18-7.54c0-1.05,0-2.14,0-3.19,0-.76,0-1.53,0-2.3l0-1.5-.78.85c-.31.34-.73.78-1.16,1.21a1.67,1.67,0,0,1-1.19.49,2.15,2.15,0,0,1-1.84-1.1,1.45,1.45,0,0,1,.13-1.58c.92-1.34,2-2.63,3-3.88l.27-.32c.25-.3.5-.62.75-.95.38-.49.77-1,1.18-1.46l.05-.06,0-.08a1.35,1.35,0,0,1,.77-.75l.06,0,.05,0a5.39,5.39,0,0,1,.62-.45,1.59,1.59,0,0,1,.84-.22,2.21,2.21,0,0,1,1.76.92,1.42,1.42,0,0,1,.16,1.37,6.92,6.92,0,0,1-.68,1.27l-.09.14,0,.16c.2,1.95.21,4,.21,5.91,0,.8,0,1.6,0,2.39,0,1.06.07,2.14.11,3.19a56.55,56.55,0,0,1,0,7.54,2,2,0,0,1-2,2Z" transform="translate(-444.57 -439.83)"/><path class="a" d="M510.3,570a8,8,0,0,1-1.1-.08,6.66,6.66,0,0,1-4.87-3.13,7.22,7.22,0,0,1-.57-6.16c1-2.86,3.21-4.57,5.55-6.38a20.81,20.81,0,0,0,4.8-4.63,4.56,4.56,0,0,0,.76-3.68,4.39,4.39,0,0,0-2.32-2.77,4.73,4.73,0,0,0-2.21-.55,6.28,6.28,0,0,0-5.05,3,1.52,1.52,0,0,1-1.31.75,1.78,1.78,0,0,1-1.51-.85,1.41,1.41,0,0,1,.06-1.48,10.36,10.36,0,0,1,8.66-5.3,8,8,0,0,1,3.25.69,8.41,8.41,0,0,1,4.11,11.56c-1.2,2.36-3.1,3.6-5.29,5l-.66.43c-2.09,1.38-4.7,3.09-5.55,5.74a3.12,3.12,0,0,0,.31,2.93,3.42,3.42,0,0,0,2.84,1.27,5.17,5.17,0,0,0,1.43-.21c1.93-.55,3.12-2,4.28-3.3a14.6,14.6,0,0,1,2-2.08,2.12,2.12,0,0,1,1.31-.48l.31,0,.62.11-.08-.62a14.19,14.19,0,0,1,.19-4.6v-.08c.07-4.29,4.39-6.86,8.53-6.86a8.44,8.44,0,0,1,2.94.5c3.84,1.42,6.24,6.06,6.84,9.78v0a25.12,25.12,0,0,1-.14,3.5,8.7,8.7,0,0,1-8.59,7.18h0a9,9,0,0,1-3.45-.7,10,10,0,0,1-5.2-4.87l-.39-.78-.43.76C518.36,567.3,514.1,570,510.3,570Zm18.3-17.38c-1.92,0-3.52,1.43-4.29,3.83a2.25,2.25,0,0,1-.55.92l-.16.16,0,.23c.41,3,1.62,5.13,3.58,6.33a5,5,0,0,0,2.61.76A4.32,4.32,0,0,0,534,561.5c.76-2.78-.15-6.61-3-8.22A5,5,0,0,0,528.6,552.58Z" transform="translate(-444.57 -439.83)"/><path class="a" d="M562.55,569.25c-4,0-7.85-3.3-9.2-7.85l-.08-.27-.27-.06a1.7,1.7,0,0,1-1.47-1.85,7.42,7.42,0,0,1,1.65-4.15l.07-.08,0-.1a16.69,16.69,0,0,1,2.33-5.5c1.09-1.65,4-5.55,7.75-6.06l.25,0a1.84,1.84,0,0,1,1.68,1.07,1.33,1.33,0,0,1-.38,1.5c-.67.67-1.37,1.3-2,1.9a29.37,29.37,0,0,0-2.93,2.88l-.73.87,1.13-.11c.36,0,.72-.05,1.07-.05a9.27,9.27,0,0,1,4.64,1.17,9.52,9.52,0,0,1,4.72,8.22,8.27,8.27,0,0,1-4.18,7.34,8,8,0,0,1-4,1.14Zm-1.24-13.54a5.89,5.89,0,0,0-2.6.63,5.37,5.37,0,0,0-1.36,1l-.14.13v.19a8.07,8.07,0,0,0,1.83,5.82,4.58,4.58,0,0,0,3.4,1.38,3.6,3.6,0,0,0,3.71-2.73,5.29,5.29,0,0,0-2.36-5.73A5,5,0,0,0,561.31,555.72Z" transform="translate(-444.57 -439.83)"/><path class="b" d="M538.65,530.81c.8,0,1.61.07,2.41,0,2-.17,3.94-.29,5.87-.65s3.91-1,5.86-1.48l.1,0a31.66,31.66,0,0,0,1.41,3,12.7,12.7,0,0,0,1.62,1.92.69.69,0,0,0,.51.21,4.65,4.65,0,0,0,4-2.87.59.59,0,0,0-.18-.79,10.45,10.45,0,0,1-2.43-3.22c-.09-.17-.16-.35-.24-.51.71-.54,1.42-1,2.08-1.57a19,19,0,0,0,6.67-11.25,28.46,28.46,0,0,0,.39-9.4,27.48,27.48,0,0,0-4.91-12.43,39.36,39.36,0,0,0-5.79-6.55,60.14,60.14,0,0,0-10.16-7.41,93,93,0,0,0-18.63-8.3c-.78-.25-1.57-.49-2.44-.76.55,1.82,1.07,3.54,1.6,5.25a.68.68,0,0,0,.34.36c3,1.37,6.06,2.63,9,4.1a45.41,45.41,0,0,1,11.32,7.47,10.14,10.14,0,0,1,3.47,6.18,7.37,7.37,0,0,1,0,2.29,3.1,3.1,0,0,1-2.84,2.4,11.32,11.32,0,0,1-6.23-1.21,10.1,10.1,0,0,1-3.46-2.4,3.29,3.29,0,0,1-.92-2.64,2.14,2.14,0,0,1,1.48-1.88c1.07-.37,2.19-.57,3.33-.85l-1.09-1.9c-.73-1.27-.73-1.27-2.18-1.24a10.73,10.73,0,0,0-4.27.83,4.92,4.92,0,0,0-3,5.45c.4,3.88,2.54,6.67,5.6,8.87a32.86,32.86,0,0,0,9.27,4.52c2.15.69,4.36,1.21,6.55,1.77.53.14.6.53.68.91a7.92,7.92,0,0,1-.47,4c-.8-.38-1.61-.73-2.4-1.13l-7-3.51a2.57,2.57,0,0,0-.54-.14.85.85,0,0,1-.09.17l-1.93,2.38c.37.22.74.43,1.1.66a21.57,21.57,0,0,1,5.35,4.52,7.87,7.87,0,0,1,.24,9.78,9.8,9.8,0,0,1-5.3,3.36,10.57,10.57,0,0,1-3,.38c-1.11,0-2.22,0-3.33,0a10.2,10.2,0,0,0,.58.94C537.37,529.22,538,530,538.65,530.81Z" transform="translate(-444.57 -439.83)"/><path class="c" d="M474.78,494.35a2.74,2.74,0,0,1-.51.33c-2.88,1-5.78,2-8.63,3.14-1.61.62-3.14,1.45-4.71,2.18l-3.51-3.32c5-2.85,8.05-7.36,10.75-12.19a49.43,49.43,0,0,0,4.58-10.58,15.53,15.53,0,0,0,.12-9.14,12.62,12.62,0,0,0-7-7.62c-1.71-.82-1.72-.79-2.9.68-.72.89-1.45,1.77-2.2,2.68.79.19,1.56.32,2.29.55a7.83,7.83,0,0,1,5.69,5.53,10.69,10.69,0,0,1-.37,6.7,20,20,0,0,1-8,10.06,6.67,6.67,0,0,1-5.3,1.15,5.56,5.56,0,0,1-4.26-3.76,4.68,4.68,0,0,1,.15-2.95,14.19,14.19,0,0,1,3.45-5.32c1.06-1.11,2.23-2.12,3.37-3.15.27-.24.36-.43.19-.77a13.39,13.39,0,0,0-2.16-3.36,18.12,18.12,0,0,0-3.46,2.86,27.74,27.74,0,0,0-6.66,12.66A37.53,37.53,0,0,0,444.8,494a38.41,38.41,0,0,0,8.74,20.88,39.76,39.76,0,0,0,10.08,8.52,41.36,41.36,0,0,0,10.87,4.83,24.08,24.08,0,0,0,6,1c0-.55,0-1.09,0-1.64,0-.38.06-.76.09-1.14-.25,0-.5-.06-.74-.1a36,36,0,0,1-4.45-.84,19.79,19.79,0,0,1-11.93-9.9,10.47,10.47,0,0,1-1.31-4.3c.13.15.22.24.29.33a13.52,13.52,0,0,0,3.75,3.33c.89.54,1.13.53,1.95-.15a7.09,7.09,0,0,0,2.12-3.58.62.62,0,0,0-.24-.5c-.89-.65-1.81-1.28-2.72-1.92l-3.19-2.23c.55-.44,1-.85,1.52-1.21a47.18,47.18,0,0,1,8.5-4.72c1.15-.52,2.33-1,3.5-1.44a10.7,10.7,0,0,1,1-.4c1-.27,1.92-.52,2.88-.75s2.1-.46,3.15-.7a5,5,0,0,0,.67-.25,23.86,23.86,0,0,1-3.76-4.25l-2.45.53-2.35.55Z" transform="translate(-444.57 -439.83)"/><path class="d" d="M481.57,492.84a23.86,23.86,0,0,0,3.76,4.25l.23,0c.16,0,.32,0,.48,0,1.06-.16,2.12-.41,3.19-.48,1.89-.12,3.79-.13,5.69-.16a10.89,10.89,0,0,1,1.44.17l7.13.64c.39,0,.79,0,1.17.07q2.07.32,4.12.69c1.22.22,2.43.44,3.64.7q2.22.48,4.42,1c1.61.41,3.22.86,4.76,1.28-.15.86-.32,1.65-.43,2.44a10.36,10.36,0,0,0,1.13,5.86.83.83,0,0,0,.62.36,9.88,9.88,0,0,0,2-.06c.8-.13,1.59-.38,2.36-.57a29.87,29.87,0,0,1-1-6.61c.43.13.81.22,1.16.35,1.95.7,3.93,1.34,5.84,2.14,2.33,1,4.6,2.1,6.89,3.17a7.19,7.19,0,0,1,.95.64l1.94-2.38a.85.85,0,0,0,.09-.17c-1.18-.67-2.37-1.32-3.54-2q-2.7-1.6-5.37-3.24c-1.12-.69-2.25-1.38-3.34-2.14-1.76-1.23-3.55-2.45-5.22-3.81-2-1.62-3.94-3.31-5.78-5.1a45.83,45.83,0,0,1-3.37-3.92,16.32,16.32,0,0,1-1.05-1.58,5.41,5.41,0,0,1-.27-.55,4.81,4.81,0,0,0,3.42-1.15,8.38,8.38,0,0,0,2.64-3.9,13.64,13.64,0,0,0,.59-1.85,7.33,7.33,0,0,0-1-5.11,16.38,16.38,0,0,0-3.06-3.66,34,34,0,0,0-5.3-4c-1.66-1-3.34-2-5-3-2.13-1.25-4.31-2.4-6.39-3.72a27.53,27.53,0,0,1-3.67-2.85,29.76,29.76,0,0,1-3.1-3.28,20.39,20.39,0,0,1-1.57-2.6l-.16-.28a10,10,0,0,0-2.2,2.49,1.22,1.22,0,0,0,.08,1.45,20.81,20.81,0,0,0,4.81,5.69c1.64,1.34,3.35,2.59,5.08,3.81,1.46,1,3,2,4.51,2.93s3.3,2,4.88,3.08a24,24,0,0,1,3.46,2.77,3.07,3.07,0,0,1,.23,4.41,6.68,6.68,0,0,1-2.54,2.22,5.31,5.31,0,0,1-1.41.41,10.74,10.74,0,0,1-6.67-1.55,55.29,55.29,0,0,1-5.27-3.1c-2.28-1.55-4.54-3.16-6.66-4.92a22.82,22.82,0,0,1-4.23-4.93,30.71,30.71,0,0,1-3.25-6.56,35.43,35.43,0,0,1-1.52-5.89,44.27,44.27,0,0,1-.63-8.06c0-.91.09-1.81.14-2.84-.23.22-.39.36-.52.52l-3.58,4.4a16.55,16.55,0,0,0-1.36,1.7,1.75,1.75,0,0,0-.07,1.11,41.64,41.64,0,0,0,2.94,9.66c.83,1.85,1.81,3.64,2.79,5.42a30,30,0,0,0,2.14,3.41c1.21,1.63,2.49,3.21,3.8,4.76a40.27,40.27,0,0,0,2.86,3c1.07,1,2.18,2,3.34,2.94,1.43,1.14,2.9,2.25,4.42,3.26,1.81,1.2,3.7,2.28,5.56,3.41a17.33,17.33,0,0,1,5.6,5.33,10.93,10.93,0,0,1,1.76,5.1c-.36-.09-.65-.19-.94-.24-2.05-.38-4.1-.77-6.15-1.13-.56-.1-1.13-.12-1.69-.2-.05,0-.1-.11-.14-.16l-.85-.06-4.72-.34c-.57,0-1.15,0-1.72,0s-1-.07-1.54-.06c-1.63,0-3.26,0-4.88.16-2.27.23-4.52.63-6.78,1Z" transform="translate(-444.57 -439.83)"/><path class="e" d="M503.5,497.25l-7.13-.64a4.73,4.73,0,0,1-4.79,2.71,10.89,10.89,0,0,1-4.23-1.17c-.62-.3-1.18-.69-1.77-1l-.23,0a5,5,0,0,1-.67.25c-1,.24-2.11.45-3.15.7s-1.93.48-2.88.75a10.79,10.79,0,0,0-1,.4,20.71,20.71,0,0,0,4.81,3.65,26.47,26.47,0,0,0,13.45,3.23c.39,0,.61.05.74.47a20.7,20.7,0,0,1,.91,9.45,10.88,10.88,0,0,1-3.39,6.51c-2.6,2.36-5.79,3.28-9.17,3.67-1.46.17-2.93.17-4.4.25,0,.38-.08.76-.09,1.14,0,.55,0,1.09,0,1.64,1,0,1.93.12,2.89.08a26.47,26.47,0,0,0,8.55-1.73,28.38,28.38,0,0,0,11.15-7.71l.33-.35.22,0-2,6.05a7.47,7.47,0,0,0,3.42,1.11,13,13,0,0,0,1.7,0,.49.49,0,0,0,.35-.24,10.9,10.9,0,0,0,1.31-5.33,17.37,17.37,0,0,0-.41-2.4c3,1.84,6.13,3.87,9.36,5.75a53.8,53.8,0,0,0,12.13,5.32,24.66,24.66,0,0,0,6.78,1.07l2.31,0c-.64-.8-1.28-1.59-1.9-2.39a10.25,10.25,0,0,1-.58-.94c-1-.13-2.06-.21-3.07-.39a27.55,27.55,0,0,1-9.54-3.39,39.9,39.9,0,0,1-9.22-7.8,53.84,53.84,0,0,1-9.28-14.72C504.51,499.88,504,498.56,503.5,497.25Z" transform="translate(-444.57 -439.83)"/><path class="f" d="M496.54,491.75l4.72.34.85.06a36.31,36.31,0,0,0-3.3-6.63,42.61,42.61,0,0,0-8-9.64A35.71,35.71,0,0,0,476.71,468a1.86,1.86,0,0,0-.25,0l-.51,6.15c2.24.66,4.41,1.19,6.52,1.93a24.29,24.29,0,0,1,9.44,5.73,15.18,15.18,0,0,1,4.42,8.71C496.38,490.93,496.47,491.34,496.54,491.75Z" transform="translate(-444.57 -439.83)"/><path class="g" d="M481.57,492.84l.05,0a4.53,4.53,0,0,1-1.41-3.5,3.31,3.31,0,0,1,3-2.83,7.19,7.19,0,0,1,3.86.86l.52.26,1-1.53,1-1.55a14.52,14.52,0,0,0-6.13-3.2,7.92,7.92,0,0,0-4.89.33,8.08,8.08,0,0,0-5.09,8.13,11.71,11.71,0,0,0,1.34,4.57l2-.44,2.35-.55Z" transform="translate(-444.57 -439.83)"/><path class="a" d="M570.3,569.25h2.15a1.38,1.38,0,1,1,0,2.76h-1.69v2.07h-.46Zm.46,2.37h1.58a1,1,0,1,0,0-2h-1.58Z" transform="translate(-444.57 -439.83)"/><path class="a" d="M574.74,569.25h.68l1.67,4.24,1.66-4.24h.68v4.83H579v-4.18h0l-1.65,4.18h-.43l-1.66-4.18h0v4.18h-.46Z" transform="translate(-444.57 -439.83)"/></svg>