<svg xmlns="http://www.w3.org/2000/svg" xmlns:xlink="http://www.w3.org/1999/xlink" width="368.9" height="267.1" viewBox="0 0 368.9 267.1">
  <defs>
    <style>
      .cls-1, .cls-11, .cls-29 {
        fill: none;
      }

      .cls-2 {
        fill: #fafafa;
      }

      .cls-3 {
        fill: #134785;
      }

      .cls-4 {
        fill: url(#linear-gradient);
      }

      .cls-5 {
        fill: url(#linear-gradient-2);
      }

      .cls-6 {
        fill: url(#linear-gradient-3);
      }

      .cls-7 {
        fill: url(#linear-gradient-4);
      }

      .cls-8 {
        fill: url(#linear-gradient-5);
      }

      .cls-9 {
        fill: url(#linear-gradient-6);
      }

      .cls-10 {
        fill: #52382b;
      }

      .cls-11, .cls-29 {
        stroke: #52382b;
        stroke-miterlimit: 10;
      }

      .cls-11 {
        stroke-width: 2.38px;
      }

      .cls-12 {
        fill: url(#linear-gradient-7);
      }

      .cls-13 {
        fill: url(#linear-gradient-8);
      }

      .cls-14 {
        fill: url(#linear-gradient-9);
      }

      .cls-15 {
        fill: url(#linear-gradient-10);
      }

      .cls-16 {
        fill: url(#linear-gradient-11);
      }

      .cls-17 {
        fill: url(#linear-gradient-12);
      }

      .cls-18 {
        fill: url(#linear-gradient-13);
      }

      .cls-19 {
        fill: url(#linear-gradient-14);
      }

      .cls-20 {
        fill: url(#linear-gradient-15);
      }

      .cls-21 {
        fill: url(#linear-gradient-16);
      }

      .cls-22 {
        fill: url(#linear-gradient-17);
      }

      .cls-23 {
        fill: url(#linear-gradient-18);
      }

      .cls-24 {
        fill: url(#linear-gradient-19);
      }

      .cls-25 {
        fill: url(#linear-gradient-20);
      }

      .cls-26 {
        fill: url(#linear-gradient-21);
      }

      .cls-27 {
        clip-path: url(#clip-path);
      }

      .cls-28 {
        fill: #ff6f00;
      }

      .cls-29 {
        stroke-width: 0.79px;
      }

      .cls-30 {
        clip-path: url(#clip-path-2);
      }
    </style>
    <linearGradient id="linear-gradient" x1="202.19" y1="19194.47" x2="223.36" y2="19194.47" gradientTransform="matrix(1, 0, 0, -1, 0, 19242.81)" gradientUnits="userSpaceOnUse">
      <stop offset="0" stop-color="#3fa3da"/>
      <stop offset="1" stop-color="#225aa5"/>
    </linearGradient>
    <linearGradient id="linear-gradient-2" x1="184.27" y1="19187.53" x2="156.94" y2="19196.89" gradientTransform="matrix(1, 0, 0, -1, 0, 19242.81)" gradientUnits="userSpaceOnUse">
      <stop offset="0" stop-color="#63c130"/>
      <stop offset="1" stop-color="#0d6a29"/>
    </linearGradient>
    <linearGradient id="linear-gradient-3" x1="184.87" y1="19180.77" x2="207.85" y2="19184.05" gradientTransform="matrix(1, 0, 0, -1, 0, 19242.81)" gradientUnits="userSpaceOnUse">
      <stop offset="0" stop-color="#ffb900"/>
      <stop offset="1" stop-color="#ff7500"/>
    </linearGradient>
    <linearGradient id="linear-gradient-4" x1="198.98" y1="19199.3" x2="180.22" y2="19205.89" xlink:href="#linear-gradient-3"/>
    <linearGradient id="linear-gradient-5" x1="192.49" y1="19181.33" x2="173.53" y2="19187.99" xlink:href="#linear-gradient-3"/>
    <linearGradient id="linear-gradient-6" x1="192.93" y1="19183.02" x2="174.28" y2="19189.57" xlink:href="#linear-gradient-3"/>
    <linearGradient id="linear-gradient-7" x1="312.87" y1="163.1" x2="86.04" y2="228.3" gradientTransform="matrix(1, 0, 0, 1, 0, 0)" xlink:href="#linear-gradient-3"/>
    <linearGradient id="linear-gradient-8" x1="295.68" y1="103.29" x2="68.85" y2="168.49" gradientTransform="matrix(1, 0, 0, 1, 0, 0)" xlink:href="#linear-gradient-3"/>
    <linearGradient id="linear-gradient-9" x1="295.79" y1="103.68" x2="68.96" y2="168.87" gradientTransform="matrix(1, 0, 0, 1, 0, 0)" xlink:href="#linear-gradient-3"/>
    <linearGradient id="linear-gradient-10" x1="295.67" y1="103.26" x2="68.85" y2="168.46" gradientTransform="matrix(1, 0, 0, 1, 0, 0)" xlink:href="#linear-gradient-3"/>
    <linearGradient id="linear-gradient-11" x1="301.21" y1="122.52" x2="74.38" y2="187.72" gradientTransform="matrix(1, 0, 0, 1, 0, 0)" xlink:href="#linear-gradient-3"/>
    <linearGradient id="linear-gradient-12" x1="299.01" y1="114.87" x2="72.18" y2="180.07" gradientTransform="matrix(1, 0, 0, 1, 0, 0)" xlink:href="#linear-gradient-3"/>
    <linearGradient id="linear-gradient-13" x1="295.67" y1="103.24" x2="68.84" y2="168.44" gradientTransform="matrix(1, 0, 0, 1, 0, 0)" xlink:href="#linear-gradient-3"/>
    <linearGradient id="linear-gradient-14" x1="304.15" y1="132.75" x2="77.32" y2="197.95" gradientTransform="matrix(1, 0, 0, 1, 0, 0)" xlink:href="#linear-gradient-3"/>
    <linearGradient id="linear-gradient-15" x1="312.11" y1="160.45" x2="85.28" y2="225.65" gradientTransform="matrix(1, 0, 0, 1, 0, 0)" xlink:href="#linear-gradient-3"/>
    <linearGradient id="linear-gradient-16" x1="295.77" y1="103.6" x2="68.94" y2="168.8" gradientTransform="matrix(1, 0, 0, 1, 0, 0)" xlink:href="#linear-gradient-3"/>
    <linearGradient id="linear-gradient-17" x1="297.3" y1="108.92" x2="70.47" y2="174.11" gradientTransform="matrix(1, 0, 0, 1, 0, 0)" xlink:href="#linear-gradient-3"/>
    <linearGradient id="linear-gradient-18" x1="296.23" y1="105.21" x2="69.4" y2="170.4" gradientTransform="matrix(1, 0, 0, 1, 0, 0)" xlink:href="#linear-gradient-3"/>
    <linearGradient id="linear-gradient-19" x1="312.75" y1="162.68" x2="85.92" y2="227.88" gradientTransform="matrix(1, 0, 0, 1, 0, 0)" xlink:href="#linear-gradient-3"/>
    <linearGradient id="linear-gradient-20" x1="313.87" y1="166.56" x2="87.04" y2="231.75" gradientTransform="matrix(1, 0, 0, 1, 0, 0)" xlink:href="#linear-gradient-3"/>
    <linearGradient id="linear-gradient-21" x1="315.34" y1="171.67" x2="88.51" y2="236.87" gradientTransform="matrix(1, 0, 0, 1, 0, 0)" xlink:href="#linear-gradient-3"/>
    <clipPath id="clip-path">
      <path class="cls-1" d="M106.7,133c8.2-2.3,3.7,10.3,3,14.4s-2.3,13.4-2.1,18.8c.1,2.9,3.2-1.1,5.9-3.2s4.7-2.1,4.1,3.1,1.3,11.8-2.4,13.1c-5.8,2.1-10.6,3.5-15.4,5.1s-5.5-1.6-5.5-5.6a94,94,0,0,1,.9-10.3,186.7,186.7,0,0,0,.4-26.4C95.3,134.2,100.2,134.9,106.7,133ZM55,143.8c-7.3-1.7-16.9.3-22.4,5s-6.2,9.8-7,15.1c-1.8,11.2-2.4,23.7,2.4,36.3,3.9,10.5,21.6,9.5,28.4,2.8,3.6-3.5,2.6-10.3,2.7-14.8s-1.8-8.5-6-3.7c-2.5,2.8-8.3,11.5-11,3.7-1.7-4.8-1.4-9.2-1.3-14s0-7.8,1.9-11.9c3.4-7.7,5.9-.1,8.8,1.7s5.6-6.6,6.1-8.3c1-3.6,3.9-10.5-2.4-11.9Zm72,32.4c2.6-.8,4.6-1,7.3-2.5s1.1-12,1.2-15.8c.3-6.6,1.7-13.2,1.7-19.8,0-2.7,2.9-11.1-.8-12.5s-9.1,1.3-10.9,2.8-1.6,11.8-2,15.5c-.8,7.2-.6,14.3-.9,21.5-.2,4.2-2.8,13.1,4.5,10.8Zm170.2-29.6h.8c1.6-.1,3.1.3,4.7.3a5.8,5.8,0,0,0,2.3-.4c1.7-.8,1.7-3.6,1.7-5.2s-.1-5-.2-7.5-.2-2.5-.1-3.7a175.2,175.2,0,0,1,1.7-18.5c1-7.3,3-12.3-1.3-12.7-2.7-.2-8.6-1.1-10.3.2s-1.5,10.5-1.9,14.1c-.8,7-.6,14.1-.9,21.3-.1,3.4-1.6,6.6-.5,10S295.5,146.7,297.1,146.6ZM283.4,98.8c-2.5.2-4.6.1-7,.3-4.6.3-4.6,1.9-5.4,6.3-1.6,8-3.7,8.6-4.7,3.7-.4-1.8-.3-7.7-2.3-8.5-3.6-1.4-9.3.3-13.2.5s-4.4,2.1-4.5,9.1-.3,21.9-.7,29.9-2.1,11,5.2,9.7c2.2-.4,8.1.3,9.2-2.3s-.5-7.1-.7-9.3c-.4-5.1-1.2-16.8.9-17.5s2.2,8.3,2.4,9.6.1,7.6,2.8,8.4,3.8-3,4.5-5.4,1.6-13.3,4.9-13.4-.3,15.5-.5,17.2c-.8,5.3-1.6,10.8,2.5,10.4s5.8.2,9.1-.9,1.7-5.8,1.8-7.7c.6-9.1.2-18.5,1.2-27.7s1.6-12.9-5.3-12.4ZM167.2,131.9c2.8.5,3-3.2,3.1-5.1a37.4,37.4,0,0,0-.3-3.9c-.2-1.7.2-3.8-1.4-5.2s-2.3-.7-3.7-.5c-4.2.8-8.4,2.6-12.8,3.3-2.1.4-6,.3-7.3,2.2s-1,5.1-.9,6.9a41.9,41.9,0,0,1-.1,6.2c-.7,10.1-2.2,18.2-2.3,26.4,0,2.5-2.2,9.9,2.8,8.9,2.3-.5,7.1-2.2,9.4-2.9,5.8-1.8-4.8-16.8,5.6-18.7,4.1-.7,5.6-1.4,6.1-5.4.2-1.7,1.2-5.7-.3-6.7s-4.8,1.2-7.5,1.3-1.4-5.1-.8-7.8C158,125.5,163.6,131.3,167.2,131.9Zm176.1,16.4c-.8,2.9-6.3,1.1-8.6.9s-3.2-.1-4.1-1.6.1-5.2.6-7.3,3.3-7.1-.9-8.6-5.3-.9-5.4,3.3.7,6.4,0,11.1c-.5,3-8.8.8-10.9.9-5.9,0-.6-18.3.1-23,.4-3,1.3-9,1.8-11.9a25.4,25.4,0,0,1,1.7-7.8,8.3,8.3,0,0,1,2.5-3.3c1.6-1.2,4.3-1.2,6.2-.9s6.3.4,9.5,1.2c8.9,2.1,8.5,11.4,9.1,19h0C345.5,128.6,345.4,140.1,343.3,148.3Zm-10.2-30.4c-.1-4-2.1-13-4.1-6.2s-3.4,9.6-1.5,11.1,5.1,1.4,5.5-1.3A12.9,12.9,0,0,0,333.1,117.9ZM90.7,172.3c.4,12.6-6.7,21.6-19.8,20.1-10.5-1.2-10.2-21.9-9-30.6.8-5.7.6-12.9,5.3-17s10-4.5,15-3.9c11.2,1.5,8.2,23,8.5,31.3ZM76.9,152.8c-1.8.1-2.7,2.7-2.8,3.8-1,6.1-.6,12.5-.5,18.6,0,4.6,3.4,7.9,4.4,1.9s.5-11.3.6-16.8c.1-2.3-.1.6,0,0S79.1,152.7,76.9,152.8ZM227,146.3a45.6,45.6,0,0,0-1.3-6.5c-1.4-5.7-3.7-3.1-4.2.2s.3,6.1.2,9.1c-.1,1.4-.1,3.3-.9,4.4s-3.6,1.6-5.2,2-3.3.4-4.9.7c-3.8.7-2.1-5.7-2.1-8.4.1-5.5.7-11,1.2-16.5a63,63,0,0,0,.4-12.3c-.3-3-1.9-9.3,1.4-11s5.9-1.4,10.1-2.3,9.5-3,14.3.6,4.8,20.4-1.4,24.9c-3.6,2.6,4.4,1.7,6.5,15.9,1.9,5.6-3.7,4.9-6.5,5.3s-4.6,1.2-6.1-.4a4.4,4.4,0,0,1-1-1.8A16.7,16.7,0,0,1,227,146.3Zm-2.9-20.1c5.4-2.4,3.6-15.5-1.1-11.2-1.2,1.1-.8,5.3-1,6.8-.3,3.1-.6,5.6,2.1,4.3Zm-19.7,16c0,12.4-8.1,20.9-22.3,18.9-11.5-1.5-10.4-21.8-8.7-30.3,1.1-5.5,1.1-12.6,6.3-16.4s11.1-4.1,16.6-3.2c12.2,1.9,8.2,22.8,8.2,31S204.5,139.8,204.5,142.1ZM190,122.5c-2,.1-3,2.5-3.2,3.6-1.3,5.9-1,12.2-1.2,18.2s3.4,7.8,4.8,2,.9-11.1,1.2-16.4c.2-2.3-.1.6,0,0S192.4,122.4,190,122.5Z"/>
    </clipPath>
    <clipPath id="clip-path-2">
      <path class="cls-1" d="M125.8,196.1c-.1,2.1-.5,4.3-.6,6.4a30.6,30.6,0,0,1-.7,5.4c-.4,1.6-2.1,3.3-4,2.8s-2.5-2-3.3-3.1-3.1-5.4-6.3-4c-5.1,2.2-5.6,11.3-6,15.1s-1.5,12.5.9,16.4a5,5,0,0,0,3.9,2.5c4.1.1,4.9-7.4,3.9-10.5s-4.7-7.9-.9-9.5,10.8-3.6,13-.4c1,1.4,1.7,4.3,1.1,8.7-.2,1.6,0,2.6-.3,4.2a17.5,17.5,0,0,0-.4,3.2c-.3,3.8.3,7.3-1.7,10.9a16.9,16.9,0,0,1-8.6,7.5,25.5,25.5,0,0,1-14.6,1.3,14.3,14.3,0,0,1-9.4-7.6c-1.9-4.2-2.6-10.6-2.5-14,1.2-31.2,5.8-37.1,15-40,2.2-.7,2.1-.8,4.7-1.6a32.3,32.3,0,0,1,9.9-1.3c1.9,0,4.8.6,6,1.7S125.9,194,125.8,196.1Zm37.9,30.7c-.7,3.2-6.7,4.2-9,4.7s-2.8.9-3.8-.2-.1-5.2.2-7.6,2.6-8.4-1.8-8.5-5.4.9-5.3,5.2,2,6.2,1.4,11.2c-.3,3.1-8.8,4.2-10.9,4.5-5.2,0-2.5-18.2-2.2-23.3.2-3.3.7-9.7,1.1-13.1a32.5,32.5,0,0,1,1.2-8.9,13.2,13.2,0,0,1,2.4-4.4c1.6-1.9,4.3-2.8,6.3-3.3s6.6-1.9,9.9-2.2c9.6-1,9.1,8.1,10.3,17.1.6,4.5-.1-.4,0,.5C164.8,207.1,165.7,217.6,163.8,226.7Zm-12.1-26.9c-.3-4.2-2.8-13.1-4.5-5s-3,11.3-1,12.2,5.3-.4,5.6-3.3A13.9,13.9,0,0,0,151.7,199.8Zm56.9-32.1c-2.6.6-4.8.8-7.4,1.4-4.8,1-4.7,2.6-5.5,7-1.4,8.3-3.6,10.1-4.8,5.3-.4-1.8-.5-8.5-2.6-9-3.7-.9-9.4,1.6-13.3,2.4s-4.4,3.5-4.4,10.5-.3,22.2-.7,30.6-2.2,11.9,5.5,9.9c2.3-.6,8.5-.4,9.7-3.4s-.6-7.6-.9-10c-.5-5.3-1.5-17.4.6-18.4s2.4,8.3,2.7,9.6.3,8,3.1,8.6,4-3.7,4.6-6.3,1.3-14.1,4.8-14.7.2,16.4,0,18.2c-.7,5.9-1.4,11.9,3.1,11.1s6.5-.4,10.2-1.9,1.6-6.6,1.7-8.7c.1-10-.8-20.8-.2-30.5s1-13.4-6.3-11.7Zm37.3,27.6c-3.7,1.8-9.4,7.8-11.2,4s-1.1-6.2,4.4-6.9,5.9-1.1,6.2-5.1c.2-1.7,1-5.1-.6-6.1s-5,1-7.9,1-1.8-3.7-1.2-6.4c1-5.4,7.3.5,11,1.2s3.1-3,3-4.9-.3-3-.5-4.3,0-3.7-1.7-5.1-2.5-.8-3.9-.6c-4.4.6-8.9,2.2-13.4,2.8-2.2.3-6.4.1-7.7,1.9s-.9,5.4-.6,7.2a38.2,38.2,0,0,1,.1,6.1c-.1,4.9-.6,9.7-.9,14.6a55.1,55.1,0,0,0-.3,6.5c.2,3.2-.6,6.6-.1,9.7.3,1.6.6,3.2,1.9,4.1,2.9,1.9,7.1-.2,10.1-.6s7.6-.5,11.4-1.2c1.5-.3,2.9-.5,4.1-1.9s1.2-3.8,1.3-5.6.2-5.3.1-6.6S249,193.7,245.9,195.3Zm34.7-4.8c-1.5-4.8-5-7-6.5-9.1s-1.7-2.2-2-4.6-.4-4.1,1.4-5,3,1.1,4.1,2.2,3.4,2.2,4.7,1.3,1-4.3,1-5.8a37.4,37.4,0,0,0-.2-3.9c-.1-1.8.3-3.8-1.3-5.4s-2.4-1.1-3.8-1.1c-4.8.1-16.1-.3-19.4,3.7s-3.6,6.2-3.1,11.6a21.7,21.7,0,0,0,4.5,12.1c.9,1.1,1.9,2.2,2.7,3.3s2.2,4.6,1.2,6.5-2.6,1.3-3.9.1-1.2-1.6-1.9-2.2c-2.4-2.1-4.1-1-4.2,1.9a51.7,51.7,0,0,0,.5,10,8.6,8.6,0,0,0,1.6,4.4c1.5,1.8,3.3,1.2,5.3.9,3.7-.7,7.4-.7,11.1-1.1s8.3-3,9.4-6.9S281.9,194.5,280.6,190.5Z"/>
    </clipPath>
  </defs>
  <title>Asset 8</title>
  <g id="Layer_2" data-name="Layer 2">
    <g id="content">
      <g>
        <circle class="cls-2" cx="191.3" cy="62.3" r="62.3"/>
        <g>
          <g>
            <path class="cls-3" d="M176.1,84.8a3.2,3.2,0,0,1-.2,1,3.9,3.9,0,0,1-.5,1l-.8.9-1.2.8-1.6.6-2,.3,1.1.6.8.9.5,1,.3,1,.2.9.3.8.3.6.6.2h.7l.8-.3.8-.5.8-.6,1.1,1.8H178l-.5.3-.8.4-1,.4-1.2.3h-1.2a2.1,2.1,0,0,1-1.2-.3,3,3,0,0,1-.9-.9,5.7,5.7,0,0,1-.6-1.3l-.4-1.4-.3-1.4-.4-1.4a2.9,2.9,0,0,0-.5-.9.9.9,0,0,0-.7-.3h-.7l-.6,3.7a13.9,13.9,0,0,1-.7,2.8,4.5,4.5,0,0,1-1.1,1.7,2.4,2.4,0,0,1-1.7.6,3.5,3.5,0,0,1-1.4-.3l-1.2-.8a5.3,5.3,0,0,1-.9-1.2,7.8,7.8,0,0,1-.6-1.4,9.9,9.9,0,0,1-.4-1.6,10.2,10.2,0,0,1-.1-1.6,11,11,0,0,1,.4-2.9,11.2,11.2,0,0,1,1.1-2.6,11.4,11.4,0,0,1,1.7-2.3,11.1,11.1,0,0,1,5-3,11.3,11.3,0,0,1,3.1-.4h1.5l1.4.4,1.2.6,1,.9a3.9,3.9,0,0,1,.6,1.1A3.5,3.5,0,0,1,176.1,84.8Zm-6-2.3a8.9,8.9,0,0,0-2.9.4,7.7,7.7,0,0,0-2.2,1.2,7.6,7.6,0,0,0-1.6,1.7,9.9,9.9,0,0,0-1.1,2,11,11,0,0,0-.6,2.2,12.1,12.1,0,0,0-.2,2.1,8.7,8.7,0,0,0,.1,1.5A5.4,5.4,0,0,0,162,95a2.9,2.9,0,0,0,.8,1,1.7,1.7,0,0,0,1.1.4l.6-.2.4-.7.3-1a7.3,7.3,0,0,0,.2-1.1V90q0-.4,0-.6l-1.1-.6a.8.8,0,0,1-.4-.7v-.7h1.6v-1l.2-.6.3-.6.4-.4.6-.2a.8.8,0,0,1,.7.2.9.9,0,0,1,.2.6h0a3.9,3.9,0,0,1-.2,1l-.4,1.4a11.9,11.9,0,0,0,2.8-.3,5.6,5.6,0,0,0,1.7-.7,2.6,2.6,0,0,0,.9-1,2.3,2.3,0,0,0,.3-1,1.8,1.8,0,0,0-.2-.9,2.2,2.2,0,0,0-.7-.7l-1.1-.5Z"/>
            <path class="cls-3" d="M181.5,94.6l-.9.7-1.1.6-1.2.5-1.2.2h-.9l-.6-.4a1.5,1.5,0,0,1-.3-.6,3,3,0,0,1-.1-.8,8.2,8.2,0,0,1,.1-1.4,18.6,18.6,0,0,1,.4-1.8l.5-1.8.5-1.5a.8.8,0,0,1,.3-.4l.5-.3.5-.2h1a.5.5,0,0,1,.1.4,2.4,2.4,0,0,1-.1.6l-.2.9-.4,1.2a9.2,9.2,0,0,0-.3,1.3l-.2,1.1a3.8,3.8,0,0,0-.1,1,1.9,1.9,0,0,0,.1.7.4.4,0,0,0,.4.2l.8-.2.9-.6.9-.7.7-.6Zm-4.4-9.9a1.5,1.5,0,0,1,.1-.5l.3-.5.6-.4.9-.2h.6l.5.2.4.4a1.3,1.3,0,0,1,.1.6,1.9,1.9,0,0,1-.1.6l-.3.5-.6.4h-.9a1.8,1.8,0,0,1-1.3-.4A1.4,1.4,0,0,1,177.1,84.8Z"/>
            <path class="cls-3" d="M186,89.4a4.9,4.9,0,0,1,.4,1.2,6,6,0,0,1,.1,1.4,5.1,5.1,0,0,1-.1,1.1,5.6,5.6,0,0,1-.4,1.1l-.6,1-.8.8-1,.5-1.1.2a2.8,2.8,0,0,1-1.5-.4,3.1,3.1,0,0,1-1-.9,4.1,4.1,0,0,1-.6-1.3,6.2,6.2,0,0,1-.2-1.5,6.4,6.4,0,0,1,.3-2.1,4.6,4.6,0,0,1,.9-1.6,4.2,4.2,0,0,1,1.5-1,4.8,4.8,0,0,1,1.9-.4l1.7.3,1.5.7a6.4,6.4,0,0,1,1.3,1.2l1.1,1.3-.2,1.3-.7-.7-1-.9-1-.8-.8-.6Zm-3,5.4a.9.9,0,0,0,.6-.3l.5-.8a5.2,5.2,0,0,0,.4-1.2,6.4,6.4,0,0,0,.1-1.2,4.4,4.4,0,0,0-.1-.8,2.4,2.4,0,0,0-.2-.6l-.4-.4-.5-.2a1.1,1.1,0,0,0-.8.3,3.1,3.1,0,0,0-.6.8,5,5,0,0,0-.4,1.1,5.8,5.8,0,0,0-.2,1.4,3.4,3.4,0,0,0,.1.7,1.9,1.9,0,0,0,.2.6l.4.4Z"/>
            <path class="cls-3" d="M198.2,96.6h-.6l-.6-.2-.6-.3-.6-.4-1.2.7-1.3.3-1-.2-.8-.5-.5-.7a1.7,1.7,0,0,1-.2-.8,2.2,2.2,0,0,1,.1-.7l.3-.6.6-.5.9-.2,1.4.2,1.1.6.5-.7.5-.8.3-.8a3.2,3.2,0,0,0,.1-.8,3.7,3.7,0,0,0-.1-1.1,1.8,1.8,0,0,0-.4-.7l-.5-.3h-1.1l-.5.3-.3.4a1.2,1.2,0,0,0-.1.6q0,.2.3.3l.9.4h0l-.2.2-.6.2-.7.2h-1a2,2,0,0,1-.6-.7,1.6,1.6,0,0,1-.2-.8,2.7,2.7,0,0,1,.3-1.2,3,3,0,0,1,.8-1l1.3-.7,1.5-.3h.6l.8.2.8.4.8.6a2.9,2.9,0,0,1,.6,1,4.3,4.3,0,0,1,.2,1.4,4,4,0,0,1-.1,1,8,8,0,0,1-.4,1.2l-.7,1.3-.9,1.2.7.3h1l.3-.3.2-.3h.4a.6.6,0,0,1,.1.4,4.2,4.2,0,0,1-.2,1v.4l-.2.4-.4.3Zm-5-1.8a1.9,1.9,0,0,0,1-.4l-.4-.2h-1l-.2.2v.2h.6Z"/>
            <path class="cls-3" d="M203.5,96.6a2.6,2.6,0,0,1-1.3-.3,2.8,2.8,0,0,1-.9-.9,3.9,3.9,0,0,1-.6-1.3,6,6,0,0,1-.2-1.5,7.9,7.9,0,0,1,.1-1.4,8.2,8.2,0,0,1,.4-1.4,7.2,7.2,0,0,1,.6-1.3l.9-1.1,1.1-.7,1.3-.3a3,3,0,0,1,1.4.3,2.2,2.2,0,0,1,.9.8,4.5,4.5,0,0,1,.5,1.2,5.8,5.8,0,0,1,.2,1.5,7.7,7.7,0,0,1-.1,1.4,14.7,14.7,0,0,1-.3,1.4,5.3,5.3,0,0,1-.6,1.3l-.9,1.1-1.1.7Zm.2-1.8.5-.2.5-.6.4-.9.3-1,.2-1a6.5,6.5,0,0,0,.1-1,4.5,4.5,0,0,0,0-.7v-.5l-.2-.4h-.4l-.5.2-.5.6-.4.9-.3,1a9.6,9.6,0,0,0-.2,1,7.6,7.6,0,0,0-.1.9,5.5,5.5,0,0,0,0,.7v.6l.2.4Z"/>
            <path class="cls-3" d="M215.5,96.6H215l-.6-.2-.6-.3-.6-.4-1.2.7-1.3.3-1-.2L209,96l-.5-.7a1.7,1.7,0,0,1-.2-.8,2.2,2.2,0,0,1,.1-.7l.3-.6.6-.5.9-.2,1.4.2,1.1.6.5-.7.5-.8.3-.8a3.2,3.2,0,0,0,.1-.8,3.7,3.7,0,0,0-.1-1.1,1.8,1.8,0,0,0-.4-.7l-.5-.3H212l-.5.3-.3.4a1.2,1.2,0,0,0-.1.6q0,.2.3.3l.9.4h0l-.2.2-.6.2-.7.2h-1a2,2,0,0,1-.6-.7,1.6,1.6,0,0,1-.2-.8,2.7,2.7,0,0,1,.3-1.2,3,3,0,0,1,.8-1l1.3-.7,1.5-.3h.6l.8.2.8.4.8.6a2.9,2.9,0,0,1,.6,1,4.3,4.3,0,0,1,.2,1.4,4,4,0,0,1-.1,1A8,8,0,0,1,216,92l-.7,1.3-.9,1.2.7.3h1l.3-.3.2-.3h.4a.6.6,0,0,1,.1.4,4.2,4.2,0,0,1-.2,1v.4l-.2.4-.4.3Zm-5-1.8a1.9,1.9,0,0,0,1-.4l-.4-.2h-1l-.2.2v.2h.6Z"/>
            <path class="cls-3" d="M222.9,92.6a1.7,1.7,0,0,0-.2-1,.6.6,0,0,0-.6-.3h-.4l-.3.3-.2.4-.2.4-.2.3h-.2v-.2a2,2,0,0,1-.1-.6,2,2,0,0,1,.2-.9l.6-.7.8-.4.9-.2.9.2.8.5a2.4,2.4,0,0,1,.5.8,3.3,3.3,0,0,1,.2,1.2A3.9,3.9,0,0,1,225,94a4.2,4.2,0,0,1-.9,1.3,4.3,4.3,0,0,1-3.2,1.3l-1.4-.2a3.3,3.3,0,0,1-1.2-.6,3.3,3.3,0,0,1-.9-1.2,4.1,4.1,0,0,1-.3-1.7,5.9,5.9,0,0,1,.5-2.3,8.4,8.4,0,0,1,1.3-2.1,10.6,10.6,0,0,1,1.9-1.8,12.4,12.4,0,0,1,2.3-1.4h.7l.7.2a.6.6,0,0,1,.2.5.9.9,0,0,1-.1.4l-.4.4L222.4,88a10.1,10.1,0,0,0-1.5,1.6,8.2,8.2,0,0,0-1,1.8,5.1,5.1,0,0,0-.4,1.9,3.3,3.3,0,0,0,.1.7,1.7,1.7,0,0,0,.2.6l.4.4h.7l.8-.2.6-.6a3.1,3.1,0,0,0,.4-.8A2.9,2.9,0,0,0,222.9,92.6Z"/>
          </g>
          <g>
            <path class="cls-4" d="M209.1,34h1.2l2.9.3,2.9.7h.1a15.1,15.1,0,0,1,.7-1.5,6.2,6.2,0,0,1,.8-.9h.3a2.3,2.3,0,0,1,2,1.4.3.3,0,0,1-.1.4,5.1,5.1,0,0,0-1.2,1.6v.2l1,.8a9.2,9.2,0,0,1,3.3,5.5,13.3,13.3,0,0,1,.2,4.6,13.1,13.1,0,0,1-2.5,6,19.3,19.3,0,0,1-2.9,3.2,30.2,30.2,0,0,1-5.1,3.6,47.5,47.5,0,0,1-9.4,4l-1.2.4.8-2.5.2-.2,4.5-2a22.9,22.9,0,0,0,5.7-3.6,4.9,4.9,0,0,0,1.7-3,3.5,3.5,0,0,0,0-1.1,1.5,1.5,0,0,0-1.4-1.2,5.9,5.9,0,0,0-3.1.6,5.1,5.1,0,0,0-1.7,1.2,1.6,1.6,0,0,0-.5,1.3,1,1,0,0,0,.7.9l1.7.4-.5.9c-.4.6-.4.6-1.1.6A5.6,5.6,0,0,1,207,56a2.4,2.4,0,0,1-1.5-2.6,5.9,5.9,0,0,1,2.8-4.3,16.8,16.8,0,0,1,4.7-2.2l3.3-.9c.3-.1.3-.3.3-.4a3.7,3.7,0,0,0-.2-1.9l-1.2.5-3.5,1.7h-.3l-1-1.2.6-.3a10.7,10.7,0,0,0,2.7-2.2,3.7,3.7,0,0,0,.1-4.7,4.9,4.9,0,0,0-2.7-1.6l-1.5-.2h-1.7l.3-.5Z"/>
            <path class="cls-5" d="M177.1,51.7l-.3-.2L172.5,50,170.1,49l-1.8,1.6a14.6,14.6,0,0,1,5.4,5.9,23.6,23.6,0,0,1,2.3,5.1,7.3,7.3,0,0,1,.1,4.4,6.2,6.2,0,0,1-3.5,3.7c-.9.4-.9.4-1.5-.3L170,68.1l1.2-.3a3.9,3.9,0,0,0,2.9-2.7,5,5,0,0,0-.2-3.2,9.7,9.7,0,0,0-4-4.9,3.4,3.4,0,0,0-2.7-.6,2.8,2.8,0,0,0-2.1,1.8,2.2,2.2,0,0,0,.1,1.4,6.9,6.9,0,0,0,1.7,2.6l1.7,1.5c.1.1.2.2.1.4a6.5,6.5,0,0,1-1.1,1.6,9,9,0,0,1-1.7-1.4,13.3,13.3,0,0,1-3.3-6.1,17.6,17.6,0,0,1-.4-6.4,18.3,18.3,0,0,1,4.4-10.1,19.8,19.8,0,0,1,5.1-4.1,21.1,21.1,0,0,1,5.5-2.3,12.5,12.5,0,0,1,3-.5c0,.3,0,.5,0,.8s0,.4,0,.6h-.4l-2.2.4a9.9,9.9,0,0,0-6,4.8,5,5,0,0,0-.7,2.1v-.2a6.7,6.7,0,0,1,1.9-1.6c.4-.3.6-.3,1,.1a3.4,3.4,0,0,1,1.1,1.7.3.3,0,0,1-.1.2l-1.4.9-1.6,1.1.8.6a24,24,0,0,0,4.3,2.3l1.8.7.5.2,1.4.4,1.6.3h.3a11.7,11.7,0,0,0-1.9,2.1l-1.2-.3-1.2-.3Z"/>
            <path class="cls-6" d="M180.5,52.4a11.7,11.7,0,0,1,1.9-2.1h.4l1.6.2h3.6l3.6-.3h.6l2.1-.3,1.8-.3,2.2-.5,2.4-.6-.2-1.2a4.9,4.9,0,0,1,.6-2.8l.3-.2h1l1.2.3a14,14,0,0,0-.5,3.2l.6-.2,2.9-1,3.5-1.5.5-.3,1,1.2h0l-1.8,1-2.7,1.6-1.7,1-2.6,1.8-2.9,2.5a22.5,22.5,0,0,0-1.7,1.9l-.5.8v.3a2.5,2.5,0,0,1,1.7.6,4.1,4.1,0,0,1,1.3,1.9,6.5,6.5,0,0,1,.3.9,3.5,3.5,0,0,1-.5,2.5,8,8,0,0,1-1.5,1.8,17,17,0,0,1-2.7,1.9l-2.5,1.5-3.2,1.8L188.4,71l-1.6,1.6a9.8,9.8,0,0,0-.8,1.3H186a4.9,4.9,0,0,1-1.1-1.2.6.6,0,0,1,0-.7,10.2,10.2,0,0,1,2.4-2.8l2.6-1.8,2.3-1.4,2.5-1.5a12,12,0,0,0,1.7-1.3,1.5,1.5,0,0,0,.1-2.1,3.3,3.3,0,0,0-1.3-1.1l-.7-.2a5.5,5.5,0,0,0-3.4.8L188.5,62l-3.3,2.4a11.2,11.2,0,0,0-2.1,2.4,14.7,14.7,0,0,0-1.6,3.2,16.7,16.7,0,0,0-.8,2.9,20.8,20.8,0,0,0-.3,3.9c0,.4,0,.9.1,1.4l-.3-.3-1.8-2.1-.7-.8a.8.8,0,0,1,0-.5,19.7,19.7,0,0,1,1.5-4.7c.4-.9.9-1.8,1.4-2.6l1.1-1.7,1.9-2.3,1.4-1.5,1.7-1.4,2.2-1.6,2.8-1.7a8.6,8.6,0,0,0,2.8-2.6,5.2,5.2,0,0,0,.9-2.5h-.5l-3.1.5h-1.3L188,53h-4.1l-3.4-.5Z"/>
            <path class="cls-7" d="M191.5,50.3l-3.6.3a2.4,2.4,0,0,0-2.4-1.3,5.6,5.6,0,0,0-2.1.6l-.9.5H182l-1.6-.3-1.4-.4-.5-.2a10.4,10.4,0,0,1,2.4-1.8,13.7,13.7,0,0,1,6.8-1.6c.2,0,.3,0,.4-.2a9.7,9.7,0,0,0,.5-4.6,5.2,5.2,0,0,0-1.7-3.2,8.1,8.1,0,0,0-4.6-1.8H180c0-.2,0-.4,0-.6s0-.5,0-.8h1.5a13.7,13.7,0,0,1,4.3.8,14.3,14.3,0,0,1,5.6,3.7l.2.2h.1l-1-2.9a3.8,3.8,0,0,1,1.7-.5h1a5.1,5.1,0,0,1,.7,2.6,8.2,8.2,0,0,1-.2,1.2l4.7-2.8a27.5,27.5,0,0,1,6.1-2.6A12.8,12.8,0,0,1,208,34h1.2l-1,1.2-.3.5-1.5.2a14.2,14.2,0,0,0-4.8,1.6,19.9,19.9,0,0,0-4.6,3.8,26,26,0,0,0-4.7,7.1Z"/>
            <path class="cls-8" d="M188,53l2.4-.2h.4a17.4,17.4,0,0,1-1.7,3.2,20.8,20.8,0,0,1-4,4.7,18.1,18.1,0,0,1-7.1,3.8h-.1l-.3-3,3.3-.9a12.3,12.3,0,0,0,4.7-2.8,7.3,7.3,0,0,0,2.2-4.2Z"/>
            <path class="cls-9" d="M180.5,52.4h0a2.2,2.2,0,0,0-.7,1.7,1.6,1.6,0,0,0,1.5,1.4,3.7,3.7,0,0,0,1.9-.4h.3l.5.7.5.8a7.4,7.4,0,0,1-3.1,1.6,4.1,4.1,0,0,1-2.5-.2,3.9,3.9,0,0,1-2.6-3.9,5.5,5.5,0,0,1,.7-2.2l1,.2,1.2.3Z"/>
          </g>
        </g>
      </g>
      <g>
        <g>
          <path class="cls-10" d="M358.3,134v0Z"/>
          <path class="cls-10" d="M358.6,137.3Z"/>
          <path class="cls-10" d="M358.6,137.2h0Z"/>
          <path class="cls-10" d="M358.3,134.7v0Z"/>
          <path class="cls-10" d="M358.5,136.3v0Z"/>
          <path class="cls-10" d="M358.2,133.6h0v.3h0v.1h0v-.5h0Z"/>
          <path class="cls-10" d="M358.2,133.5c-.5-5.6-.2-12.5-4.7-16.9l-3.3-3.8c-2.7-3.1-4.9-6.3-7.5-8.8-6.6-6.4-23.1-7.8-26.4,3.2l-.4-.3c-1.7-1.9-4.2-6.6-6.1-8.2s-3.3,1-6.1.7c-7-.6-8.8-.2-9.1,7l-.5-.4c-2.8-3.2-4.1-8.4-7.7-8.4h.3c-3.3.3-8.5,2.4-11.6,3.9a7.9,7.9,0,0,0-4.6,5.2l-.8-.6c-1.6-1.9-3.2-5.8-5-6.5-3.6-1.4-9.4,2.5-12.9,4.1s-6,8.2-5.9,12.1l-1.4-1.3c-2.2-2.6-4.5-6.5-6.9-8.7-5.4-5.7-13.7,1-20.3,2.3-8.8,1.7-7.1,7.9-7.1,14.4l-1-1c-2-2.4-4.2-6.1-6.4-8.2-8.4-8-25.9-1.7-28.4,10.3-1.5-1.4-2.8-4.8-4.4-6.1-3.2-3.6-7.5.9-11.7,2.2s-8.3,2.4-11.8,4.3-2.8,5.5-2.8,8.7l-.6-.5c-1.8-1.9-3.2-5.3-5.2-6.9s-10.3,2.3-12.9,4.3,1.7,10.3.5,14.4-12.8-10.4-14-11.4c-2.6-3.1-7.9,1.9-12.7,3.3s-3.3,11.2-3.2,16.2l-1-.9c-1.9-2.3-3.6-6.2-5.7-8.2-7.2-7.7-21.6-2.4-25.6,7.7a5.4,5.4,0,0,1-.8-.6c-1.7-2.2-2.1-4.7-4.5-6.1s-6.4-.5-8.8-.6c-5.4-.1-11,1-15.5,4.1-7.4,5.1-8.1,14.9-9,23.1-1.3,12.8-3.3,27.7,6.7,36.9l2.7,2.6a26.2,26.2,0,0,0,2.5,2.6c6.3,6.4,14.7,10.4,24.4,8a18.2,18.2,0,0,0,8.5-4.4c2.9-2.9,3.8-6.9,7.7-8.8s8.3-1.4,12.4-1.9a9.1,9.1,0,0,0,2.4-.7l-.5,1.5c-1.1,4.8-1.3,9.8-1.6,14.7-.6,8-3.7,18.3.8,25.5a39.5,39.5,0,0,0,6.7,7.7c2.4,2.8,6.9,5.1,9.3,7.5,6,6.2,16.8,6.1,24.1,2.2,3.1-1.6,6.5-4.7,7.3-8.2s1.4-8,7-6.9,8.4-.6,12.6-1.9,9.1-2,13.6-3.2,7.8-3.5,12.4-4.2,11.3-2.2,16.9-3.5c7.2-1.7,14.4-2.4,21.7-3.2s15.4-4.2,23.4-5.2,16.8-1.7,25.2-2.8c6.6-.8,16.5.2,21.3-5.4s1.7-14.7-.8-20.3c-1.7-3.8-.8-5.9,1.9-8.8s2.1-4.9,2.2-7.8c.2-4.9-.5-8.7-4.1-11.8l-3.1-3.1c-8.1-8.3,21.1-8,25.3-8.1a103.9,103.9,0,0,1,23.7,1.6c4.2.9,8.4,2.1,12.7,2.4,6.2.4,6.8-2.6,7.5-8.3A101.4,101.4,0,0,0,358.2,133.5Zm0,0Z"/>
          <path class="cls-10" d="M358.3,133.8v0Z"/>
          <path class="cls-10" d="M358.3,134.3h0Z"/>
          <path class="cls-10" d="M358.3,134.7v.6h0v-.5Z"/>
        </g>
        <g>
          <path class="cls-11" d="M124.8,190.1c-1.2-1.1-4.1-1.8-6-1.7a32.3,32.3,0,0,0-9.9,1.3c-2.6.7-2.5.9-4.7,1.6-9.2,2.9-13.8,8.8-15,40-.1,3.5.6,9.8,2.5,14a14.3,14.3,0,0,0,9.4,7.6,25.5,25.5,0,0,0,14.6-1.3,16.9,16.9,0,0,0,8.6-7.5c1.9-3.6,1.3-7.1,1.7-10.9a17.5,17.5,0,0,1,.4-3.2c.3-1.6.1-2.6.3-4.2.5-4.4-.1-7.3-1.1-8.7-2.2-3.2-8.7-1.4-13,.4s.2,7.5.9,9.5.2,10.6-3.9,10.5a5,5,0,0,1-3.9-2.5c-2.4-3.9-1.3-12-.9-16.4s.9-12.9,6-15.1c3.2-1.4,4.8,2.1,6.3,4s1.8,2.7,3.3,3.1,3.6-1.3,4-2.8a30.6,30.6,0,0,0,.7-5.4c.2-2.1.6-4.3.6-6.4S126.4,191.7,124.8,190.1Z"/>
          <path class="cls-11" d="M95.7,142.1a186.7,186.7,0,0,1-.4,26.4,94,94,0,0,0-.9,10.3c0,4,.9,7.2,5.5,5.6s9.6-3,15.4-5.1c3.7-1.4,1.9-8.8,2.4-13.1s-1.6-5-4.1-3.1-5.8,6.1-5.9,3.2c-.3-5.5,1.1-13.5,2.1-18.8s5.2-16.8-3-14.4C100.2,134.9,95.3,134.2,95.7,142.1Z"/>
          <path class="cls-11" d="M55,143.8c-7.3-1.7-16.9.3-22.4,5s-6.2,9.8-7,15.1c-1.8,11.2-2.4,23.7,2.4,36.3,3.9,10.5,21.6,9.5,28.4,2.8,3.6-3.5,2.6-10.3,2.7-14.8s-1.8-8.5-6-3.7c-2.5,2.8-8.3,11.5-11,3.7-1.7-4.8-1.4-9.2-1.3-14s0-7.8,1.9-11.9c3.4-7.7,5.9-.1,8.8,1.7s5.6-6.6,6.1-8.3c1-3.6,3.9-10.5-2.4-11.9Z"/>
          <path class="cls-11" d="M127,176.2c2.6-.8,4.6-1,7.3-2.5s1.1-12,1.2-15.8c.3-6.6,1.7-13.2,1.7-19.8,0-2.7,2.9-11.1-.8-12.5s-9.1,1.3-10.9,2.8-1.6,11.8-2,15.5c-.8,7.2-.6,14.3-.9,21.5-.2,4.2-2.8,13.1,4.5,10.8Z"/>
          <path class="cls-11" d="M297.1,146.6h.8c1.6-.1,3.1.3,4.7.3a5.8,5.8,0,0,0,2.3-.4c1.7-.8,1.7-3.6,1.7-5.2s-.1-5-.2-7.5-.2-2.5-.1-3.7a175.2,175.2,0,0,1,1.7-18.5c1-7.3,3-12.3-1.3-12.7-2.7-.2-8.6-1.1-10.3.2s-1.5,10.5-1.9,14.1c-.8,7-.6,14.1-.9,21.3-.1,3.4-1.6,6.6-.5,10S295.5,146.7,297.1,146.6Z"/>
          <path class="cls-11" d="M283.4,98.8c-2.5.2-4.6.1-7,.3-4.6.3-4.6,1.9-5.4,6.3-1.6,8-3.7,8.6-4.7,3.7-.4-1.8-.3-7.7-2.3-8.5-3.6-1.4-9.3.3-13.2.5s-4.4,2.1-4.5,9.1-.3,21.9-.7,29.9-2.1,11,5.2,9.7c2.2-.4,8.1.3,9.2-2.3s-.5-7.1-.7-9.3c-.4-5.1-1.2-16.8.9-17.5s2.2,8.3,2.4,9.6.1,7.6,2.8,8.4,3.8-3,4.5-5.4,1.6-13.3,4.9-13.4-.3,15.5-.5,17.2c-.8,5.3-1.6,10.8,2.5,10.4s5.8.2,9.1-.9,1.7-5.8,1.8-7.7c.6-9.1.2-18.5,1.2-27.7s1.6-12.9-5.3-12.4Z"/>
          <path class="cls-11" d="M167.2,131.9c2.8.5,3-3.2,3.1-5.1a37.4,37.4,0,0,0-.3-3.9c-.2-1.7.2-3.8-1.4-5.2s-2.3-.7-3.7-.5c-4.2.8-8.4,2.6-12.8,3.3-2.1.4-6,.3-7.3,2.2s-1,5.1-.9,6.9a41.9,41.9,0,0,1-.1,6.2c-.7,10.1-2.2,18.2-2.3,26.4,0,2.5-2.2,9.9,2.8,8.9,2.3-.5,7.1-2.2,9.4-2.9,5.8-1.8-4.8-16.8,5.6-18.7,4.1-.7,5.6-1.4,6.1-5.4.2-1.7,1.2-5.7-.3-6.7s-4.8,1.2-7.5,1.3-1.4-5.1-.8-7.8C158,125.5,163.6,131.3,167.2,131.9Z"/>
          <path class="cls-11" d="M344.7,120h0c-.7-7.6-.2-16.9-9.1-19-3.1-.7-6.3-.8-9.5-1.2s-4.6-.3-6.2.9a8.3,8.3,0,0,0-2.5,3.3,25.4,25.4,0,0,0-1.7,7.8c-.6,3-1.4,8.9-1.8,11.9-.6,4.7-6,23.1-.1,23,2.1,0,10.5,2.1,10.9-.9.8-4.7-.1-7.1,0-11.1s2.1-4.5,5.4-3.3,1.5,5.6.9,8.6-1.9,5.2-.6,7.3,2.5,1.4,4.1,1.6,7.8,2,8.6-.9C345.4,140.1,345.5,128.6,344.7,120ZM333,121.5c-.4,2.6-3.7,2.6-5.5,1.3s-.7-3.9,1.5-11.1,4.1,2.2,4.1,6.2A12.9,12.9,0,0,1,333,121.5Z"/>
          <path class="cls-11" d="M163.8,198.3c-.1-.9.6,4,0-.5-1.1-9.1-.7-18.1-10.3-17.1-3.3.3-6.6,1.5-9.9,2.2s-4.7,1.4-6.3,3.3a13.2,13.2,0,0,0-2.4,4.4,32.5,32.5,0,0,0-1.2,8.9c-.4,3.3-.9,9.8-1.1,13.1-.4,5.1-3,23.4,2.2,23.3,2.1-.3,10.5-1.4,10.9-4.5.5-5-1.3-7.2-1.4-11.2s1.9-5.3,5.3-5.2,2.2,5.3,1.8,8.5-1.7,5.9-.2,7.6,2.2.6,3.8.2,8.4-1.5,9-4.7C165.7,217.6,164.8,207.1,163.8,198.3Zm-12,5.3c-.3,2.9-3.6,4.1-5.6,3.3s-.9-3.9,1-12.2,4.3.9,4.5,5A13.9,13.9,0,0,1,151.8,203.6Z"/>
          <path class="cls-11" d="M90.7,172.3c-.3-8.3,2.7-29.8-8.5-31.3-5.1-.7-11.1.4-15,3.9s-4.5,11.3-5.3,17c-1.2,8.7-1.6,29.4,9,30.6,13.1,1.5,20.2-7.5,19.8-20.1Zm-12.2-12c-.1.6.1-2.3,0,0-.2,5.5.3,11.4-.6,16.8s-4.4,2.7-4.4-1.9c0-6.1-.4-12.5.5-18.6.2-1.1,1-3.7,2.8-3.8S78.7,158.9,78.5,160.3Z"/>
          <path class="cls-11" d="M227.5,150a4.4,4.4,0,0,0,1,1.8c1.5,1.6,4.3.7,6.1.4s8.4.3,6.5-5.3c-2-14.2-10-13.3-6.5-15.9,6.2-4.5,7.6-20.1,1.4-24.9s-9-1.7-14.3-.6-6.2.3-10.1,2.3-1.7,8-1.4,11a63,63,0,0,1-.4,12.3c-.6,5.6-1.2,11-1.2,16.5,0,2.7-1.7,9.1,2.1,8.4,1.6-.3,3.3-.3,4.9-.7s4.1-.4,5.2-2,.9-3.1.9-4.4c.1-3-.6-6.1-.2-9.1s2.8-5.9,4.2-.2a45.6,45.6,0,0,1,1.3,6.5A16.7,16.7,0,0,0,227.5,150Zm-3.4-23.9c-2.8,1.2-2.5-1.3-2.1-4.3.2-1.6-.2-5.8,1-6.8,4.7-4.3,6.6,8.8,1.1,11.2Z"/>
          <path class="cls-11" d="M204.5,142.1c0-8.2,4-29.1-8.2-31-5.5-.9-12.2,0-16.6,3.2s-5.3,10.9-6.3,16.4c-1.6,8.5-2.7,28.7,8.7,30.3,14.2,1.9,22.3-6.6,22.3-18.9C204.5,139.8,204.5,150.4,204.5,142.1Zm-12.9-12.2c-.1.6.2-2.3,0,0-.4,5.3-.1,11.2-1.2,16.4s-4.9,2.5-4.8-2,0-12.3,1.2-18.2c.2-1.1,1.2-3.6,3.2-3.6S191.8,128.5,191.6,129.9Z"/>
          <path class="cls-11" d="M208.6,167.7c-2.6.6-4.8.8-7.4,1.4-4.8,1-4.7,2.6-5.5,7-1.4,8.3-3.6,10.1-4.8,5.3-.4-1.8-.5-8.5-2.6-9-3.7-.9-9.4,1.6-13.3,2.4s-4.4,3.5-4.4,10.5-.3,22.2-.7,30.6-2.2,11.9,5.5,9.9c2.3-.6,8.5-.4,9.7-3.4s-.6-7.6-.9-10c-.5-5.3-1.5-17.4.6-18.4s2.4,8.3,2.7,9.6.3,8,3.1,8.6,4-3.7,4.6-6.3,1.3-14.1,4.8-14.7.2,16.4,0,18.2c-.7,5.9-1.4,11.9,3.1,11.1s6.5-.4,10.2-1.9,1.6-6.6,1.7-8.7c.1-10-.8-20.8-.2-30.5s1-13.4-6.3-11.7Z"/>
          <path class="cls-11" d="M245.9,195.3c-3.7,1.8-9.4,7.8-11.2,4s-1.1-6.2,4.4-6.9,5.9-1.1,6.2-5.1c.2-1.7,1-5.1-.6-6.1s-5,1-7.9,1-1.8-3.7-1.2-6.4c1-5.4,7.3.5,11,1.2s3.1-3,3-4.9-.3-3-.5-4.3,0-3.7-1.7-5.1-2.5-.8-3.9-.6c-4.4.6-8.9,2.2-13.4,2.8-2.2.3-6.4.1-7.7,1.9s-.9,5.4-.6,7.2a38.2,38.2,0,0,1,.1,6.1c-.1,4.9-.6,9.7-.9,14.6a55.1,55.1,0,0,0-.3,6.5c.2,3.2-.6,6.6-.1,9.7.3,1.6.6,3.2,1.9,4.1,2.9,1.9,7.1-.2,10.1-.6s7.6-.5,11.4-1.2c1.5-.3,2.9-.5,4.1-1.9s1.2-3.8,1.3-5.6.2-5.3.1-6.6S249,193.7,245.9,195.3Z"/>
          <path class="cls-11" d="M280.6,190.5c-1.5-4.8-5-7-6.5-9.1s-1.7-2.2-2-4.6-.4-4.1,1.4-5,3,1.1,4.1,2.2,3.4,2.2,4.7,1.3,1-4.3,1-5.8a37.4,37.4,0,0,0-.2-3.9c-.1-1.8.3-3.8-1.3-5.4s-2.4-1.1-3.8-1.1c-4.8.1-16.1-.3-19.4,3.7s-3.6,6.2-3.1,11.6a21.7,21.7,0,0,0,4.5,12.1c.9,1.1,1.9,2.2,2.7,3.3s2.2,4.6,1.2,6.5-2.6,1.3-3.9.1-1.2-1.6-1.9-2.2c-2.4-2.1-4.1-1-4.2,1.9a51.7,51.7,0,0,0,.5,10,8.6,8.6,0,0,0,1.6,4.4c1.5,1.8,3.3,1.2,5.3.9,3.7-.7,7.4-.7,11.1-1.1s8.3-3,9.4-6.9S281.9,194.5,280.6,190.5Z"/>
        </g>
        <g>
          <path class="cls-12" d="M124.8,190.1c-1.2-1.1-4.1-1.8-6-1.7a32.3,32.3,0,0,0-9.9,1.3c-2.6.7-2.5.9-4.7,1.6-9.2,2.9-13.8,8.8-15,40-.1,3.5.6,9.8,2.5,14a14.3,14.3,0,0,0,9.4,7.6,25.5,25.5,0,0,0,14.6-1.3,16.9,16.9,0,0,0,8.6-7.5c1.9-3.6,1.3-7.1,1.7-10.9a17.5,17.5,0,0,1,.4-3.2c.3-1.6.1-2.6.3-4.2.5-4.4-.1-7.3-1.1-8.7-2.2-3.2-8.7-1.4-13,.4s.2,7.5.9,9.5.2,10.6-3.9,10.5a5,5,0,0,1-3.9-2.5c-2.4-3.9-1.3-12-.9-16.4s.9-12.9,6-15.1c3.2-1.4,4.8,2.1,6.3,4s1.8,2.7,3.3,3.1,3.6-1.3,4-2.8a30.6,30.6,0,0,0,.7-5.4c.2-2.1.6-4.3.6-6.4S126.4,191.7,124.8,190.1Z"/>
          <path class="cls-13" d="M95.7,142.1a186.7,186.7,0,0,1-.4,26.4,94,94,0,0,0-.9,10.3c0,4,.9,7.2,5.5,5.6s9.6-3,15.4-5.1c3.7-1.4,1.9-8.8,2.4-13.1s-1.6-5-4.1-3.1-5.8,6.1-5.9,3.2c-.3-5.5,1.1-13.5,2.1-18.8s5.2-16.8-3-14.4C100.2,134.9,95.3,134.2,95.7,142.1Z"/>
          <path class="cls-14" d="M55,143.8c-7.3-1.7-16.9.3-22.4,5s-6.2,9.8-7,15.1c-1.8,11.2-2.4,23.7,2.4,36.3,3.9,10.5,21.6,9.5,28.4,2.8,3.6-3.5,2.6-10.3,2.7-14.8s-1.8-8.5-6-3.7c-2.5,2.8-8.3,11.5-11,3.7-1.7-4.8-1.4-9.2-1.3-14s0-7.8,1.9-11.9c3.4-7.7,5.9-.1,8.8,1.7s5.6-6.6,6.1-8.3c1-3.6,3.9-10.5-2.4-11.9Z"/>
          <path class="cls-15" d="M127,176.2c2.6-.8,4.6-1,7.3-2.5s1.1-12,1.2-15.8c.3-6.6,1.7-13.2,1.7-19.8,0-2.7,2.9-11.1-.8-12.5s-9.1,1.3-10.9,2.8-1.6,11.8-2,15.5c-.8,7.2-.6,14.3-.9,21.5-.2,4.2-2.8,13.1,4.5,10.8Z"/>
          <path class="cls-16" d="M297.1,146.6h.8c1.6-.1,3.1.3,4.7.3a5.8,5.8,0,0,0,2.3-.4c1.7-.8,1.7-3.6,1.7-5.2s-.1-5-.2-7.5-.2-2.5-.1-3.7a175.2,175.2,0,0,1,1.7-18.5c1-7.3,3-12.3-1.3-12.7-2.7-.2-8.6-1.1-10.3.2s-1.5,10.5-1.9,14.1c-.8,7-.6,14.1-.9,21.3-.1,3.4-1.6,6.6-.5,10S295.5,146.7,297.1,146.6Z"/>
          <path class="cls-17" d="M283.4,98.8c-2.5.2-4.6.1-7,.3-4.6.3-4.6,1.9-5.4,6.3-1.6,8-3.7,8.6-4.7,3.7-.4-1.8-.3-7.7-2.3-8.5-3.6-1.4-9.3.3-13.2.5s-4.4,2.1-4.5,9.1-.3,21.9-.7,29.9-2.1,11,5.2,9.7c2.2-.4,8.1.3,9.2-2.3s-.5-7.1-.7-9.3c-.4-5.1-1.2-16.8.9-17.5s2.2,8.3,2.4,9.6.1,7.6,2.8,8.4,3.8-3,4.5-5.4,1.6-13.3,4.9-13.4-.3,15.5-.5,17.2c-.8,5.3-1.6,10.8,2.5,10.4s5.8.2,9.1-.9,1.7-5.8,1.8-7.7c.6-9.1.2-18.5,1.2-27.7s1.6-12.9-5.3-12.4Z"/>
          <path class="cls-18" d="M167.2,131.9c2.8.5,3-3.2,3.1-5.1a37.4,37.4,0,0,0-.3-3.9c-.2-1.7.2-3.8-1.4-5.2s-2.3-.7-3.7-.5c-4.2.8-8.4,2.6-12.8,3.3-2.1.4-6,.3-7.3,2.2s-1,5.1-.9,6.9a41.9,41.9,0,0,1-.1,6.2c-.7,10.1-2.2,18.2-2.3,26.4,0,2.5-2.2,9.9,2.8,8.9,2.3-.5,7.1-2.2,9.4-2.9,5.8-1.8-4.8-16.8,5.6-18.7,4.1-.7,5.6-1.4,6.1-5.4.2-1.7,1.2-5.7-.3-6.7s-4.8,1.2-7.5,1.3-1.4-5.1-.8-7.8C158,125.5,163.6,131.3,167.2,131.9Z"/>
          <path class="cls-19" d="M344.7,120h0c-.7-7.6-.2-16.9-9.1-19-3.1-.7-6.3-.8-9.5-1.2s-4.6-.3-6.2.9a8.3,8.3,0,0,0-2.5,3.3,25.4,25.4,0,0,0-1.7,7.8c-.6,3-1.4,8.9-1.8,11.9-.6,4.7-6,23.1-.1,23,2.1,0,10.5,2.1,10.9-.9.8-4.7-.1-7.1,0-11.1s2.1-4.5,5.4-3.3,1.5,5.6.9,8.6-1.9,5.2-.6,7.3,2.5,1.4,4.1,1.6,7.8,2,8.6-.9C345.4,140.1,345.5,128.6,344.7,120ZM333,121.5c-.4,2.6-3.7,2.6-5.5,1.3s-.7-3.9,1.5-11.1,4.1,2.2,4.1,6.2A12.9,12.9,0,0,1,333,121.5Z"/>
          <path class="cls-20" d="M163.8,198.3c-.1-.9.6,4,0-.5-1.1-9.1-.7-18.1-10.3-17.1-3.3.3-6.6,1.5-9.9,2.2s-4.7,1.4-6.3,3.3a13.2,13.2,0,0,0-2.4,4.4,32.5,32.5,0,0,0-1.2,8.9c-.4,3.3-.9,9.8-1.1,13.1-.4,5.1-3,23.4,2.2,23.3,2.1-.3,10.5-1.4,10.9-4.5.5-5-1.3-7.2-1.4-11.2s1.9-5.3,5.3-5.2,2.2,5.3,1.8,8.5-1.7,5.9-.2,7.6,2.2.6,3.8.2,8.4-1.5,9-4.7C165.7,217.6,164.8,207.1,163.8,198.3Zm-12,5.3c-.3,2.9-3.6,4.1-5.6,3.3s-.9-3.9,1-12.2,4.3.9,4.5,5A13.9,13.9,0,0,1,151.8,203.6Z"/>
          <path class="cls-21" d="M90.7,172.3c-.3-8.3,2.7-29.8-8.5-31.3-5.1-.7-11.1.4-15,3.9s-4.5,11.3-5.3,17c-1.2,8.7-1.6,29.4,9,30.6,13.1,1.5,20.2-7.5,19.8-20.1Zm-12.2-12c-.1.6.1-2.3,0,0-.2,5.5.3,11.4-.6,16.8s-4.4,2.7-4.4-1.9c0-6.1-.4-12.5.5-18.6.2-1.1,1-3.7,2.8-3.8S78.7,158.9,78.5,160.3Z"/>
          <path class="cls-22" d="M227.5,150a4.4,4.4,0,0,0,1,1.8c1.5,1.6,4.3.7,6.1.4s8.4.3,6.5-5.3c-2-14.2-10-13.3-6.5-15.9,6.2-4.5,7.6-20.1,1.4-24.9s-9-1.7-14.3-.6-6.2.3-10.1,2.3-1.7,8-1.4,11a63,63,0,0,1-.4,12.3c-.6,5.6-1.2,11-1.2,16.5,0,2.7-1.7,9.1,2.1,8.4,1.6-.3,3.3-.3,4.9-.7s4.1-.4,5.2-2,.9-3.1.9-4.4c.1-3-.6-6.1-.2-9.1s2.8-5.9,4.2-.2a45.6,45.6,0,0,1,1.3,6.5A16.7,16.7,0,0,0,227.5,150Zm-3.4-23.9c-2.8,1.2-2.5-1.3-2.1-4.3.2-1.6-.2-5.8,1-6.8,4.7-4.3,6.6,8.8,1.1,11.2Z"/>
          <path class="cls-23" d="M204.5,142.1c0-8.2,4-29.1-8.2-31-5.5-.9-12.2,0-16.6,3.2s-5.3,10.9-6.3,16.4c-1.6,8.5-2.7,28.7,8.7,30.3,14.2,1.9,22.3-6.6,22.3-18.9C204.5,139.8,204.5,150.4,204.5,142.1Zm-12.9-12.2c-.1.6.2-2.3,0,0-.4,5.3-.1,11.2-1.2,16.4s-4.9,2.5-4.8-2,0-12.3,1.2-18.2c.2-1.1,1.2-3.6,3.2-3.6S191.8,128.5,191.6,129.9Z"/>
          <path class="cls-24" d="M208.6,167.7c-2.6.6-4.8.8-7.4,1.4-4.8,1-4.7,2.6-5.5,7-1.4,8.3-3.6,10.1-4.8,5.3-.4-1.8-.5-8.5-2.6-9-3.7-.9-9.4,1.6-13.3,2.4s-4.4,3.5-4.4,10.5-.3,22.2-.7,30.6-2.2,11.9,5.5,9.9c2.3-.6,8.5-.4,9.7-3.4s-.6-7.6-.9-10c-.5-5.3-1.5-17.4.6-18.4s2.4,8.3,2.7,9.6.3,8,3.1,8.6,4-3.7,4.6-6.3,1.3-14.1,4.8-14.7.2,16.4,0,18.2c-.7,5.9-1.4,11.9,3.1,11.1s6.5-.4,10.2-1.9,1.6-6.6,1.7-8.7c.1-10-.8-20.8-.2-30.5s1-13.4-6.3-11.7Z"/>
          <path class="cls-25" d="M245.9,195.3c-3.7,1.8-9.4,7.8-11.2,4s-1.1-6.2,4.4-6.9,5.9-1.1,6.2-5.1c.2-1.7,1-5.1-.6-6.1s-5,1-7.9,1-1.8-3.7-1.2-6.4c1-5.4,7.3.5,11,1.2s3.1-3,3-4.9-.3-3-.5-4.3,0-3.7-1.7-5.1-2.5-.8-3.9-.6c-4.4.6-8.9,2.2-13.4,2.8-2.2.3-6.4.1-7.7,1.9s-.9,5.4-.6,7.2a38.2,38.2,0,0,1,.1,6.1c-.1,4.9-.6,9.7-.9,14.6a55.1,55.1,0,0,0-.3,6.5c.2,3.2-.6,6.6-.1,9.7.3,1.6.6,3.2,1.9,4.1,2.9,1.9,7.1-.2,10.1-.6s7.6-.5,11.4-1.2c1.5-.3,2.9-.5,4.1-1.9s1.2-3.8,1.3-5.6.2-5.3.1-6.6S249,193.7,245.9,195.3Z"/>
          <path class="cls-26" d="M280.6,190.5c-1.5-4.8-5-7-6.5-9.1s-1.7-2.2-2-4.6-.4-4.1,1.4-5,3,1.1,4.1,2.2,3.4,2.2,4.7,1.3,1-4.3,1-5.8a37.4,37.4,0,0,0-.2-3.9c-.1-1.8.3-3.8-1.3-5.4s-2.4-1.1-3.8-1.1c-4.8.1-16.1-.3-19.4,3.7s-3.6,6.2-3.1,11.6a21.7,21.7,0,0,0,4.5,12.1c.9,1.1,1.9,2.2,2.7,3.3s2.2,4.6,1.2,6.5-2.6,1.3-3.9.1-1.2-1.6-1.9-2.2c-2.4-2.1-4.1-1-4.2,1.9a51.7,51.7,0,0,0,.5,10,8.6,8.6,0,0,0,1.6,4.4c1.5,1.8,3.3,1.2,5.3.9,3.7-.7,7.4-.7,11.1-1.1s8.3-3,9.4-6.9S281.9,194.5,280.6,190.5Z"/>
        </g>
        <g class="cls-27">
          <path class="cls-28" d="M358.6,117.8c4.5-5,9.8,4.5,10.2,8.2A28,28,0,0,1,358,150.7c-10,7.6-22.9,7.8-34.8,8.4-23.7,1.1-47.7.1-71.5.5a403.9,403.9,0,0,0-61.7,5.9c-19.8,3.5-39.6,4.9-59.2,9.6a188.4,188.4,0,0,0-40.3,14.4c-11.2,5.5-21.1,13.6-32,19.6C45.1,216.5.2,252,0,215.1c0-5.9.7-11,4.2-16A29.5,29.5,0,0,1,15.9,189c4.2-2,8.6-1.7,12.7-3.5,6.7-2.9,10.9-12.8,19-12.2,1.9,4.6-2.9,15.5,6.2,9.1,7.5-5.2,14.1-19.7,24.6-19.9,1.1,2.7-1.1,6.6,1.3,8.8,5.9,5.2,15.3-5.4,18.5-8.9a74.2,74.2,0,0,1,12.6-11.6c2.1-1.5,6-4.6,8.8-4.8s3.1,3.8,6,5.3c6.8,3.5,13.9-8.9,21.3-5.8.8.3,1.4,1.8,2.5,2.2,3.1,1.2,6.6-1.1,9.2-2.5,4.7-2.6,9.1-6,13.8-8.4a6.1,6.1,0,0,1,2.7-1c5.4-.2,4.7,1.5,8.1,4.4,9,7.8,22.2-8,30-10,1.7-2.3,8.6-4.8,11.3-3.4s1,5.2,2.7,7,3.8.8,5.4.3c7-2,13.8-6.9,20-10.6a82.1,82.1,0,0,1,14.2-7.2c3.1-1.1,8.4-2.2,10.8.9s-.8,7.8,1.7,10.9,15.1-.5,17.5-1.2c4.6-1.4,8.7-4,13-6.2s7.6-5.2,10.9-3.9,1.9,5.3,5.1,6.3,9.2-1.6,12.3-2.8,7.2-3.8,11.3-4.9c2.3-.6,17.5-4.1,17.9.3"/>
        </g>
        <path class="cls-29" d="M95.7,142.1a186.7,186.7,0,0,1-.4,26.4,94,94,0,0,0-.9,10.3c0,4,.9,7.2,5.5,5.6s9.6-3,15.4-5.1c3.7-1.4,1.9-8.8,2.4-13.1s-1.6-5-4.1-3.1-5.8,6.1-5.9,3.2c-.3-5.5,1.1-13.5,2.1-18.8s5.2-16.8-3-14.4C100.2,134.9,95.3,134.2,95.7,142.1Z"/>
        <path class="cls-29" d="M55,143.8c-7.3-1.7-16.9.3-22.4,5s-6.2,9.8-7,15.1c-1.8,11.2-2.4,23.7,2.4,36.3,3.9,10.5,21.6,9.5,28.4,2.8,3.6-3.5,2.6-10.3,2.7-14.8s-1.8-8.5-6-3.7c-2.5,2.8-8.3,11.5-11,3.7-1.7-4.8-1.4-9.2-1.3-14s0-7.8,1.9-11.9c3.4-7.7,5.9-.1,8.8,1.7s5.6-6.6,6.1-8.3c1-3.6,3.9-10.5-2.4-11.9Z"/>
        <path class="cls-29" d="M127,176.2c2.6-.8,4.6-1,7.3-2.5s1.1-12,1.2-15.8c.3-6.6,1.7-13.2,1.7-19.8,0-2.7,2.9-11.1-.8-12.5s-9.1,1.3-10.9,2.8-1.6,11.8-2,15.5c-.8,7.2-.6,14.3-.9,21.5-.2,4.2-2.8,13.1,4.5,10.8Z"/>
        <path class="cls-29" d="M297.1,146.6h.8c1.6-.1,3.1.3,4.7.3a5.8,5.8,0,0,0,2.3-.4c1.7-.8,1.7-3.6,1.7-5.2s-.1-5-.2-7.5-.2-2.5-.1-3.7a175.2,175.2,0,0,1,1.7-18.5c1-7.3,3-12.3-1.3-12.7-2.7-.2-8.6-1.1-10.3.2s-1.5,10.5-1.9,14.1c-.8,7-.6,14.1-.9,21.3-.1,3.4-1.6,6.6-.5,10S295.5,146.7,297.1,146.6Z"/>
        <path class="cls-29" d="M283.4,98.8c-2.5.2-4.6.1-7,.3-4.6.3-4.6,1.9-5.4,6.3-1.6,8-3.7,8.6-4.7,3.7-.4-1.8-.3-7.7-2.3-8.5-3.6-1.4-9.3.3-13.2.5s-4.4,2.1-4.5,9.1-.3,21.9-.7,29.9-2.1,11,5.2,9.7c2.2-.4,8.1.3,9.2-2.3s-.5-7.1-.7-9.3c-.4-5.1-1.2-16.8.9-17.5s2.2,8.3,2.4,9.6.1,7.6,2.8,8.4,3.8-3,4.5-5.4,1.6-13.3,4.9-13.4-.3,15.5-.5,17.2c-.8,5.3-1.6,10.8,2.5,10.4s5.8.2,9.1-.9,1.7-5.8,1.8-7.7c.6-9.1.2-18.5,1.2-27.7s1.6-12.9-5.3-12.4Z"/>
        <path class="cls-29" d="M167.2,131.9c2.8.5,3-3.2,3.1-5.1a37.4,37.4,0,0,0-.3-3.9c-.2-1.7.2-3.8-1.4-5.2s-2.3-.7-3.7-.5c-4.2.8-8.4,2.6-12.8,3.3-2.1.4-6,.3-7.3,2.2s-1,5.1-.9,6.9a41.9,41.9,0,0,1-.1,6.2c-.7,10.1-2.2,18.2-2.3,26.4,0,2.5-2.2,9.9,2.8,8.9,2.3-.5,7.1-2.2,9.4-2.9,5.8-1.8-4.8-16.8,5.6-18.7,4.1-.7,5.6-1.4,6.1-5.4.2-1.7,1.2-5.7-.3-6.7s-4.8,1.2-7.5,1.3-1.4-5.1-.8-7.8C158,125.5,163.6,131.3,167.2,131.9Z"/>
        <path class="cls-29" d="M344.7,120h0c-.7-7.6-.2-16.9-9.1-19-3.1-.7-6.3-.8-9.5-1.2s-4.6-.3-6.2.9a8.3,8.3,0,0,0-2.5,3.3,25.4,25.4,0,0,0-1.7,7.8c-.6,3-1.4,8.9-1.8,11.9-.6,4.7-6,23.1-.1,23,2.1,0,10.5,2.1,10.9-.9.8-4.7-.1-7.1,0-11.1s2.1-4.5,5.4-3.3,1.5,5.6.9,8.6-1.9,5.2-.6,7.3,2.5,1.4,4.1,1.6,7.8,2,8.6-.9C345.4,140.1,345.5,128.6,344.7,120ZM333,121.5c-.4,2.6-3.7,2.6-5.5,1.3s-.7-3.9,1.5-11.1,4.1,2.2,4.1,6.2A12.9,12.9,0,0,1,333,121.5Z"/>
        <path class="cls-29" d="M90.7,172.3c-.3-8.3,2.7-29.8-8.5-31.3-5.1-.7-11.1.4-15,3.9s-4.5,11.3-5.3,17c-1.2,8.7-1.6,29.4,9,30.6,13.1,1.5,20.2-7.5,19.8-20.1Zm-12.2-12c-.1.6.1-2.3,0,0-.2,5.5.3,11.4-.6,16.8s-4.4,2.7-4.4-1.9c0-6.1-.4-12.5.5-18.6.2-1.1,1-3.7,2.8-3.8S78.7,158.9,78.5,160.3Z"/>
        <path class="cls-29" d="M227.5,150a4.4,4.4,0,0,0,1,1.8c1.5,1.6,4.3.7,6.1.4s8.4.3,6.5-5.3c-2-14.2-10-13.3-6.5-15.9,6.2-4.5,7.6-20.1,1.4-24.9s-9-1.7-14.3-.6-6.2.3-10.1,2.3-1.7,8-1.4,11a63,63,0,0,1-.4,12.3c-.6,5.6-1.2,11-1.2,16.5,0,2.7-1.7,9.1,2.1,8.4,1.6-.3,3.3-.3,4.9-.7s4.1-.4,5.2-2,.9-3.1.9-4.4c.1-3-.6-6.1-.2-9.1s2.8-5.9,4.2-.2a45.6,45.6,0,0,1,1.3,6.5A16.7,16.7,0,0,0,227.5,150Zm-3.4-23.9c-2.8,1.2-2.5-1.3-2.1-4.3.2-1.6-.2-5.8,1-6.8,4.7-4.3,6.6,8.8,1.1,11.2Z"/>
        <path class="cls-29" d="M204.5,142.1c0-8.2,4-29.1-8.2-31-5.5-.9-12.2,0-16.6,3.2s-5.3,10.9-6.3,16.4c-1.6,8.5-2.7,28.7,8.7,30.3,14.2,1.9,22.3-6.6,22.3-18.9C204.5,139.8,204.5,150.4,204.5,142.1Zm-12.9-12.2c-.1.6.2-2.3,0,0-.4,5.3-.1,11.2-1.2,16.4s-4.9,2.5-4.8-2,0-12.3,1.2-18.2c.2-1.1,1.2-3.6,3.2-3.6S191.8,128.5,191.6,129.9Z"/>
        <g class="cls-30">
          <path class="cls-28" d="M277.2,185.1c-2.1.8-4.4,1.6-6.6,1.3s-4.5-2.1-4.4-4.4.9-2.9.1-4c-2.2-3.3-11.7,7.4-13.5,8.7-9.1,6.5-4.5-10.1-12.5-7.4a43,43,0,0,0-14.7,9.2c-3.3,3.1-5.8,7.1-9.6,9.7s-6.5,1.3-6.5-3.7-1.9-8.8-8.2-5.8-8.4,7-12.3,10.7c-2.3,2.2-4.6,5.1-7.8,5.9-5.3,1.4-2.5-2.1-4.6-4.6s-11.2,2.4-13.6,4.4-12.1,15.5-17.5,12.1c-3.1-2,.2-10-5.5-7.8-2.9,1.1-4.9,3.4-6.7,5.8s-4,7.7-5.2,4.9a8.3,8.3,0,0,1-.3-1.9,4.6,4.6,0,0,0-4.3-3.5,8.2,8.2,0,0,0-5.5,1.9c-5.1,3.9-8.8,10.7-14.2,14-7.1,4.4-2.8-10.3-9.7-7.6a9.8,9.8,0,0,0-3.4,2.7c-2.8,3-8.6,7.1-10.3,10.9s.3,6.6,1.4,9.1A26.1,26.1,0,0,0,97,259.1a88.2,88.2,0,0,0,19.7,3.9c10.8,1.1,20.7-1.2,31.4-2.4,6-.7,12-1.2,17.8-3s11.5-5.7,17.5-7.5c3-.9,6.6-1,8.6-3.7a18.1,18.1,0,0,0-1.9-.9c3.1.6,7.2-3.4,9.6-4.7,12.4-6.9,26.7-10.9,40.7-13.3,8.4-1.5,17.2-3,25.7-3.7s18.8-.5,27.9-2.4c6.5-1.4,8.9-4.9,12.9-9.6,1.7-2,5.7-4.4,5.2-7.5"/>
        </g>
        <path class="cls-29" d="M124.8,190.1c-1.2-1.1-4.1-1.8-6-1.7a32.3,32.3,0,0,0-9.9,1.3c-2.6.7-2.5.9-4.7,1.6-9.2,2.9-13.8,8.8-15,40-.1,3.5.6,9.8,2.5,14a14.3,14.3,0,0,0,9.4,7.6,25.5,25.5,0,0,0,14.6-1.3,16.9,16.9,0,0,0,8.6-7.5c1.9-3.6,1.3-7.1,1.7-10.9a17.5,17.5,0,0,1,.4-3.2c.3-1.6.1-2.6.3-4.2.5-4.4-.1-7.3-1.1-8.7-2.2-3.2-8.7-1.4-13,.4s.2,7.5.9,9.5.2,10.6-3.9,10.5a5,5,0,0,1-3.9-2.5c-2.4-3.9-1.3-12-.9-16.4s.9-12.9,6-15.1c3.2-1.4,4.8,2.1,6.3,4s1.8,2.7,3.3,3.1,3.6-1.3,4-2.8a30.6,30.6,0,0,0,.7-5.4c.2-2.1.6-4.3.6-6.4S126.4,191.7,124.8,190.1Z"/>
        <path class="cls-29" d="M163.8,198.3c-.1-.9.6,4,0-.5-1.1-9.1-.7-18.1-10.3-17.1-3.3.3-6.6,1.5-9.9,2.2s-4.7,1.4-6.3,3.3a13.2,13.2,0,0,0-2.4,4.4,32.5,32.5,0,0,0-1.2,8.9c-.4,3.3-.9,9.8-1.1,13.1-.4,5.1-3,23.4,2.2,23.3,2.1-.3,10.5-1.4,10.9-4.5.5-5-1.3-7.2-1.4-11.2s1.9-5.3,5.3-5.2,2.2,5.3,1.8,8.5-1.7,5.9-.2,7.6,2.2.6,3.8.2,8.4-1.5,9-4.7C165.7,217.6,164.8,207.1,163.8,198.3Zm-12,5.3c-.3,2.9-3.6,4.1-5.6,3.3s-.9-3.9,1-12.2,4.3.9,4.5,5A13.9,13.9,0,0,1,151.8,203.6Z"/>
        <path class="cls-29" d="M208.6,167.7c-2.6.6-4.8.8-7.4,1.4-4.8,1-4.7,2.6-5.5,7-1.4,8.3-3.6,10.1-4.8,5.3-.4-1.8-.5-8.5-2.6-9-3.7-.9-9.4,1.6-13.3,2.4s-4.4,3.5-4.4,10.5-.3,22.2-.7,30.6-2.2,11.9,5.5,9.9c2.3-.6,8.5-.4,9.7-3.4s-.6-7.6-.9-10c-.5-5.3-1.5-17.4.6-18.4s2.4,8.3,2.7,9.6.3,8,3.1,8.6,4-3.7,4.6-6.3,1.3-14.1,4.8-14.7.2,16.4,0,18.2c-.7,5.9-1.4,11.9,3.1,11.1s6.5-.4,10.2-1.9,1.6-6.6,1.7-8.7c.1-10-.8-20.8-.2-30.5s1-13.4-6.3-11.7Z"/>
        <path class="cls-29" d="M245.9,195.3c-3.7,1.8-9.4,7.8-11.2,4s-1.1-6.2,4.4-6.9,5.9-1.1,6.2-5.1c.2-1.7,1-5.1-.6-6.1s-5,1-7.9,1-1.8-3.7-1.2-6.4c1-5.4,7.3.5,11,1.2s3.1-3,3-4.9-.3-3-.5-4.3,0-3.7-1.7-5.1-2.5-.8-3.9-.6c-4.4.6-8.9,2.2-13.4,2.8-2.2.3-6.4.1-7.7,1.9s-.9,5.4-.6,7.2a38.2,38.2,0,0,1,.1,6.1c-.1,4.9-.6,9.7-.9,14.6a55.1,55.1,0,0,0-.3,6.5c.2,3.2-.6,6.6-.1,9.7.3,1.6.6,3.2,1.9,4.1,2.9,1.9,7.1-.2,10.1-.6s7.6-.5,11.4-1.2c1.5-.3,2.9-.5,4.1-1.9s1.2-3.8,1.3-5.6.2-5.3.1-6.6S249,193.7,245.9,195.3Z"/>
        <path class="cls-29" d="M280.6,190.5c-1.5-4.8-5-7-6.5-9.1s-1.7-2.2-2-4.6-.4-4.1,1.4-5,3,1.1,4.1,2.2,3.4,2.2,4.7,1.3,1-4.3,1-5.8a37.4,37.4,0,0,0-.2-3.9c-.1-1.8.3-3.8-1.3-5.4s-2.4-1.1-3.8-1.1c-4.8.1-16.1-.3-19.4,3.7s-3.6,6.2-3.1,11.6a21.7,21.7,0,0,0,4.5,12.1c.9,1.1,1.9,2.2,2.7,3.3s2.2,4.6,1.2,6.5-2.6,1.3-3.9.1-1.2-1.6-1.9-2.2c-2.4-2.1-4.1-1-4.2,1.9a51.7,51.7,0,0,0,.5,10,8.6,8.6,0,0,0,1.6,4.4c1.5,1.8,3.3,1.2,5.3.9,3.7-.7,7.4-.7,11.1-1.1s8.3-3,9.4-6.9S281.9,194.5,280.6,190.5Z"/>
      </g>
    </g>
  </g>
</svg>
