<svg xmlns="http://www.w3.org/2000/svg" width="551.8" height="370.3" viewBox="0 0 551.8 370.3">
  <defs>
    <style>
      .cls-1 {
        fill: #0071bc;
      }

      .cls-2 {
        fill: #fff;
      }

      .cls-3 {
        fill: #a67c52;
      }

      .cls-4 {
        fill: #ffff6f;
      }

      .cls-5 {
        fill: none;
        stroke: #ffff6f;
        stroke-miterlimit: 10;
        stroke-width: 3px;
      }
    </style>
  </defs>
  <title>Asset 4</title>
  <g id="Layer_2" data-name="Layer 2">
    <g id="content">
      <g>
        <path class="cls-1" d="M92.4,258l.7-3.8.9-4.6c.2-.9.3-1.8.6-2.9l.9-3.6c.7-2.5,1.3-5.4,2.2-8.4l3.1-9.5c1.2-3.4,2.7-6.9,4.1-10.6.3-.9.8-1.9,1.2-2.8l1.3-2.8,2.8-5.8,3.3-5.9c1.1-2,2.2-4.1,3.6-6l4-6.1,1-1.5,1.1-1.5,2.3-3,2.3-3.1,1.2-1.5,1.3-1.5,5.1-6c.8-1,1.8-2,2.7-2.9l2.8-2.9c1.9-1.9,3.8-4,5.8-5.8l6.1-5.6,6.5-5.4,3.3-2.7,3.4-2.5,6.9-5,7.2-4.7,3.6-2.3,3.7-2.2,7.4-4.4,7.6-4.1,1.9-1,1-.5.5-.3-.4.2h.3l3.5-1.9,3.5-1.9,1.8-1,1.4-.9,5.7-3.6,5.8-4.1c2-1.3,3.8-2.9,5.7-4.3s3.7-2.9,5.5-4.5l5.3-4.6,5-4.8,2.5-2.4,2.4-2.5c1.6-1.7,3.2-3.2,4.6-4.9,3-3.4,5.9-6.6,8.6-10,5.5-6.6,10.3-13.2,14.6-19.4l6.1-9,5.2-8.3,4.4-7.5c1.4-2.3,2.5-4.5,3.6-6.4,2.2-3.9,3.8-7,5-9.1L307.6,0l43.5,24.7-2.2,3.4c-1.4,2.2-3.4,5.6-6.2,9.7-1.4,2.1-2.9,4.4-4.6,6.8l-5.6,8L326,61.6l-7.6,9.7c-5.5,6.7-11.5,13.8-18.4,21-3.4,3.7-7.1,7.2-10.8,10.9-1.9,1.8-3.9,3.6-5.9,5.4l-3,2.7-3.1,2.6-6.4,5.3-6.8,5.1c-2.2,1.7-4.7,3.3-7,4.9s-4.8,3.3-7.3,4.8l-7.6,4.5-8.2,4.4-2.1,1.1-1.8.8-3.7,1.7-3.7,1.7-1,.4-.4.2-.9.4-1.7.8-6.9,3.1-6.7,3.3-3.4,1.7-3.3,1.8-6.5,3.6-6.2,3.9-3.1,1.9-2.9,2.1-5.8,4.1-5.5,4.3c-1.9,1.4-3.5,2.9-5.2,4.4l-2.5,2.2c-.8.7-1.7,1.5-2.4,2.3l-4.6,4.7-1.1,1.1-1,1.2-2.1,2.4-2.1,2.4-1,1.2-.9,1.2-3.6,4.8c-1.3,1.5-2.3,3.2-3.3,4.8l-3.1,4.7-2.7,4.7-1.3,2.3c-.4.7-.9,1.5-1.2,2.2-1.4,3-2.9,5.9-4.1,8.6L123,243c-.9,2.4-1.6,4.6-2.2,6.6l-1,2.8c-.3.9-.5,1.9-.8,2.8l-1.2,4.5-1,3.7Z"/>
        <path class="cls-1" d="M81.3,308.9l3.2-4.6,1.8-2.5,1.1-1.5,1.3-1.6,2.8-3.7,1.6-2,1.7-2,3.6-4.4c1.3-1.5,2.7-3,4.2-4.7,2.9-3.3,6.2-6.6,9.7-10.2a256.4,256.4,0,0,1,25.6-22,246.4,246.4,0,0,1,34-21.3l4.8-2.5,4.9-2.3,5-2.3,5.2-2.2c3.5-1.5,7-2.7,10.7-4.1l1.4-.5.7-.2h.2l.5-.2h.3l2.6-.8,5.2-1.7,1.3-.4,1.4-.4,2.9-.8,5.8-1.6,11.5-2.7c7.7-1.7,15.5-3.2,23.3-4.4,15.6-2.6,31.4-4.5,46.8-6.4s30.5-3.9,44.9-6.5l10.7-2.1,10.7-2.5,1.4-.3,1.2-.3,2.5-.7,4.9-1.3,4.9-1.4,4.9-1.5A340.3,340.3,0,0,0,429.2,164l8.4-3.9,8-4,7.6-4.1c2.5-1.3,4.9-2.8,7.3-4.1l3.5-2.1,1.7-1,1.7-1.1,6.5-4.1c2.1-1.3,4.1-2.7,6-4s3.9-2.6,5.6-3.9c7.2-5.2,13.3-9.9,18.2-13.9l6.5-5.4,4.6-4.2,3.9-3.5,33.1,37.5-4.7,3.8-5.6,4.5-7.8,5.9c-5.9,4.3-13.1,9.4-21.6,14.9-2.1,1.4-4.4,2.7-6.7,4.1s-4.6,2.9-7.1,4.3l-7.6,4.3-2,1.1-2,1.1-4.1,2.1c-2.8,1.4-5.6,2.9-8.5,4.3l-8.9,4.2-9.3,4.1-9.7,4a383.5,383.5,0,0,1-42.4,13.8l-5.6,1.4-5.8,1.4-5.9,1.3-3,.6-1.5.3-1.4.2-11.5,2.1-11.9,1.7c-15.9,2.1-31.8,3.3-47.3,4.5s-30.9,2.2-45.6,3.9c-7.4.8-14.6,1.8-21.6,3L232.3,241l-4.9,1.1-2.4.5-1.2.3-1.3.3-5.3,1.4-2.6.7h-.3l-.6.2-1.2.4c-3.2,1-6.3,1.9-9.4,3.1l-4.6,1.6-4.5,1.8-4.4,1.8-4.3,1.9a216.5,216.5,0,0,0-30.8,17.2,228.3,228.3,0,0,0-23.7,18.3c-3.3,3-6.4,5.8-9.1,8.6s-2.7,2.6-3.9,4l-3.4,3.7-1.6,1.7-1.4,1.6-2.5,3-1.1,1.3-1.1,1.3-1.9,2.4-3.4,4.4Z"/>
        <path class="cls-2" d="M99.4,259.1l.8-3.8,1-4.5c.2-.9.4-1.9.6-2.9l.9-3.3c.7-2.3,1.3-4.9,2.2-7.7l3.1-8.8c1.2-3.1,2.7-6.4,4.1-9.8.3-.9.8-1.7,1.2-2.6l1.3-2.6,2.7-5.4,3.2-5.4c1.1-1.8,2.2-3.7,3.5-5.5l3.8-5.6,1-1.4,1.1-1.4,2.2-2.8,2.2-2.8,1.1-1.4,1.2-1.3,4.9-5.5c.8-.9,1.7-1.8,2.6-2.7l2.7-2.6c1.8-1.8,3.6-3.6,5.6-5.2l5.9-5.1,6.2-4.9,3.1-2.4,3.3-2.3,6.6-4.6,6.9-4.3,3.5-2.1,3.6-2,7.2-4,7.3-3.7,3.6-1.8,3.6-1.8,3.6-1.8,1.8-.9,1.7-1,6.7-3.9,6.5-4.3c2.2-1.4,4.2-3,6.3-4.5s4.2-3,6.1-4.7l5.9-4.8,5.6-5,2.7-2.5,2.6-2.6c1.7-1.7,3.5-3.4,5.1-5.1,3.3-3.5,6.5-6.8,9.5-10.3,6.1-6.8,11.3-13.7,16.1-20l6.7-9.3,5.8-8.6,4.9-7.7c1.5-2.4,2.8-4.6,4-6.6,2.4-4,4.2-7.2,5.5-9.4l1.9-3.3,8.7,4.9-2,3.4c-1.3,2.2-3.2,5.4-5.7,9.5-1.3,2-2.6,4.3-4.2,6.7L313.9,41l-6,8.7-7,9.4c-5,6.5-10.5,13.4-16.9,20.4-3.1,3.5-6.5,7-9.9,10.5-1.7,1.8-3.6,3.4-5.4,5.2l-2.8,2.6-2.9,2.5-5.9,5.1-6.2,4.9c-2,1.7-4.3,3.2-6.4,4.8s-4.3,3.2-6.6,4.6l-6.9,4.4-7.2,4.1-1.8,1-1.8.9-3.6,1.8-3.6,1.8-3.7,1.8-7.2,3.5-7,3.7-3.5,1.9-3.4,2-6.7,4.1-6.5,4.3-3.2,2.2-3.1,2.3-6.1,4.6-5.7,4.9c-1.9,1.6-3.7,3.3-5.4,5l-2.6,2.5c-.9.8-1.8,1.7-2.5,2.5l-4.8,5.2-1.2,1.3-1.1,1.3-2.2,2.7-2.1,2.6-1.1,1.3-1,1.3-3.8,5.3c-1.3,1.7-2.3,3.5-3.4,5.3l-3.2,5.2-2.7,5.2-1.3,2.5c-.4.8-.9,1.6-1.2,2.5-1.4,3.3-2.9,6.4-4.1,9.4l-3.1,8.5c-.9,2.6-1.5,5.1-2.2,7.3l-.9,3.1c-.3,1-.5,2-.7,2.9l-1.1,4.5-.9,3.8Z"/>
        <path class="cls-2" d="M86.6,313.8l3.3-4.5c1.1-1.5,2.4-3.3,4.1-5.4l2.7-3.4,1.5-1.9,1.6-1.9,3.6-4.1c1.2-1.5,2.6-2.9,4.1-4.4,2.8-3.1,6-6.2,9.5-9.5a245.2,245.2,0,0,1,24.9-20.5,234.6,234.6,0,0,1,32.7-19.6l4.6-2.3,4.7-2.1,4.8-2.1,4.9-1.9c3.3-1.4,6.7-2.5,10.2-3.7l1.3-.4.6-.2h.7l2.6-.8,5.2-1.6a336.5,336.5,0,0,1,44.5-9.1c15.3-2.2,30.8-3.8,46.3-5.4s30.9-3.3,45.9-5.7L362,201h1.3l1.4-.3,2.8-.6,5.5-1.2,10.7-2.6,5.3-1.4,5.2-1.5a357.7,357.7,0,0,0,39.1-14l8.9-3.9,8.6-4.1,8.2-4.2c2.7-1.3,5.2-2.8,7.8-4.2l3.7-2.1,1.8-1,1.8-1.1,6.9-4.2c2.3-1.3,4.4-2.8,6.5-4.1s4.1-2.6,6-4c7.7-5.3,14.3-10.2,19.5-14.3l7-5.6,5-4.3,4.2-3.6,6.6,7.5-4.3,3.7-5.2,4.4-7.2,5.7c-5.5,4.2-12.2,9.2-20.2,14.5-2,1.4-4.1,2.6-6.2,4s-4.3,2.8-6.7,4.2l-7.1,4.2-1.8,1.1-1.9,1-3.9,2.1c-2.6,1.4-5.2,2.9-8,4.2l-8.4,4.2-8.8,4.1-9.2,3.9a366.3,366.3,0,0,1-40.2,13.9l-5.4,1.5-5.4,1.4-11.1,2.6-5.5,1.1-2.8.6-1.4.3h-1.5L352,210.8c-15.3,2.3-30.9,3.9-46.4,5.3s-31,2.9-46,4.9a330.3,330.3,0,0,0-43.6,8.5,227.4,227.4,0,0,0-70.9,33.4,239.6,239.6,0,0,0-24.5,19.8c-3.4,3.3-6.6,6.3-9.3,9.2-1.4,1.5-2.8,2.8-4,4.2l-3.5,4-1.6,1.8-1.5,1.8L98,307l-2.3,2.8-1.8,2.4-3.3,4.5Z"/>
        <path class="cls-3" d="M78.5,368.3c38.2-9.4,69.4-50.6,59-91.1-12.9-50.4-65.9-41.5-98.3-17.8-16.4,12.1-29.3,30-32,50.2s6.3,42.4,24,52.4A63.6,63.6,0,0,0,78.5,368.3Z"/>
        <path class="cls-4" d="M71.8,350.7c32.2-7.9,53-38.7,54.8-71.3,2.9-52-58-64.1-94.1-37.6C16,253.8,3.2,271.8.5,292s6.3,42.4,24,52.4A63.6,63.6,0,0,0,71.8,350.7Z"/>
        <g>
          <path class="cls-3" d="M46.6,269c-3.4,1.7-7.9.9-11.6,2.3a16.5,16.5,0,0,0-9,8.9c-6.2,14.2,23.7,35.6,31.1,40.8S72.3,324.7,75,323a14.5,14.5,0,0,0,6.3-9.9c1.4-7.7-1.3-10.5.9-13.5,5.7-7.7-.1-16.9-.1-16.9.9-2.5,1.4-4.5.5-7.2s-1.9-4.3-2.5-6.6a8,8,0,0,1,1.1-7c-9.5-3.4-11.7,3.3-15.3,4s-9.1-4.4-18,2.2Z"/>
          <path class="cls-5" d="M34.8,266.6c10.4,6,17.8,15.5,27.2,22.7s17,10,21.9,22.6"/>
          <path class="cls-5" d="M62,253.9a44.3,44.3,0,0,0,30.9,34.7"/>
        </g>
      </g>
    </g>
  </g>
</svg>
