<svg xmlns="http://www.w3.org/2000/svg" width="1920" height="500" viewBox="0 0 1920 500"><defs><style>.a{opacity:0.05;}.b{fill:none;stroke:#000;stroke-miterlimit:10;stroke-width:1.4px;}</style></defs><title>Asset 2</title><g class="a"><path class="b" d="M.2,117.7C66.3,138,265.4,91.1,398,86.5c35.2-1.2,75.4-1.5,99.8,11.9,11.3,6.2,17.4,14.5,27.2,21.4,33.3,23.1,98.3,23.5,153,20,128.8-8.2,254.9-25.6,383.2-35.9s261.9-13.1,385.5,7.6c53.4,8.9,105.8,22.3,161.9,22.2,54-.1,104.7-12.6,156.4-20.8s111.9-11.5,156.1,4.8"/><path class="b" d="M.2,48.1c77.9-7.4,141.7,19.9,213.6,19s141.2-33.8,213.2-34c182.9-.4,361.6,43,543.4,32.3,179.3-10.6,344.4-73.1,524-63.7,148.2,7.7,277.4,57.7,424.8,46.4"/><path class="b" d="M1921,176.7c-66.1-20.3-265.1,26.6-397.7,31.2-35.2,1.2-75.4,1.5-99.8-11.9-11.3-6.2-17.4-14.5-27.2-21.4-33.3-23.1-98.3-23.5-153-20-128.8,8.2-254.9,25.6-383.2,35.9s-261.9,13.1-385.5-7.6c-53.4-8.9-105.8-22.3-161.9-22.2-54,.1-104.7,12.6-156.4,20.8S44.4,193,.2,176.7"/><path class="b" d="M1921,246.3c-77.9,7.4-141.7-19.9-213.6-19s-141.2,33.8-213.2,34c-182.9.4-361.6-43-543.4-32.3-179.3,10.6-344.4,73.1-524,63.7C278.6,285,149.5,235.1,2.1,246.3"/></g></svg>